<svg width="980" height="490" viewBox="0 0 980 490" fill="none" xmlns="http://www.w3.org/2000/svg">
<g clip-path="url(#clip0_709_557)">
<path d="M207.06 -0.000184212C180.435 -0.0459316 154.053 5.07078 129.375 15.0667C128.382 15.4739 127.384 15.8831 126.387 16.3016C88.8833 32.1276 56.8848 58.6708 34.4018 92.6047C11.9188 126.539 -0.0484173 166.354 -9.83975e-05 207.06V433C0.00259072 435.386 0.951664 437.674 2.63891 439.361C4.32615 441.048 6.61378 441.997 8.9999 442L9.17861 442.016C182.645 473.517 351.285 489.48 510.551 489.48C512.938 489.48 515.324 489.477 517.707 489.47C674.262 488.993 826.701 473.03 970.79 442.022L971 442C973.386 441.997 975.674 441.048 977.361 439.361C979.048 437.674 979.997 435.386 980 433V8.99988C979.997 6.61375 979.048 4.32611 977.361 2.63887C975.674 0.951624 973.386 0.0025633 971 -0.000123177L207.06 -0.000184212Z" fill="#007BFF"/>
<path d="M745.799 180.193C744.239 180.218 742.752 180.856 741.658 181.968C740.564 183.081 739.95 184.578 739.95 186.139C739.95 187.699 740.564 189.197 741.658 190.309C742.752 191.421 744.239 192.059 745.799 192.085H894.885C895.667 192.098 896.443 191.958 897.17 191.671C897.897 191.385 898.561 190.958 899.122 190.415C899.684 189.871 900.134 189.223 900.445 188.506C900.756 187.789 900.923 187.018 900.935 186.236C900.948 185.455 900.807 184.679 900.519 183.952C900.232 183.225 899.804 182.562 899.261 182.001C898.717 181.44 898.068 180.991 897.35 180.681C896.633 180.371 895.862 180.205 895.08 180.193C895.015 180.192 894.95 180.192 894.885 180.193H745.799Z" fill="#3F3D56"/>
<path d="M928.694 178.537C928.586 178.646 928.499 178.775 928.441 178.917C928.382 179.059 928.351 179.211 928.351 179.364C928.351 179.518 928.382 179.67 928.441 179.812C928.499 179.954 928.586 180.083 928.694 180.192L933.717 185.215H921.331C921.021 185.215 920.723 185.338 920.504 185.557C920.284 185.777 920.161 186.074 920.161 186.385C920.161 186.695 920.284 186.993 920.504 187.212C920.723 187.431 921.021 187.555 921.331 187.555H933.717L928.694 192.578C928.586 192.686 928.499 192.815 928.441 192.957C928.382 193.099 928.351 193.251 928.351 193.405C928.351 193.559 928.382 193.711 928.441 193.853C928.499 193.995 928.586 194.124 928.694 194.232C928.803 194.341 928.932 194.427 929.074 194.486C929.216 194.545 929.368 194.575 929.521 194.575C929.675 194.575 929.827 194.545 929.969 194.486C930.111 194.427 930.24 194.341 930.349 194.232L937.369 187.212C937.589 186.993 937.712 186.695 937.712 186.385C937.712 186.074 937.589 185.777 937.369 185.557L930.349 178.537C930.24 178.428 930.111 178.342 929.969 178.283C929.827 178.225 929.675 178.194 929.521 178.194C929.368 178.194 929.216 178.225 929.074 178.283C928.932 178.342 928.803 178.428 928.694 178.537Z" fill="white"/>
<path d="M711.927 178.537C712.036 178.646 712.122 178.775 712.181 178.917C712.24 179.059 712.27 179.211 712.27 179.364C712.27 179.518 712.24 179.67 712.181 179.812C712.122 179.954 712.036 180.083 711.927 180.192L706.904 185.215H719.29C719.444 185.214 719.597 185.244 719.739 185.303C719.881 185.361 720.011 185.447 720.12 185.556C720.229 185.665 720.315 185.794 720.374 185.936C720.433 186.078 720.464 186.231 720.464 186.385C720.464 186.539 720.433 186.691 720.374 186.833C720.315 186.975 720.229 187.105 720.12 187.213C720.011 187.322 719.881 187.408 719.739 187.467C719.597 187.525 719.444 187.555 719.29 187.555H706.904L711.927 192.578C712.147 192.797 712.27 193.095 712.27 193.405C712.27 193.715 712.147 194.013 711.927 194.232C711.708 194.452 711.41 194.575 711.1 194.575C710.79 194.575 710.492 194.452 710.273 194.232L703.252 187.212C703.033 186.993 702.91 186.695 702.91 186.385C702.91 186.074 703.033 185.777 703.252 185.557L710.273 178.537C710.381 178.428 710.51 178.342 710.652 178.283C710.794 178.225 710.946 178.194 711.1 178.194C711.254 178.194 711.406 178.225 711.548 178.283C711.69 178.342 711.819 178.428 711.927 178.537V178.537Z" fill="white"/>
<g opacity="0.4">
<path d="M751.82 56.7798C755.349 56.7798 758.21 53.9189 758.21 50.3899C758.21 46.8609 755.349 44 751.82 44C748.291 44 745.43 46.8609 745.43 50.3899C745.43 53.9189 748.291 56.7798 751.82 56.7798Z" fill="white"/>
<path d="M778.445 56.7798C781.974 56.7798 784.834 53.9189 784.834 50.3899C784.834 46.8609 781.974 44 778.445 44C774.916 44 772.055 46.8609 772.055 50.3899C772.055 53.9189 774.916 56.7798 778.445 56.7798Z" fill="white"/>
<path d="M805.069 56.7798C808.598 56.7798 811.459 53.9189 811.459 50.3899C811.459 46.8609 808.598 44 805.069 44C801.54 44 798.679 46.8609 798.679 50.3899C798.679 53.9189 801.54 56.7798 805.069 56.7798Z" fill="white"/>
<path d="M831.694 56.7798C835.223 56.7798 838.083 53.9189 838.083 50.3899C838.083 46.8609 835.223 44 831.694 44C828.165 44 825.304 46.8609 825.304 50.3899C825.304 53.9189 828.165 56.7798 831.694 56.7798Z" fill="white"/>
<path d="M858.318 56.7798C861.847 56.7798 864.708 53.9189 864.708 50.3899C864.708 46.8609 861.847 44 858.318 44C854.789 44 851.928 46.8609 851.928 50.3899C851.928 53.9189 854.789 56.7798 858.318 56.7798Z" fill="white"/>
<path d="M884.943 56.7798C888.472 56.7798 891.333 53.9189 891.333 50.3899C891.333 46.8609 888.472 44 884.943 44C881.414 44 878.553 46.8609 878.553 50.3899C878.553 53.9189 881.414 56.7798 884.943 56.7798Z" fill="white"/>
<path d="M911.567 56.7798C915.096 56.7798 917.957 53.9189 917.957 50.3899C917.957 46.8609 915.096 44 911.567 44C908.038 44 905.177 46.8609 905.177 50.3899C905.177 53.9189 908.038 56.7798 911.567 56.7798Z" fill="white"/>
<path d="M751.82 77.0147C755.349 77.0147 758.21 74.1538 758.21 70.6248C758.21 67.0957 755.349 64.2349 751.82 64.2349C748.291 64.2349 745.43 67.0957 745.43 70.6248C745.43 74.1538 748.291 77.0147 751.82 77.0147Z" fill="white"/>
<path d="M778.445 77.0147C781.974 77.0147 784.834 74.1538 784.834 70.6248C784.834 67.0957 781.974 64.2349 778.445 64.2349C774.916 64.2349 772.055 67.0957 772.055 70.6248C772.055 74.1538 774.916 77.0147 778.445 77.0147Z" fill="white"/>
<path d="M805.069 77.0147C808.598 77.0147 811.459 74.1538 811.459 70.6248C811.459 67.0957 808.598 64.2349 805.069 64.2349C801.54 64.2349 798.679 67.0957 798.679 70.6248C798.679 74.1538 801.54 77.0147 805.069 77.0147Z" fill="white"/>
<path d="M831.694 77.0147C835.223 77.0147 838.083 74.1538 838.083 70.6248C838.083 67.0957 835.223 64.2349 831.694 64.2349C828.165 64.2349 825.304 67.0957 825.304 70.6248C825.304 74.1538 828.165 77.0147 831.694 77.0147Z" fill="white"/>
<path d="M858.318 77.0147C861.847 77.0147 864.708 74.1538 864.708 70.6248C864.708 67.0957 861.847 64.2349 858.318 64.2349C854.789 64.2349 851.928 67.0957 851.928 70.6248C851.928 74.1538 854.789 77.0147 858.318 77.0147Z" fill="white"/>
<path d="M884.943 77.0147C888.472 77.0147 891.333 74.1538 891.333 70.6248C891.333 67.0957 888.472 64.2349 884.943 64.2349C881.414 64.2349 878.553 67.0957 878.553 70.6248C878.553 74.1538 881.414 77.0147 884.943 77.0147Z" fill="white"/>
<path d="M911.567 77.0147C915.096 77.0147 917.957 74.1538 917.957 70.6248C917.957 67.0957 915.096 64.2349 911.567 64.2349C908.038 64.2349 905.177 67.0957 905.177 70.6248C905.177 74.1538 908.038 77.0147 911.567 77.0147Z" fill="white"/>
<path d="M751.82 97.249C755.349 97.249 758.21 94.3882 758.21 90.8591C758.21 87.3301 755.349 84.4692 751.82 84.4692C748.291 84.4692 745.43 87.3301 745.43 90.8591C745.43 94.3882 748.291 97.249 751.82 97.249Z" fill="white"/>
<path d="M778.445 97.249C781.974 97.249 784.834 94.3882 784.834 90.8591C784.834 87.3301 781.974 84.4692 778.445 84.4692C774.916 84.4692 772.055 87.3301 772.055 90.8591C772.055 94.3882 774.916 97.249 778.445 97.249Z" fill="white"/>
<path d="M805.069 97.249C808.598 97.249 811.459 94.3882 811.459 90.8591C811.459 87.3301 808.598 84.4692 805.069 84.4692C801.54 84.4692 798.679 87.3301 798.679 90.8591C798.679 94.3882 801.54 97.249 805.069 97.249Z" fill="white"/>
<path d="M831.694 97.249C835.223 97.249 838.083 94.3882 838.083 90.8591C838.083 87.3301 835.223 84.4692 831.694 84.4692C828.165 84.4692 825.304 87.3301 825.304 90.8591C825.304 94.3882 828.165 97.249 831.694 97.249Z" fill="white"/>
<path d="M858.318 97.249C861.847 97.249 864.708 94.3882 864.708 90.8591C864.708 87.3301 861.847 84.4692 858.318 84.4692C854.789 84.4692 851.928 87.3301 851.928 90.8591C851.928 94.3882 854.789 97.249 858.318 97.249Z" fill="white"/>
<path d="M884.943 97.249C888.472 97.249 891.333 94.3882 891.333 90.8591C891.333 87.3301 888.472 84.4692 884.943 84.4692C881.414 84.4692 878.553 87.3301 878.553 90.8591C878.553 94.3882 881.414 97.249 884.943 97.249Z" fill="white"/>
<path d="M911.567 97.249C915.096 97.249 917.957 94.3882 917.957 90.8591C917.957 87.3301 915.096 84.4692 911.567 84.4692C908.038 84.4692 905.177 87.3301 905.177 90.8591C905.177 94.3882 908.038 97.249 911.567 97.249Z" fill="white"/>
<path d="M751.82 117.484C755.349 117.484 758.21 114.623 758.21 111.094C758.21 107.565 755.349 104.704 751.82 104.704C748.291 104.704 745.43 107.565 745.43 111.094C745.43 114.623 748.291 117.484 751.82 117.484Z" fill="white"/>
<path d="M778.445 117.484C781.974 117.484 784.834 114.623 784.834 111.094C784.834 107.565 781.974 104.704 778.445 104.704C774.916 104.704 772.055 107.565 772.055 111.094C772.055 114.623 774.916 117.484 778.445 117.484Z" fill="white"/>
<path d="M751.82 137.719C755.349 137.719 758.21 134.858 758.21 131.329C758.21 127.8 755.349 124.939 751.82 124.939C748.291 124.939 745.43 127.8 745.43 131.329C745.43 134.858 748.291 137.719 751.82 137.719Z" fill="white"/>
<path d="M778.445 137.719C781.974 137.719 784.834 134.858 784.834 131.329C784.834 127.8 781.974 124.939 778.445 124.939C774.916 124.939 772.055 127.8 772.055 131.329C772.055 134.858 774.916 137.719 778.445 137.719Z" fill="white"/>
<path d="M805.069 137.719C808.598 137.719 811.459 134.858 811.459 131.329C811.459 127.8 808.598 124.939 805.069 124.939C801.54 124.939 798.679 127.8 798.679 131.329C798.679 134.858 801.54 137.719 805.069 137.719Z" fill="white"/>
<path d="M805.069 117.484C808.598 117.484 811.459 114.623 811.459 111.094C811.459 107.565 808.598 104.704 805.069 104.704C801.54 104.704 798.679 107.565 798.679 111.094C798.679 114.623 801.54 117.484 805.069 117.484Z" fill="white"/>
<path d="M831.694 117.484C835.223 117.484 838.083 114.623 838.083 111.094C838.083 107.565 835.223 104.704 831.694 104.704C828.165 104.704 825.304 107.565 825.304 111.094C825.304 114.623 828.165 117.484 831.694 117.484Z" fill="white"/>
<path d="M858.318 117.484C861.847 117.484 864.708 114.623 864.708 111.094C864.708 107.565 861.847 104.704 858.318 104.704C854.789 104.704 851.928 107.565 851.928 111.094C851.928 114.623 854.789 117.484 858.318 117.484Z" fill="white"/>
<path d="M884.943 117.484C888.472 117.484 891.333 114.623 891.333 111.094C891.333 107.565 888.472 104.704 884.943 104.704C881.414 104.704 878.553 107.565 878.553 111.094C878.553 114.623 881.414 117.484 884.943 117.484Z" fill="white"/>
<path d="M911.567 117.484C915.096 117.484 917.957 114.623 917.957 111.094C917.957 107.565 915.096 104.704 911.567 104.704C908.038 104.704 905.177 107.565 905.177 111.094C905.177 114.623 908.038 117.484 911.567 117.484Z" fill="white"/>
</g>
<path d="M660.157 375.459C653.181 375.459 646.361 373.39 640.561 369.515C634.76 365.639 630.239 360.13 627.57 353.685C624.9 347.24 624.202 340.147 625.563 333.305C626.924 326.463 630.283 320.178 635.216 315.245C640.149 310.312 646.434 306.953 653.276 305.592C660.118 304.231 667.21 304.929 673.655 307.599C680.101 310.269 685.609 314.79 689.485 320.59C693.361 326.391 695.43 333.21 695.43 340.187C695.419 349.538 691.7 358.504 685.087 365.116C678.474 371.729 669.509 375.448 660.157 375.459V375.459ZM660.157 306.914C653.577 306.914 647.144 308.865 641.672 312.521C636.2 316.178 631.936 321.374 629.418 327.454C626.899 333.533 626.24 340.223 627.524 346.678C628.808 353.132 631.977 359.06 636.63 363.714C641.283 368.367 647.212 371.536 653.666 372.82C660.12 374.103 666.81 373.445 672.89 370.926C678.97 368.408 684.166 364.143 687.822 358.672C691.478 353.2 693.43 346.767 693.43 340.187C693.42 331.365 689.911 322.908 683.673 316.67C677.436 310.433 668.979 306.924 660.157 306.914V306.914Z" fill="#3F3D56"/>
<path d="M673.681 336.806H663.538V326.664C663.538 325.767 663.182 324.907 662.548 324.273C661.914 323.639 661.054 323.283 660.158 323.283C659.261 323.283 658.401 323.639 657.767 324.273C657.133 324.907 656.777 325.767 656.777 326.664V336.806H646.634C645.738 336.806 644.878 337.162 644.244 337.796C643.61 338.43 643.254 339.29 643.254 340.187C643.254 341.083 643.61 341.943 644.244 342.577C644.878 343.211 645.738 343.567 646.634 343.567H656.777V353.71C656.777 354.606 657.133 355.466 657.767 356.1C658.401 356.734 659.261 357.091 660.158 357.091C661.054 357.091 661.914 356.734 662.548 356.1C663.182 355.466 663.538 354.606 663.538 353.71V343.567H673.681C674.577 343.567 675.437 343.211 676.071 342.577C676.705 341.943 677.061 341.083 677.061 340.187C677.061 339.29 676.705 338.43 676.071 337.796C675.437 337.162 674.577 336.806 673.681 336.806V336.806Z" fill="white"/>
<g opacity="0.4">
<path d="M54.0239 379.79C56.7985 379.79 59.0478 377.54 59.0478 374.766C59.0478 371.991 56.7985 369.742 54.0239 369.742C51.2493 369.742 49 371.991 49 374.766C49 377.54 51.2493 379.79 54.0239 379.79Z" fill="white"/>
<path d="M54.0239 358.856C56.7985 358.856 59.0478 356.607 59.0478 353.833C59.0478 351.058 56.7985 348.809 54.0239 348.809C51.2493 348.809 49 351.058 49 353.833C49 356.607 51.2493 358.856 54.0239 358.856Z" fill="white"/>
<path d="M54.0239 337.924C56.7985 337.924 59.0478 335.675 59.0478 332.9C59.0478 330.125 56.7985 327.876 54.0239 327.876C51.2493 327.876 49 330.125 49 332.9C49 335.675 51.2493 337.924 54.0239 337.924Z" fill="white"/>
<path d="M54.0239 316.991C56.7985 316.991 59.0478 314.741 59.0478 311.967C59.0478 309.192 56.7985 306.943 54.0239 306.943C51.2493 306.943 49 309.192 49 311.967C49 314.741 51.2493 316.991 54.0239 316.991Z" fill="white"/>
<path d="M54.0239 296.058C56.7985 296.058 59.0478 293.808 59.0478 291.034C59.0478 288.259 56.7985 286.01 54.0239 286.01C51.2493 286.01 49 288.259 49 291.034C49 293.808 51.2493 296.058 54.0239 296.058Z" fill="white"/>
<path d="M54.0239 275.125C56.7985 275.125 59.0478 272.876 59.0478 270.101C59.0478 267.326 56.7985 265.077 54.0239 265.077C51.2493 265.077 49 267.326 49 270.101C49 272.876 51.2493 275.125 54.0239 275.125Z" fill="white"/>
<path d="M54.0239 254.192C56.7985 254.192 59.0478 251.943 59.0478 249.168C59.0478 246.393 56.7985 244.144 54.0239 244.144C51.2493 244.144 49 246.393 49 249.168C49 251.943 51.2493 254.192 54.0239 254.192Z" fill="white"/>
<path d="M69.9328 379.79C72.7075 379.79 74.9568 377.54 74.9568 374.766C74.9568 371.991 72.7075 369.742 69.9328 369.742C67.1582 369.742 64.9089 371.991 64.9089 374.766C64.9089 377.54 67.1582 379.79 69.9328 379.79Z" fill="white"/>
<path d="M69.9328 358.856C72.7075 358.856 74.9568 356.607 74.9568 353.833C74.9568 351.058 72.7075 348.809 69.9328 348.809C67.1582 348.809 64.9089 351.058 64.9089 353.833C64.9089 356.607 67.1582 358.856 69.9328 358.856Z" fill="white"/>
<path d="M69.9328 337.924C72.7075 337.924 74.9568 335.675 74.9568 332.9C74.9568 330.125 72.7075 327.876 69.9328 327.876C67.1582 327.876 64.9089 330.125 64.9089 332.9C64.9089 335.675 67.1582 337.924 69.9328 337.924Z" fill="white"/>
<path d="M69.9328 316.991C72.7075 316.991 74.9568 314.741 74.9568 311.967C74.9568 309.192 72.7075 306.943 69.9328 306.943C67.1582 306.943 64.9089 309.192 64.9089 311.967C64.9089 314.741 67.1582 316.991 69.9328 316.991Z" fill="white"/>
<path d="M69.9328 296.058C72.7075 296.058 74.9568 293.808 74.9568 291.034C74.9568 288.259 72.7075 286.01 69.9328 286.01C67.1582 286.01 64.9089 288.259 64.9089 291.034C64.9089 293.808 67.1582 296.058 69.9328 296.058Z" fill="white"/>
<path d="M69.9328 275.125C72.7075 275.125 74.9568 272.876 74.9568 270.101C74.9568 267.326 72.7075 265.077 69.9328 265.077C67.1582 265.077 64.9089 267.326 64.9089 270.101C64.9089 272.876 67.1582 275.125 69.9328 275.125Z" fill="white"/>
<path d="M69.9328 254.192C72.7075 254.192 74.9568 251.943 74.9568 249.168C74.9568 246.393 72.7075 244.144 69.9328 244.144C67.1582 244.144 64.9089 246.393 64.9089 249.168C64.9089 251.943 67.1582 254.192 69.9328 254.192Z" fill="white"/>
<path d="M85.842 379.79C88.6167 379.79 90.8659 377.54 90.8659 374.766C90.8659 371.991 88.6167 369.742 85.842 369.742C83.0674 369.742 80.8181 371.991 80.8181 374.766C80.8181 377.54 83.0674 379.79 85.842 379.79Z" fill="white"/>
<path d="M85.842 358.856C88.6167 358.856 90.8659 356.607 90.8659 353.833C90.8659 351.058 88.6167 348.809 85.842 348.809C83.0674 348.809 80.8181 351.058 80.8181 353.833C80.8181 356.607 83.0674 358.856 85.842 358.856Z" fill="white"/>
<path d="M85.842 337.924C88.6167 337.924 90.8659 335.675 90.8659 332.9C90.8659 330.125 88.6167 327.876 85.842 327.876C83.0674 327.876 80.8181 330.125 80.8181 332.9C80.8181 335.675 83.0674 337.924 85.842 337.924Z" fill="white"/>
<path d="M85.842 316.991C88.6167 316.991 90.8659 314.741 90.8659 311.967C90.8659 309.192 88.6167 306.943 85.842 306.943C83.0674 306.943 80.8181 309.192 80.8181 311.967C80.8181 314.741 83.0674 316.991 85.842 316.991Z" fill="white"/>
<path d="M85.842 296.058C88.6167 296.058 90.8659 293.808 90.8659 291.034C90.8659 288.259 88.6167 286.01 85.842 286.01C83.0674 286.01 80.8181 288.259 80.8181 291.034C80.8181 293.808 83.0674 296.058 85.842 296.058Z" fill="white"/>
<path d="M85.842 275.125C88.6167 275.125 90.8659 272.876 90.8659 270.101C90.8659 267.326 88.6167 265.077 85.842 265.077C83.0674 265.077 80.8181 267.326 80.8181 270.101C80.8181 272.876 83.0674 275.125 85.842 275.125Z" fill="white"/>
<path d="M85.842 254.192C88.6167 254.192 90.8659 251.943 90.8659 249.168C90.8659 246.393 88.6167 244.144 85.842 244.144C83.0674 244.144 80.8181 246.393 80.8181 249.168C80.8181 251.943 83.0674 254.192 85.842 254.192Z" fill="white"/>
<path d="M101.751 379.79C104.526 379.79 106.775 377.54 106.775 374.766C106.775 371.991 104.526 369.742 101.751 369.742C98.9763 369.742 96.7271 371.991 96.7271 374.766C96.7271 377.54 98.9763 379.79 101.751 379.79Z" fill="white"/>
<path d="M101.751 358.856C104.526 358.856 106.775 356.607 106.775 353.833C106.775 351.058 104.526 348.809 101.751 348.809C98.9763 348.809 96.7271 351.058 96.7271 353.833C96.7271 356.607 98.9763 358.856 101.751 358.856Z" fill="white"/>
<path d="M117.66 379.79C120.435 379.79 122.684 377.54 122.684 374.766C122.684 371.991 120.435 369.742 117.66 369.742C114.886 369.742 112.636 371.991 112.636 374.766C112.636 377.54 114.886 379.79 117.66 379.79Z" fill="white"/>
<path d="M117.66 358.856C120.435 358.856 122.684 356.607 122.684 353.833C122.684 351.058 120.435 348.809 117.66 348.809C114.886 348.809 112.636 351.058 112.636 353.833C112.636 356.607 114.886 358.856 117.66 358.856Z" fill="white"/>
<path d="M117.66 337.924C120.435 337.924 122.684 335.675 122.684 332.9C122.684 330.125 120.435 327.876 117.66 327.876C114.886 327.876 112.636 330.125 112.636 332.9C112.636 335.675 114.886 337.924 117.66 337.924Z" fill="white"/>
<path d="M101.751 337.924C104.526 337.924 106.775 335.675 106.775 332.9C106.775 330.125 104.526 327.876 101.751 327.876C98.9763 327.876 96.7271 330.125 96.7271 332.9C96.7271 335.675 98.9763 337.924 101.751 337.924Z" fill="white"/>
<path d="M101.751 316.991C104.526 316.991 106.775 314.741 106.775 311.967C106.775 309.192 104.526 306.943 101.751 306.943C98.9763 306.943 96.7271 309.192 96.7271 311.967C96.7271 314.741 98.9763 316.991 101.751 316.991Z" fill="white"/>
<path d="M101.751 296.058C104.526 296.058 106.775 293.808 106.775 291.034C106.775 288.259 104.526 286.01 101.751 286.01C98.9763 286.01 96.7271 288.259 96.7271 291.034C96.7271 293.808 98.9763 296.058 101.751 296.058Z" fill="white"/>
<path d="M101.751 275.125C104.526 275.125 106.775 272.876 106.775 270.101C106.775 267.326 104.526 265.077 101.751 265.077C98.9763 265.077 96.7271 267.326 96.7271 270.101C96.7271 272.876 98.9763 275.125 101.751 275.125Z" fill="white"/>
<path d="M101.751 254.192C104.526 254.192 106.775 251.943 106.775 249.168C106.775 246.393 104.526 244.144 101.751 244.144C98.9763 244.144 96.7271 246.393 96.7271 249.168C96.7271 251.943 98.9763 254.192 101.751 254.192Z" fill="white"/>
</g>
<path d="M497.408 33.0024H163.666C162.027 33.0041 160.455 33.656 159.296 34.8151C158.137 35.9741 157.486 37.5457 157.484 39.1848V324.568C157.486 326.207 158.137 327.779 159.296 328.938C160.455 330.097 162.027 330.749 163.666 330.75H497.408C499.047 330.749 500.619 330.097 501.778 328.938C502.937 327.779 503.589 326.207 503.591 324.568V39.1848C503.589 37.5456 502.937 35.9741 501.778 34.815C500.619 33.656 499.047 33.0041 497.408 33.0024ZM501.113 324.568C501.113 325.552 500.722 326.495 500.028 327.191C499.334 327.888 498.392 328.281 497.408 328.284H163.666C162.682 328.283 161.739 327.89 161.044 327.193C160.349 326.497 159.96 325.552 159.961 324.568V39.1848C159.96 38.2007 160.349 37.2563 161.044 36.5594C161.739 35.8624 162.682 35.47 163.666 35.4684H497.408C498.392 35.4719 499.334 35.865 500.028 36.5615C500.722 37.258 501.113 38.2013 501.113 39.1848V324.568Z" fill="#3F3D56"/>
<path d="M237.702 280.004V280.006C237.702 280.394 237.692 280.78 237.672 281.153L237.672 281.158C237.375 286.831 234.913 292.174 230.793 296.085C226.672 299.995 221.208 302.176 215.527 302.176C209.847 302.176 204.382 299.995 200.262 296.085C196.142 292.174 193.679 286.831 193.383 281.158L193.383 281.153C193.362 280.781 193.352 280.395 193.352 280.006L193.352 280.004C193.35 277.091 193.923 274.206 195.036 271.514C196.15 268.822 197.783 266.376 199.842 264.315C201.902 262.255 204.347 260.62 207.038 259.505C209.729 258.389 212.614 257.815 215.527 257.815C218.441 257.815 221.325 258.389 224.017 259.505C226.708 260.62 229.153 262.255 231.212 264.315C233.272 266.376 234.905 268.822 236.019 271.514C237.132 274.206 237.704 277.091 237.702 280.004Z" fill="#FF0707" stroke="white" stroke-width="6"/>
<path d="M471.475 263.219H273.663C272.551 263.221 271.485 263.664 270.7 264.451C269.914 265.238 269.473 266.304 269.473 267.416C269.473 268.528 269.914 269.594 270.7 270.381C271.485 271.168 272.551 271.611 273.663 271.613H471.475C472.587 271.611 473.653 271.168 474.438 270.381C475.224 269.594 475.665 268.528 475.665 267.416C475.665 266.304 475.224 265.238 474.438 264.451C473.653 263.664 472.587 263.221 471.475 263.219V263.219Z" fill="#3F3D56"/>
<path d="M358.781 288.4H273.663C272.552 288.4 271.486 288.841 270.7 289.627C269.914 290.413 269.472 291.479 269.472 292.591C269.472 293.702 269.914 294.768 270.7 295.554C271.486 296.34 272.552 296.782 273.663 296.782H358.781C359.892 296.782 360.958 296.34 361.744 295.554C362.53 294.768 362.972 293.702 362.972 292.591C362.972 291.479 362.53 290.413 361.744 289.627C360.958 288.841 359.892 288.4 358.781 288.4Z" fill="white"/>
<path d="M576.698 233.581H242.958C240.691 233.578 238.518 232.677 236.916 231.074C235.313 229.471 234.412 227.298 234.409 225.031V78.5693C234.412 76.3028 235.313 74.1298 236.916 72.527C238.518 70.9243 240.691 70.0227 242.958 70.02H576.698C578.965 70.0227 581.138 70.9243 582.74 72.527C584.343 74.1298 585.245 76.3028 585.247 78.5693V225.031C585.245 227.298 584.343 229.471 582.741 231.074C581.138 232.677 578.965 233.578 576.698 233.581V233.581ZM242.958 73.02C241.487 73.0217 240.076 73.607 239.036 74.6473C237.996 75.6876 237.411 77.0981 237.409 78.5693V225.031C237.411 226.502 237.996 227.913 239.036 228.953C240.076 229.994 241.487 230.579 242.958 230.581H576.698C578.169 230.579 579.58 229.994 580.62 228.953C581.66 227.913 582.246 226.502 582.247 225.031V78.5693C582.245 77.0981 581.66 75.6876 580.62 74.6473C579.58 73.607 578.169 73.0217 576.698 73.02H242.958Z" fill="white"/>
<path d="M310.924 123.439C309.811 123.439 308.744 123.882 307.957 124.668C307.17 125.455 306.728 126.523 306.728 127.635C306.728 128.748 307.17 129.815 307.957 130.602C308.744 131.389 309.811 131.831 310.924 131.831H508.732C509.844 131.831 510.912 131.389 511.698 130.602C512.485 129.815 512.927 128.748 512.927 127.635C512.927 126.523 512.485 125.455 511.698 124.668C510.912 123.882 509.844 123.439 508.732 123.439H310.924Z" fill="#FF7223"/>
<path d="M310.924 147.752C309.811 147.752 308.744 148.194 307.957 148.981C307.17 149.768 306.728 150.835 306.728 151.948C306.728 153.061 307.17 154.128 307.957 154.915C308.744 155.702 309.811 156.144 310.924 156.144H508.732C509.843 156.142 510.909 155.699 511.694 154.913C512.48 154.126 512.921 153.06 512.921 151.948C512.921 150.836 512.48 149.77 511.694 148.983C510.909 148.196 509.843 147.754 508.732 147.752H310.924Z" fill="white"/>
<path d="M310.924 171.77C309.811 171.77 308.744 172.212 307.957 172.999C307.17 173.785 306.728 174.853 306.728 175.965C306.728 177.078 307.17 178.146 307.957 178.932C308.744 179.719 309.811 180.161 310.924 180.161H396.041C397.153 180.16 398.219 179.717 399.004 178.93C399.79 178.143 400.231 177.077 400.231 175.965C400.231 174.854 399.79 173.787 399.004 173.001C398.219 172.214 397.153 171.771 396.041 171.77H310.924Z" fill="#FF7223"/>
<path d="M631.724 295.633L598.204 248.326L609.055 250.587C609.248 250.627 609.447 250.629 609.641 250.592C609.834 250.555 610.019 250.481 610.184 250.373C610.349 250.265 610.491 250.125 610.602 249.962C610.713 249.799 610.79 249.616 610.831 249.423C610.871 249.23 610.873 249.031 610.836 248.837C610.799 248.644 610.725 248.459 610.617 248.294C610.508 248.129 610.369 247.988 610.206 247.877C610.043 247.766 609.86 247.688 609.667 247.648L593.496 244.281L591.314 260.652C591.287 260.847 591.299 261.047 591.35 261.238C591.4 261.428 591.488 261.608 591.607 261.765C591.727 261.922 591.877 262.054 592.048 262.153C592.219 262.252 592.407 262.316 592.603 262.342C592.799 262.369 592.998 262.356 593.189 262.305C593.379 262.254 593.558 262.166 593.715 262.045C593.872 261.925 594.003 261.775 594.102 261.604C594.2 261.433 594.264 261.244 594.29 261.048L595.753 250.055L629.276 297.367C629.39 297.528 629.535 297.665 629.701 297.77C629.868 297.875 630.054 297.946 630.248 297.979C630.442 298.012 630.641 298.006 630.833 297.963C631.025 297.919 631.206 297.838 631.367 297.724C631.528 297.61 631.664 297.466 631.769 297.299C631.874 297.132 631.945 296.946 631.978 296.752C632.012 296.558 632.006 296.359 631.962 296.167C631.919 295.975 631.837 295.794 631.724 295.633V295.633Z" fill="white"/>
<path d="M449.666 433.321H211.409C210.239 433.319 209.118 432.854 208.29 432.027C207.463 431.2 206.998 430.078 206.997 428.909V369.807C206.998 368.637 207.463 367.516 208.29 366.689C209.118 365.862 210.239 365.396 211.409 365.395H449.666C450.836 365.396 451.957 365.862 452.784 366.689C453.611 367.516 454.077 368.637 454.078 369.807V428.909C454.077 430.078 453.611 431.2 452.784 432.027C451.957 432.854 450.836 433.319 449.666 433.321V433.321ZM211.409 367.16C210.707 367.161 210.034 367.44 209.538 367.936C209.041 368.432 208.762 369.105 208.761 369.807V428.909C208.762 429.61 209.041 430.283 209.538 430.78C210.034 431.276 210.707 431.555 211.409 431.556H449.666C450.368 431.555 451.041 431.276 451.537 430.78C452.033 430.283 452.312 429.61 452.313 428.909V369.807C452.312 369.105 452.033 368.432 451.537 367.936C451.041 367.44 450.368 367.161 449.666 367.16H211.409Z" fill="#3F3D56"/>
<path d="M264.402 397.09C264.402 405.912 257.251 413.063 248.429 413.063C239.608 413.063 232.456 405.912 232.456 397.09C232.456 388.268 239.608 381.117 248.429 381.117C257.251 381.117 264.402 388.268 264.402 397.09Z" fill="#FF0000" stroke="white" stroke-width="4"/>
<path d="M289.938 385.108C289.544 385.107 289.154 385.184 288.79 385.334C288.426 385.485 288.095 385.705 287.816 385.983C287.537 386.262 287.316 386.592 287.165 386.956C287.014 387.32 286.937 387.71 286.937 388.103C286.937 388.497 287.014 388.887 287.165 389.251C287.316 389.615 287.537 389.945 287.816 390.223C288.095 390.502 288.426 390.722 288.79 390.872C289.154 391.023 289.544 391.1 289.938 391.099H431.153C431.947 391.099 432.709 390.783 433.271 390.222C433.833 389.66 434.148 388.898 434.148 388.103C434.148 387.309 433.833 386.547 433.271 385.985C432.709 385.424 431.947 385.108 431.153 385.108H289.938Z" fill="white"/>
<path d="M289.938 403.081C289.544 403.08 289.154 403.157 288.79 403.308C288.426 403.458 288.095 403.678 287.816 403.956C287.537 404.235 287.316 404.565 287.165 404.929C287.014 405.293 286.937 405.683 286.937 406.076C286.937 406.47 287.014 406.86 287.165 407.224C287.316 407.588 287.537 407.918 287.816 408.197C288.095 408.475 288.426 408.695 288.79 408.846C289.154 408.996 289.544 409.073 289.938 409.072H350.703C351.497 409.072 352.259 408.756 352.821 408.195C353.383 407.633 353.698 406.871 353.698 406.076C353.698 405.282 353.383 404.52 352.821 403.958C352.259 403.397 351.497 403.081 350.703 403.081H289.938Z" fill="white"/>
<path d="M764.024 222.756H869.917C871.087 222.757 872.208 223.223 873.035 224.05C873.862 224.877 874.328 225.998 874.329 227.168V337.45C874.328 338.62 873.862 339.742 873.035 340.569C872.208 341.396 871.087 341.861 869.917 341.863H764.024C762.855 341.861 761.733 341.396 760.906 340.569C760.079 339.742 759.614 338.62 759.612 337.45V227.168C759.614 225.998 760.079 224.877 760.906 224.05C761.733 223.223 762.855 222.757 764.024 222.756V222.756ZM869.917 340.098C870.619 340.097 871.292 339.818 871.788 339.322C872.284 338.825 872.563 338.152 872.564 337.45V227.168C872.563 226.466 872.284 225.793 871.788 225.297C871.292 224.801 870.619 224.521 869.917 224.521H764.024C763.323 224.521 762.65 224.801 762.153 225.297C761.657 225.793 761.378 226.466 761.377 227.168V337.45C761.378 338.152 761.657 338.825 762.153 339.322C762.65 339.818 763.323 340.097 764.024 340.098H869.917Z" fill="#3F3D56"/>
<path d="M847.353 319.12C848.148 319.12 848.91 318.805 849.471 318.243C850.033 317.681 850.349 316.919 850.349 316.125C850.349 315.33 850.033 314.568 849.471 314.007C848.91 313.445 848.148 313.129 847.353 313.129H786.588C785.794 313.129 785.032 313.445 784.47 314.007C783.908 314.568 783.593 315.33 783.593 316.125C783.593 316.919 783.908 317.681 784.47 318.243C785.032 318.805 785.794 319.12 786.588 319.12H847.353Z" fill="white"/>
<path d="M847.353 301.472C847.747 301.473 848.137 301.396 848.501 301.245C848.865 301.095 849.196 300.875 849.475 300.596C849.754 300.318 849.975 299.988 850.126 299.624C850.276 299.26 850.354 298.87 850.354 298.476C850.354 298.083 850.276 297.693 850.126 297.329C849.975 296.965 849.754 296.635 849.475 296.356C849.196 296.078 848.865 295.858 848.501 295.707C848.137 295.557 847.747 295.48 847.353 295.481H786.588C786.194 295.48 785.804 295.557 785.44 295.707C785.076 295.858 784.745 296.078 784.466 296.356C784.188 296.635 783.966 296.965 783.815 297.329C783.665 297.693 783.587 298.083 783.587 298.476C783.587 298.87 783.665 299.26 783.815 299.624C783.966 299.988 784.188 300.318 784.466 300.596C784.745 300.875 785.076 301.095 785.44 301.245C785.804 301.396 786.194 301.473 786.588 301.472H847.353Z" fill="white"/>
<path d="M816.971 247.498C820.305 247.498 823.563 248.487 826.334 250.339C829.106 252.191 831.267 254.823 832.542 257.903C833.818 260.983 834.152 264.372 833.502 267.641C832.851 270.911 831.246 273.914 828.889 276.271C826.531 278.629 823.528 280.234 820.259 280.884C816.989 281.535 813.6 281.201 810.52 279.925C807.44 278.649 804.808 276.489 802.956 273.717C801.104 270.946 800.115 267.688 800.115 264.354C800.121 259.885 801.898 255.601 805.058 252.441C808.218 249.281 812.503 247.503 816.971 247.498Z" fill="#FF7223" stroke="white" stroke-width="4"/>
</g>
<defs>
<clipPath id="clip0_709_557">
<rect width="980" height="489.48" fill="white"/>
</clipPath>
</defs>
</svg>
