<svg width="898" height="557" viewBox="0 0 898 557" fill="none" xmlns="http://www.w3.org/2000/svg">
<g clip-path="url(#clip0_709_734)">
<path d="M217.339 502.047L218.337 479.613C228.738 474.053 240.339 471.116 252.132 471.058C235.901 484.328 237.929 509.909 226.925 527.754C223.45 533.294 218.773 537.981 213.241 541.467C207.708 544.953 201.462 547.15 194.965 547.894L181.382 556.211C179.519 545.82 179.93 535.149 182.587 524.933C185.244 514.716 190.085 505.197 196.775 497.032C200.574 492.488 204.93 488.441 209.74 484.986C212.993 493.564 217.339 502.047 217.339 502.047Z" fill="#F2F2F2"/>
<path d="M796.922 36.5522H164.598C164.333 36.5464 164.08 36.4368 163.895 36.247C163.709 36.0573 163.605 35.8023 163.605 35.5368C163.605 35.2713 163.709 35.0164 163.895 34.8266C164.08 34.6369 164.333 34.5273 164.598 34.5215H796.922C797.187 34.5273 797.44 34.6369 797.625 34.8266C797.811 35.0164 797.915 35.2713 797.915 35.5368C797.915 35.8023 797.811 36.0573 797.625 36.247C797.44 36.4368 797.187 36.5464 796.922 36.5522Z" fill="#CACACA"/>
<path d="M186.953 22.3376C192.987 22.3376 197.879 17.3372 197.879 11.1688C197.879 5.00045 192.987 0 186.953 0C180.919 0 176.028 5.00045 176.028 11.1688C176.028 17.3372 180.919 22.3376 186.953 22.3376Z" fill="#3F3D56"/>
<path d="M224.695 22.3376C230.729 22.3376 235.621 17.3372 235.621 11.1688C235.621 5.00045 230.729 0 224.695 0C218.661 0 213.77 5.00045 213.77 11.1688C213.77 17.3372 218.661 22.3376 224.695 22.3376Z" fill="#3F3D56"/>
<path d="M262.437 22.3376C268.471 22.3376 273.363 17.3372 273.363 11.1688C273.363 5.00045 268.471 0 262.437 0C256.403 0 251.512 5.00045 251.512 11.1688C251.512 17.3372 256.403 22.3376 262.437 22.3376Z" fill="#3F3D56"/>
<path d="M774.304 2.76807H747.494C746.963 2.77862 746.457 2.99713 746.085 3.37668C745.713 3.75623 745.504 4.26655 745.504 4.79807C745.504 5.32958 745.713 5.8399 746.085 6.21945C746.457 6.599 746.963 6.81751 747.494 6.82806H774.304C774.836 6.81751 775.342 6.599 775.714 6.21945C776.086 5.8399 776.295 5.32958 776.295 4.79807C776.295 4.26655 776.086 3.75623 775.714 3.37668C775.342 2.99713 774.836 2.77862 774.304 2.76807V2.76807Z" fill="#3F3D56"/>
<path d="M774.304 10.3882H747.494C746.963 10.3987 746.457 10.6172 746.085 10.9968C745.713 11.3763 745.504 11.8867 745.504 12.4182C745.504 12.9497 745.713 13.46 746.085 13.8396C746.457 14.2191 746.963 14.4376 747.494 14.4482H774.304C774.836 14.4376 775.342 14.2191 775.714 13.8396C776.086 13.46 776.295 12.9497 776.295 12.4182C776.295 11.8867 776.086 11.3763 775.714 10.9968C775.342 10.6172 774.836 10.3987 774.304 10.3882V10.3882Z" fill="#3F3D56"/>
<path d="M774.304 17.998H747.494C746.963 18.0086 746.457 18.2271 746.085 18.6066C745.713 18.9862 745.504 19.4965 745.504 20.028C745.504 20.5596 745.713 21.0699 746.085 21.4494C746.457 21.829 746.963 22.0475 747.494 22.058H774.304C774.836 22.0475 775.342 21.829 775.714 21.4494C776.086 21.0699 776.295 20.5596 776.295 20.028C776.295 19.4965 776.086 18.9862 775.714 18.6066C775.342 18.2271 774.836 18.0086 774.304 17.998Z" fill="#3F3D56"/>
<path d="M656.713 116.142H222.703C220.565 116.142 218.514 116.991 217.001 118.502C215.487 120.013 214.636 122.063 214.633 124.202V329.072C214.636 331.211 215.487 333.262 217 334.775C218.512 336.288 220.564 337.139 222.703 337.142H656.713C658.851 337.137 660.9 336.285 662.411 334.772C663.922 333.26 664.771 331.21 664.773 329.072V124.202C664.771 122.065 663.921 120.016 662.41 118.505C660.899 116.994 658.85 116.144 656.713 116.142V116.142Z" fill="#3F3D56"/>
<path d="M542.073 214.842C539.936 214.844 537.887 215.694 536.376 217.205C534.865 218.716 534.015 220.765 534.013 222.902V280.772C534.015 282.91 534.864 284.96 536.375 286.473C537.886 287.985 539.935 288.837 542.073 288.842H664.773V214.842H542.073Z" fill="#007BFF"/>
<path opacity="0.5" d="M871.088 288.837H542.078C539.939 288.834 537.889 287.984 536.376 286.472C534.864 284.959 534.014 282.909 534.011 280.771V222.903C534.014 220.764 534.864 218.714 536.377 217.202C537.889 215.69 539.939 214.839 542.078 214.837H871.088C873.226 214.839 875.277 215.69 876.789 217.202C878.301 218.714 879.152 220.764 879.154 222.903V280.771C879.152 282.909 878.301 284.959 876.789 286.472C875.277 287.984 873.226 288.834 871.088 288.837Z" fill="#007BFF"/>
<path d="M586.571 268.626C593.8 268.626 599.66 262.766 599.66 255.537C599.66 248.308 593.8 242.447 586.571 242.447C579.342 242.447 573.482 248.308 573.482 255.537C573.482 262.766 579.342 268.626 586.571 268.626Z" fill="white"/>
<path d="M860.894 251.734H624.38C623.346 251.734 622.355 251.323 621.624 250.592C620.893 249.861 620.482 248.87 620.482 247.836C620.482 246.802 620.893 245.811 621.624 245.08C622.355 244.349 623.346 243.938 624.38 243.938H860.894C861.928 243.938 862.919 244.349 863.65 245.08C864.381 245.811 864.792 246.802 864.792 247.836C864.792 248.87 864.381 249.861 863.65 250.592C862.919 251.323 861.928 251.734 860.894 251.734Z" fill="white"/>
<path d="M771.063 267.136H624.38C623.346 267.136 622.354 266.725 621.623 265.994C620.892 265.263 620.482 264.272 620.482 263.238C620.482 262.204 620.892 261.213 621.623 260.482C622.354 259.751 623.346 259.34 624.38 259.34H771.063C772.097 259.34 773.089 259.751 773.82 260.482C774.551 261.213 774.961 262.204 774.961 263.238C774.961 264.272 774.551 265.263 773.82 265.994C773.089 266.725 772.097 267.136 771.063 267.136V267.136Z" fill="white"/>
<path d="M151.406 545.537L162.734 545.536L168.123 501.843H151.404L151.406 545.537Z" fill="#E4974F"/>
<path d="M148.517 541.838L151.705 541.838L164.154 536.775L170.826 541.837H170.826C174.597 541.837 178.213 543.335 180.879 546.001C183.545 548.667 185.043 552.283 185.043 556.054V556.516L148.518 556.517L148.517 541.838Z" fill="#2F2E41"/>
<path d="M49.051 530.809L59.19 535.862L83.504 499.161L68.541 491.703L49.051 530.809Z" fill="#E4974F"/>
<path d="M48.1151 526.21L50.9688 527.632L64.3682 528.655L68.0815 536.161L68.0823 536.161C71.4567 537.844 74.0247 540.797 75.2215 544.373C76.4183 547.948 76.1459 551.853 74.4642 555.227L74.2581 555.641L41.5674 539.348L48.1151 526.21Z" fill="#2F2E41"/>
<path d="M156.425 347.097L84.3993 348.976L85.6519 384.049C85.6519 384.049 84.3993 393.444 86.9046 395.949C89.4098 398.454 90.6624 398.454 89.4098 402.839C88.1572 407.223 84.9188 449.112 84.9188 449.112C84.9188 449.112 55.3573 501.382 56.6099 502.635C57.8626 503.887 59.1152 502.635 57.8625 505.766C56.6099 508.898 55.3573 507.645 56.6099 508.898C57.7195 510.094 58.7648 511.349 59.7415 512.656H80.157C80.157 512.656 81.2987 506.393 81.2987 505.766C81.2987 505.14 82.5513 501.382 82.5513 500.756C82.5513 500.129 118.22 462.338 118.22 462.338L125.736 399.707L143.899 461.086C143.899 461.086 143.899 514.949 145.152 516.201C146.404 517.454 146.404 516.828 145.778 519.333C145.152 521.838 142.646 521.212 144.525 523.091C146.404 524.97 147.031 521.838 146.404 524.97L145.778 528.101L169.84 528.37C169.84 528.37 172.346 523.091 171.093 521.212C169.84 519.333 169.916 519.846 171.444 516.771C172.972 513.696 173.598 513.07 172.972 512.443C172.346 511.817 172.346 508.486 172.346 508.486C172.346 508.486 163.315 385.302 163.315 383.423C163.268 382.456 163.446 381.491 163.835 380.605V378.055L161.436 369.018L156.425 347.097Z" fill="#2F2E41"/>
<path d="M869.68 238.347C864.214 238.347 858.871 236.726 854.326 233.689C849.781 230.653 846.238 226.336 844.146 221.286C842.054 216.236 841.507 210.679 842.574 205.317C843.64 199.956 846.272 195.032 850.137 191.166C854.003 187.301 858.927 184.669 864.289 183.602C869.65 182.536 875.207 183.083 880.257 185.175C885.307 187.267 889.624 190.809 892.661 195.354C895.697 199.899 897.318 205.243 897.318 210.709C897.318 218.039 894.407 225.069 889.223 230.252C884.04 235.435 877.011 238.347 869.68 238.347V238.347Z" fill="#007BFF"/>
<path d="M880.586 207.983H872.407V199.804C872.407 199.081 872.119 198.388 871.608 197.877C871.097 197.365 870.403 197.078 869.68 197.078C868.957 197.078 868.264 197.365 867.753 197.877C867.241 198.388 866.954 199.081 866.954 199.804V207.983H858.775C858.417 207.983 858.061 208.053 857.73 208.189C857.399 208.326 857.098 208.527 856.844 208.78C856.59 209.033 856.389 209.334 856.251 209.665C856.114 209.996 856.043 210.351 856.043 210.71C856.043 211.068 856.114 211.423 856.251 211.754C856.389 212.085 856.59 212.386 856.844 212.639C857.098 212.893 857.399 213.093 857.73 213.23C858.061 213.367 858.417 213.437 858.775 213.436H866.954V221.615C866.954 222.338 867.241 223.032 867.753 223.543C868.264 224.054 868.957 224.341 869.68 224.341C870.403 224.341 871.097 224.054 871.608 223.543C872.119 223.032 872.407 222.338 872.407 221.615V213.436H880.586C881.309 213.436 882.002 213.149 882.513 212.638C883.025 212.126 883.312 211.433 883.312 210.71C883.312 209.987 883.025 209.293 882.513 208.782C882.002 208.271 881.309 207.983 880.586 207.983V207.983Z" fill="white"/>
<path d="M447.883 289.212H342.873C340.734 289.214 338.682 290.065 337.169 291.578C335.657 293.091 334.806 295.142 334.803 297.282V337.142H455.943V297.282C455.941 295.144 455.092 293.094 453.581 291.581C452.07 290.068 450.021 289.216 447.883 289.212V289.212Z" fill="#007BFF"/>
<path opacity="0.5" d="M447.88 401.212H342.87C340.731 401.209 338.681 400.359 337.168 398.847C335.656 397.334 334.806 395.284 334.803 393.146V297.278C334.806 295.139 335.656 293.089 337.169 291.577C338.681 290.065 340.731 289.214 342.87 289.212H447.88C450.018 289.214 452.069 290.065 453.581 291.577C455.093 293.089 455.944 295.139 455.946 297.278V393.146C455.944 395.284 455.093 397.334 453.581 398.847C452.069 400.359 450.018 401.209 447.88 401.212Z" fill="#007BFF"/>
<path d="M373.808 334.652C381.037 334.652 386.898 328.792 386.898 321.563C386.898 314.334 381.037 308.474 373.808 308.474C366.579 308.474 360.719 314.334 360.719 321.563C360.719 328.792 366.579 334.652 373.808 334.652Z" fill="white"/>
<path d="M426.131 354.547H364.617C363.583 354.547 362.592 354.137 361.861 353.406C361.13 352.675 360.719 351.683 360.719 350.65C360.719 349.616 361.13 348.625 361.861 347.894C362.592 347.163 363.583 346.752 364.617 346.752H426.131C427.165 346.752 428.156 347.163 428.887 347.894C429.618 348.625 430.029 349.616 430.029 350.65C430.029 351.683 429.618 352.675 428.887 353.406C428.156 354.137 427.165 354.547 426.131 354.547Z" fill="white"/>
<path d="M394.301 369.949H364.617C363.583 369.949 362.592 369.539 361.861 368.807C361.13 368.076 360.719 367.085 360.719 366.051C360.719 365.017 361.13 364.026 361.861 363.295C362.592 362.564 363.583 362.153 364.617 362.153H394.301C395.334 362.153 396.326 362.564 397.057 363.295C397.788 364.026 398.199 365.017 398.199 366.051C398.199 367.085 397.788 368.076 397.057 368.807C396.326 369.539 395.334 369.949 394.301 369.949V369.949Z" fill="white"/>
<path d="M340.68 429.347C335.214 429.347 329.871 427.726 325.326 424.689C320.781 421.653 317.238 417.336 315.146 412.286C313.054 407.236 312.507 401.679 313.574 396.317C314.64 390.956 317.272 386.032 321.137 382.166C325.003 378.301 329.927 375.669 335.289 374.602C340.65 373.536 346.207 374.083 351.257 376.175C356.307 378.267 360.624 381.809 363.661 386.354C366.698 390.9 368.319 396.243 368.319 401.709C368.319 409.039 365.407 416.069 360.224 421.252C355.04 426.435 348.011 429.347 340.68 429.347V429.347Z" fill="#FF0000"/>
<path d="M351.586 398.983H343.407V390.804C343.407 390.081 343.119 389.388 342.608 388.877C342.097 388.365 341.403 388.078 340.68 388.078C339.957 388.078 339.264 388.365 338.753 388.877C338.241 389.388 337.954 390.081 337.954 390.804V398.983H329.775C329.417 398.983 329.061 399.053 328.73 399.19C328.399 399.326 328.098 399.527 327.844 399.78C327.59 400.033 327.389 400.334 327.251 400.665C327.114 400.996 327.043 401.351 327.043 401.71C327.043 402.068 327.114 402.423 327.251 402.754C327.389 403.085 327.59 403.386 327.844 403.639C328.098 403.893 328.399 404.093 328.73 404.23C329.061 404.367 329.417 404.437 329.775 404.436H337.954V412.615C337.954 413.338 338.241 414.032 338.753 414.543C339.264 415.054 339.957 415.341 340.68 415.341C341.403 415.341 342.097 415.054 342.608 414.543C343.119 414.032 343.407 413.338 343.407 412.615V404.436H351.586C352.309 404.436 353.002 404.149 353.513 403.638C354.025 403.126 354.312 402.433 354.312 401.71C354.312 400.987 354.025 400.293 353.513 399.782C353.002 399.271 352.309 398.983 351.586 398.983Z" fill="white"/>
<path d="M327.887 228.267H222.877C220.738 228.264 218.688 227.414 217.176 225.901C215.664 224.389 214.813 222.339 214.811 220.2V124.333C214.813 122.194 215.664 120.144 217.176 118.632C218.688 117.12 220.738 116.269 222.877 116.267H327.887C330.026 116.269 332.076 117.12 333.588 118.632C335.1 120.144 335.951 122.194 335.953 124.333V220.2C335.951 222.339 335.1 224.389 333.588 225.901C332.076 227.414 330.026 228.264 327.887 228.267V228.267Z" fill="#007BFF"/>
<path d="M253.816 169.707C261.045 169.707 266.906 163.847 266.906 156.618C266.906 149.389 261.045 143.528 253.816 143.528C246.587 143.528 240.727 149.389 240.727 156.618C240.727 163.847 246.587 169.707 253.816 169.707Z" fill="#007BFF"/>
<path d="M306.139 185.602H244.625C243.591 185.602 242.6 185.191 241.869 184.461C241.138 183.73 240.727 182.738 240.727 181.704C240.727 180.671 241.138 179.679 241.869 178.948C242.6 178.217 243.591 177.807 244.625 177.807H306.139C307.173 177.807 308.164 178.217 308.895 178.948C309.626 179.679 310.037 180.671 310.037 181.704C310.037 182.738 309.626 183.73 308.895 184.461C308.164 185.191 307.173 185.602 306.139 185.602V185.602Z" fill="#007BFF"/>
<path d="M274.308 201.004H244.625C243.591 201.004 242.6 200.593 241.868 199.862C241.137 199.131 240.727 198.14 240.727 197.106C240.727 196.072 241.137 195.081 241.868 194.35C242.6 193.619 243.591 193.208 244.625 193.208H274.308C275.342 193.208 276.334 193.619 277.065 194.35C277.796 195.081 278.206 196.072 278.206 197.106C278.206 198.14 277.796 199.131 277.065 199.862C276.334 200.593 275.342 201.004 274.308 201.004V201.004Z" fill="#007BFF"/>
<path opacity="0.5" d="M327.887 228.267H222.877C220.738 228.264 218.688 227.414 217.176 225.901C215.664 224.389 214.813 222.339 214.811 220.2V124.333C214.813 122.194 215.664 120.144 217.176 118.632C218.688 117.12 220.738 116.269 222.877 116.267H327.887C330.026 116.269 332.076 117.12 333.588 118.632C335.1 120.144 335.951 122.194 335.953 124.333V220.2C335.951 222.339 335.1 224.389 333.588 225.901C332.076 227.414 330.026 228.264 327.887 228.267V228.267Z" fill="#007BFF"/>
<path d="M253.816 169.707C261.045 169.707 266.906 163.847 266.906 156.618C266.906 149.389 261.045 143.528 253.816 143.528C246.587 143.528 240.727 149.389 240.727 156.618C240.727 163.847 246.587 169.707 253.816 169.707Z" fill="white"/>
<path d="M306.139 185.602H244.625C243.591 185.602 242.6 185.191 241.869 184.461C241.138 183.73 240.727 182.738 240.727 181.704C240.727 180.671 241.138 179.679 241.869 178.948C242.6 178.217 243.591 177.807 244.625 177.807H306.139C307.173 177.807 308.164 178.217 308.895 178.948C309.626 179.679 310.037 180.671 310.037 181.704C310.037 182.738 309.626 183.73 308.895 184.461C308.164 185.191 307.173 185.602 306.139 185.602V185.602Z" fill="white"/>
<path d="M274.308 201.004H244.625C243.591 201.004 242.6 200.593 241.868 199.862C241.137 199.131 240.727 198.14 240.727 197.106C240.727 196.072 241.137 195.081 241.868 194.35C242.6 193.619 243.591 193.208 244.625 193.208H274.308C275.342 193.208 276.334 193.619 277.065 194.35C277.796 195.081 278.206 196.072 278.206 197.106C278.206 198.14 277.796 199.131 277.065 199.862C276.334 200.593 275.342 201.004 274.308 201.004V201.004Z" fill="white"/>
<path d="M225.043 136.951C236.641 136.951 246.043 127.549 246.043 115.951C246.043 104.353 236.641 94.9512 225.043 94.9512C213.445 94.9512 204.043 104.353 204.043 115.951C204.043 127.549 213.445 136.951 225.043 136.951Z" fill="#FF7223"/>
<path d="M282.67 555.786C282.671 555.942 282.64 556.097 282.58 556.242C282.521 556.386 282.433 556.518 282.323 556.628C282.212 556.739 282.081 556.826 281.936 556.886C281.791 556.946 281.636 556.976 281.48 556.976H1.19C0.874395 556.976 0.57171 556.85 0.348541 556.627C0.125373 556.404 0 556.101 0 555.786C0 555.47 0.125373 555.167 0.348541 554.944C0.57171 554.721 0.874395 554.596 1.19 554.596H281.48C281.636 554.595 281.791 554.626 281.936 554.685C282.081 554.745 282.212 554.833 282.323 554.943C282.433 555.054 282.521 555.185 282.58 555.33C282.64 555.474 282.671 555.629 282.67 555.786V555.786Z" fill="#CCCCCC"/>
<path d="M220.555 171.576C221.418 173.99 221.298 176.646 220.221 178.973C219.144 181.299 217.196 183.108 214.796 184.011C214.265 184.21 213.718 184.36 213.161 184.462L207.615 218.422L194.604 206.409L201.866 176.002C201.597 173.44 202.347 170.875 203.955 168.862C205.562 166.848 207.897 165.548 210.456 165.243C212.608 164.996 214.78 165.489 216.615 166.64C218.45 167.79 219.84 169.531 220.555 171.576L220.555 171.576Z" fill="#E4974F"/>
<path d="M124.54 248.524C124.54 248.524 134.638 235.183 171.279 235.548L192.077 227.992L196.83 184.422L213.466 188.383L211.089 242.251L175.441 262.848L128.702 272.354L124.54 248.524Z" fill="#3F3D56"/>
<path d="M119.175 220.73C131.186 220.73 140.923 210.994 140.923 198.983C140.923 186.972 131.186 177.235 119.175 177.235C107.164 177.235 97.4277 186.972 97.4277 198.983C97.4277 210.994 107.164 220.73 119.175 220.73Z" fill="#E4974F"/>
<path d="M82.3673 363.878C82.3287 363.878 82.2903 363.873 82.2531 363.862C81.8516 363.75 81.5344 363.662 82.9834 351.133L84.5473 341.229L83.0206 332.485L80.4526 329.917L84.5798 325.79L88.0433 315.952L82.0505 307.071L75.1749 270.755C73.9929 264.489 74.9114 258.007 77.7881 252.316C80.6648 246.624 85.3388 242.041 91.0855 239.277L99.0433 236.952L101.939 231.642C102.752 230.151 103.949 228.904 105.406 228.032C106.863 227.159 108.527 226.692 110.225 226.68L124.798 226.571C126.268 226.56 127.721 226.889 129.043 227.534C130.364 228.178 131.518 229.12 132.415 230.286L137.499 236.895L158.581 244.056L155.086 319.378C155.641 319.842 156.094 320.417 156.415 321.066C156.737 321.715 156.921 322.423 156.954 323.146C156.988 323.87 156.871 324.592 156.612 325.268C156.352 325.944 155.954 326.559 155.445 327.073C155.226 327.294 155.052 327.474 154.944 327.593C154.589 328.098 155.256 331.868 156.079 335.069L157.135 339.97C156.796 340.212 156.511 340.522 156.298 340.88C156.085 341.238 155.948 341.636 155.897 342.049C155.846 342.462 155.88 342.882 155.999 343.281C156.118 343.68 156.318 344.05 156.587 344.368L157.934 345.959C158.2 347.953 157.664 349.972 156.445 351.572C155.225 353.172 153.42 354.223 151.426 354.494C132.159 357.116 82.468 363.878 82.3673 363.878Z" fill="#3F3D56"/>
<path d="M113.612 219.666C113.519 219.461 113.426 219.256 113.334 219.05C113.37 219.051 113.405 219.056 113.44 219.057L113.612 219.666Z" fill="#2F2E41"/>
<path d="M96.823 178.224C97.8556 177.25 99.1978 176.67 100.615 176.585C102.021 176.63 103.447 177.9 103.156 179.277C105.739 174.703 109.85 171.186 114.769 169.342C119.687 167.498 125.097 167.445 130.051 169.192C133.546 170.425 136.973 172.892 137.776 176.511C137.854 177.461 138.138 178.382 138.607 179.212C139.013 179.656 139.54 179.971 140.123 180.119C140.707 180.266 141.32 180.24 141.889 180.044L141.923 180.034C142.118 179.967 142.328 179.961 142.526 180.015C142.725 180.069 142.902 180.182 143.036 180.338C143.17 180.494 143.254 180.687 143.277 180.891C143.3 181.095 143.261 181.302 143.165 181.484L142.176 183.328C143.423 183.606 144.718 183.579 145.952 183.248C146.157 183.194 146.373 183.205 146.572 183.28C146.77 183.354 146.941 183.488 147.06 183.663C147.18 183.838 147.242 184.045 147.239 184.257C147.235 184.469 147.167 184.675 147.042 184.846C145.398 187.094 143.253 188.928 140.776 190.202C138.298 191.475 135.558 192.152 132.773 192.18C128.822 192.156 124.83 190.794 120.984 191.703C119.496 192.054 118.106 192.735 116.916 193.693C115.725 194.652 114.764 195.866 114.104 197.244C113.443 198.623 113.1 200.132 113.099 201.66C113.097 203.189 113.438 204.699 114.097 206.078C112.915 204.786 110.631 205.092 109.423 206.359C108.866 207.037 108.455 207.823 108.214 208.666C107.974 209.51 107.909 210.394 108.023 211.264C108.346 213.928 109.137 216.514 110.36 218.902C105.687 218.759 101.171 217.184 97.4217 214.392C93.6724 211.599 90.8704 207.724 89.3943 203.288C87.9182 198.852 87.839 194.07 89.1676 189.588C90.4961 185.106 93.1682 181.139 96.8231 178.224L96.823 178.224Z" fill="#2F2E41"/>
<path d="M90.8396 395.068C88.7604 393.568 87.3538 391.312 86.9231 388.785C86.4924 386.258 87.0721 383.662 88.5373 381.559C88.8623 381.095 89.2277 380.66 89.6293 380.261L74.9541 349.138L92.4809 351.662L103.73 380.83C105.403 382.789 106.239 385.328 106.055 387.897C105.872 390.467 104.685 392.862 102.75 394.563C101.116 395.986 99.0477 396.811 96.8833 396.903C94.719 396.995 92.5877 396.348 90.8397 395.068H90.8396Z" fill="#E4974F"/>
<path d="M86.3953 378.074L63.0432 325.591L62.8093 284.139L70.1704 261.749C71.1691 258.711 72.7666 255.904 74.8685 253.494C76.9704 251.085 79.534 249.121 82.4079 247.718C85.2818 246.316 88.4077 245.505 91.6006 245.331C94.7936 245.158 97.989 245.626 100.998 246.709L101.16 246.767L101.228 246.925C101.5 247.56 107.674 262.832 89.3608 294.248L85.6753 315.744L98.6074 365.018L86.3953 378.074Z" fill="#3F3D56"/>
</g>
<defs>
<clipPath id="clip0_709_734">
<rect width="897.318" height="556.975" fill="white"/>
</clipPath>
</defs>
</svg>
