<svg width="1140" height="655" viewBox="0 0 1140 655" fill="none" xmlns="http://www.w3.org/2000/svg">
<g clip-path="url(#clip0_709_862)">
<path d="M246.827 581.008C279.546 581.008 306.07 554.484 306.07 521.765C306.07 489.046 279.546 462.521 246.827 462.521C214.108 462.521 187.583 489.046 187.583 521.765C187.583 554.484 214.108 581.008 246.827 581.008Z" fill="#F2F2F2"/>
<path d="M256.46 572.338C289.179 572.338 315.703 545.814 315.703 513.095C315.703 480.376 289.179 453.852 256.46 453.852C223.741 453.852 197.217 480.376 197.217 513.095C197.217 545.814 223.741 572.338 256.46 572.338Z" fill="#FF0000"/>
<path d="M1037.17 447.543H304.171V449.543H1037.17V447.543Z" fill="#3F3D56"/>
<path d="M683.793 18.6524H423.623V13.29H305.652V18.6524H44.4102C42.0991 18.6524 39.8107 19.1076 37.6755 19.992C35.5403 20.8764 33.6003 22.1727 31.9661 23.8068C30.332 25.441 29.0357 27.3811 28.1512 29.5162C27.2668 31.6514 26.8116 33.9398 26.8116 36.2509V392.503C26.8116 397.17 28.6658 401.647 31.9661 404.947C35.2665 408.247 39.7427 410.102 44.4102 410.102H683.793C688.46 410.102 692.937 408.247 696.237 404.947C699.537 401.647 701.391 397.17 701.391 392.503V36.2509C701.391 33.9398 700.936 31.6514 700.052 29.5162C699.167 27.3811 697.871 25.441 696.237 23.8068C694.603 22.1727 692.663 20.8764 690.528 19.992C688.392 19.1076 686.104 18.6524 683.793 18.6524V18.6524Z" fill="#3F3D56"/>
<path d="M677.797 49.7539H50.4058V403.667H677.797V49.7539Z" fill="#007BFF"/>
<path d="M363.565 40.101C367.119 40.101 370 37.2201 370 33.6662C370 30.1124 367.119 27.2314 363.565 27.2314C360.011 27.2314 357.13 30.1124 357.13 33.6662C357.13 37.2201 360.011 40.101 363.565 40.101Z" fill="#007BFF"/>
<path opacity="0.1" d="M498.374 403.667H50.406V49.7539L498.374 403.667Z" fill="#9C4F4F"/>
<path d="M148.574 377.183C181.88 377.183 208.881 350.183 208.881 316.876C208.881 283.57 181.88 256.569 148.574 256.569C115.267 256.569 88.267 283.57 88.267 316.876C88.267 350.183 115.267 377.183 148.574 377.183Z" fill="#FF7223"/>
<path d="M568.558 240.622H509.953V252.868H568.558V240.622Z" fill="#FEFEFF"/>
<path d="M639.409 145.279H439.102V150.528H639.409V145.279Z" fill="#FEFEFF"/>
<path d="M639.409 161.898H439.102V167.147H639.409V161.898Z" fill="#FEFEFF"/>
<path d="M639.409 178.518H439.102V183.766H639.409V178.518Z" fill="#FEFEFF"/>
<path d="M639.409 195.137H439.102V200.385H639.409V195.137Z" fill="#FEFEFF"/>
<path d="M639.409 211.757H439.102V217.005H639.409V211.757Z" fill="#FEFEFF"/>
<path d="M639.409 56.9336H614.917V81.4253H639.409V56.9336Z" fill="#F2F2F2"/>
<path d="M650.78 92.7966H621.04V63.0566H650.78V92.7966ZM622.333 91.5036H649.487V64.3497H622.333V91.5036Z" fill="#3F3D56"/>
<path d="M719.007 397.232H657.778V392.82C657.778 392.705 657.755 392.591 657.711 392.485C657.667 392.379 657.603 392.283 657.522 392.201C657.44 392.12 657.344 392.056 657.238 392.012C657.132 391.968 657.018 391.945 656.903 391.945H635.91C635.795 391.945 635.682 391.968 635.575 392.012C635.469 392.056 635.373 392.12 635.292 392.201C635.21 392.283 635.146 392.379 635.102 392.485C635.058 392.591 635.035 392.705 635.035 392.82V397.232H621.915V392.82C621.915 392.705 621.892 392.591 621.848 392.485C621.804 392.379 621.74 392.283 621.659 392.201C621.577 392.12 621.481 392.056 621.375 392.012C621.269 391.968 621.155 391.945 621.04 391.945H600.047C599.932 391.945 599.819 391.968 599.713 392.012C599.606 392.056 599.51 392.12 599.429 392.201C599.348 392.283 599.283 392.379 599.239 392.485C599.195 392.591 599.173 392.705 599.173 392.82V397.232H586.052V392.82C586.052 392.705 586.029 392.591 585.985 392.485C585.942 392.379 585.877 392.283 585.796 392.201C585.715 392.12 585.618 392.056 585.512 392.012C585.406 391.968 585.292 391.945 585.177 391.945H564.184C564.07 391.945 563.956 391.968 563.85 392.012C563.744 392.056 563.647 392.12 563.566 392.201C563.485 392.283 563.42 392.379 563.376 392.485C563.332 392.591 563.31 392.705 563.31 392.82V397.232H550.189V392.82C550.189 392.705 550.167 392.591 550.123 392.485C550.079 392.379 550.014 392.283 549.933 392.201C549.852 392.12 549.755 392.056 549.649 392.012C549.543 391.968 549.429 391.945 549.314 391.945H528.322C528.207 391.945 528.093 391.968 527.987 392.012C527.881 392.056 527.784 392.12 527.703 392.201C527.622 392.283 527.557 392.379 527.513 392.485C527.469 392.591 527.447 392.705 527.447 392.82V397.232H514.326V392.82C514.326 392.705 514.304 392.591 514.26 392.485C514.216 392.379 514.151 392.283 514.07 392.201C513.989 392.12 513.892 392.056 513.786 392.012C513.68 391.968 513.566 391.945 513.452 391.945H492.459C492.344 391.945 492.23 391.968 492.124 392.012C492.018 392.056 491.921 392.12 491.84 392.201C491.759 392.283 491.694 392.379 491.651 392.485C491.607 392.591 491.584 392.705 491.584 392.82V397.232H478.463V392.82C478.463 392.705 478.441 392.591 478.397 392.485C478.353 392.379 478.288 392.283 478.207 392.201C478.126 392.12 478.03 392.056 477.923 392.012C477.817 391.968 477.704 391.945 477.589 391.945H456.596C456.481 391.945 456.367 391.968 456.261 392.012C456.155 392.056 456.058 392.12 455.977 392.201C455.896 392.283 455.832 392.379 455.788 392.485C455.744 392.591 455.721 392.705 455.721 392.82V397.232H442.6V392.82C442.6 392.705 442.578 392.591 442.534 392.485C442.49 392.379 442.425 392.283 442.344 392.201C442.263 392.12 442.167 392.056 442.06 392.012C441.954 391.968 441.841 391.945 441.726 391.945H277.281C277.166 391.945 277.053 391.968 276.947 392.012C276.84 392.056 276.744 392.12 276.663 392.201C276.582 392.283 276.517 392.379 276.473 392.485C276.429 392.591 276.407 392.705 276.407 392.82V397.232H263.286V392.82C263.286 392.705 263.263 392.591 263.219 392.485C263.176 392.379 263.111 392.283 263.03 392.201C262.949 392.12 262.852 392.056 262.746 392.012C262.64 391.968 262.526 391.945 262.411 391.945H241.418C241.304 391.945 241.19 391.968 241.084 392.012C240.978 392.056 240.881 392.12 240.8 392.201C240.719 392.283 240.654 392.379 240.61 392.485C240.566 392.591 240.544 392.705 240.544 392.82V397.232H227.423V392.82C227.423 392.705 227.401 392.591 227.357 392.485C227.313 392.379 227.248 392.283 227.167 392.201C227.086 392.12 226.989 392.056 226.883 392.012C226.777 391.968 226.663 391.945 226.548 391.945H205.556C205.441 391.945 205.327 391.968 205.221 392.012C205.115 392.056 205.018 392.12 204.937 392.201C204.856 392.283 204.791 392.379 204.747 392.485C204.703 392.591 204.681 392.705 204.681 392.82V397.232H191.56V392.82C191.56 392.705 191.538 392.591 191.494 392.485C191.45 392.379 191.385 392.283 191.304 392.201C191.223 392.12 191.126 392.056 191.02 392.012C190.914 391.968 190.8 391.945 190.686 391.945H169.693C169.578 391.945 169.464 391.968 169.358 392.012C169.252 392.056 169.155 392.12 169.074 392.201C168.993 392.283 168.928 392.379 168.885 392.485C168.841 392.591 168.818 392.705 168.818 392.82V397.232H155.697V392.82C155.697 392.705 155.675 392.591 155.631 392.485C155.587 392.379 155.522 392.283 155.441 392.201C155.36 392.12 155.264 392.056 155.157 392.012C155.051 391.968 154.938 391.945 154.823 391.945H133.83C133.715 391.945 133.601 391.968 133.495 392.012C133.389 392.056 133.292 392.12 133.211 392.201C133.13 392.283 133.066 392.379 133.022 392.485C132.978 392.591 132.955 392.705 132.955 392.82V397.232H119.835V392.82C119.835 392.705 119.812 392.591 119.768 392.485C119.724 392.379 119.66 392.283 119.578 392.201C119.497 392.12 119.401 392.056 119.295 392.012C119.188 391.968 119.075 391.945 118.96 391.945H97.9669C97.852 391.945 97.7383 391.968 97.6322 392.012C97.526 392.056 97.4296 392.12 97.3484 392.201C97.2672 392.283 97.2027 392.379 97.1588 392.485C97.1148 392.591 97.0922 392.705 97.0922 392.82V397.232H83.9716V392.82C83.9716 392.705 83.949 392.591 83.9051 392.485C83.8611 392.379 83.7967 392.283 83.7154 392.201C83.6342 392.12 83.5378 392.056 83.4317 392.012C83.3255 391.968 83.2118 391.945 83.0969 391.945H62.104C61.9891 391.945 61.8754 391.968 61.7693 392.012C61.6632 392.056 61.5667 392.12 61.4855 392.201C61.4043 392.283 61.3398 392.379 61.2959 392.485C61.2519 392.591 61.2293 392.705 61.2293 392.82V397.232H20.9929C15.4252 397.232 10.0856 399.443 6.14869 403.38C2.21175 407.317 5.30432e-06 412.657 0 418.224V427.717C1.5913e-05 433.285 2.21177 438.624 6.1487 442.561C10.0856 446.498 15.4253 448.71 20.9929 448.71H719.007C724.575 448.71 729.914 446.498 733.851 442.561C737.788 438.624 740 433.285 740 427.717V418.224C740 412.657 737.788 407.317 733.851 403.38C729.914 399.443 724.575 397.232 719.007 397.232Z" fill="#3F3D56"/>
<path d="M163.171 354.543C148.14 354.543 133.446 350.086 120.948 341.735C108.45 333.384 98.7088 321.514 92.9566 307.627C87.2043 293.74 85.6993 278.459 88.6317 263.716C91.5642 248.974 98.8025 235.432 109.431 224.803C120.06 214.174 133.602 206.936 148.345 204.003C163.087 201.071 178.368 202.576 192.255 208.328C206.143 214.08 218.012 223.822 226.363 236.32C234.714 248.818 239.171 263.512 239.171 278.543C239.149 298.692 231.134 318.01 216.886 332.258C202.639 346.506 183.321 354.52 163.171 354.543ZM163.171 204.543C148.536 204.543 134.228 208.883 122.059 217.014C109.89 225.145 100.405 236.703 94.8043 250.224C89.2034 263.746 87.738 278.625 90.5933 292.98C93.4486 307.334 100.496 320.52 110.846 330.869C121.195 341.218 134.38 348.266 148.735 351.121C163.089 353.976 177.968 352.511 191.49 346.91C205.012 341.309 216.569 331.824 224.7 319.655C232.831 307.486 237.171 293.179 237.171 278.543C237.149 258.924 229.346 240.114 215.473 226.242C201.6 212.369 182.791 204.565 163.171 204.543V204.543Z" fill="#3F3D56"/>
<path d="M841.171 32.543H586.171V34.543H841.171V32.543Z" fill="#3F3D56"/>
<path d="M1139.17 560.543H406.171V562.543H1139.17V560.543Z" fill="#3F3D56"/>
<path d="M447.671 652.543H192.672V654.543H447.671V652.543Z" fill="#3F3D56"/>
<path d="M499 550H471V578H499V550Z" fill="#FF0000"/>
<path d="M516 562H482V528H516V562ZM483.478 560.522H514.522V529.478H483.478V560.522Z" fill="#3F3D56"/>
<path d="M824 22H796V50H824V22Z" fill="#FF0F00"/>
<path d="M841 34H807V0H841V34ZM808.478 32.5217H839.522V1.47826H808.478V32.5217Z" fill="#3F3D56"/>
<path d="M1106 550H1078V578H1106V550Z" fill="#FF0000"/>
<path d="M1123 562H1089V528H1123V562ZM1090.48 560.522H1121.52V529.478H1090.48V560.522Z" fill="#3F3D56"/>
<path d="M1057.17 231.958H1054.79V166.797C1054.79 161.844 1053.82 156.94 1051.92 152.364C1050.03 147.789 1047.25 143.631 1043.75 140.129C1040.24 136.627 1036.09 133.849 1031.51 131.954C1026.94 130.058 1022.03 129.083 1017.08 129.083H879.025C874.073 129.083 869.169 130.058 864.593 131.954C860.017 133.849 855.86 136.627 852.358 140.129C848.856 143.631 846.078 147.789 844.182 152.364C842.287 156.94 841.312 161.844 841.312 166.797V524.278C841.312 529.231 842.287 534.135 844.182 538.711C846.078 543.286 848.856 547.444 852.358 550.946C855.86 554.448 860.017 557.226 864.593 559.121C869.169 561.017 874.073 561.992 879.025 561.992H1017.08C1022.03 561.992 1026.94 561.017 1031.51 559.121C1036.09 557.226 1040.24 554.448 1043.75 550.946C1047.25 547.444 1050.03 543.286 1051.92 538.711C1053.82 534.135 1054.79 529.231 1054.79 524.278V278.341H1057.17V231.958Z" fill="#3F3D56"/>
<path d="M1046.76 169.013V525.974C1046.76 533.443 1043.8 540.608 1038.52 545.891C1033.23 551.174 1026.07 554.142 1018.6 554.143H879.881C872.412 554.142 865.248 551.174 859.967 545.891C854.686 540.608 851.72 533.443 851.721 525.974V169.013C851.722 161.545 854.689 154.383 859.97 149.102C865.251 143.821 872.413 140.854 879.881 140.854H896.711C895.883 142.885 895.567 145.089 895.792 147.272C896.016 149.454 896.773 151.548 897.997 153.369C899.221 155.19 900.874 156.681 902.811 157.713C904.747 158.744 906.907 159.284 909.101 159.284H988.191C990.385 159.284 992.546 158.744 994.482 157.713C996.419 156.681 998.072 155.19 999.296 153.369C1000.52 151.548 1001.28 149.454 1001.5 147.272C1001.73 145.089 1001.41 142.885 1000.58 140.854H1018.6C1026.07 140.854 1033.23 143.821 1038.51 149.102C1043.79 154.383 1046.76 161.545 1046.76 169.013V169.013Z" fill="#007BFF"/>
<path d="M969.903 376.218H928.58V388.464H969.903V376.218Z" fill="white"/>
<path d="M1019.86 280.875H878.621V286.123H1019.86V280.875Z" fill="white"/>
<path d="M1019.86 297.494H878.621V302.742H1019.86V297.494Z" fill="white"/>
<path d="M1019.86 314.113H878.621V319.362H1019.86V314.113Z" fill="white"/>
<path d="M1019.86 330.733H878.621V335.982H1019.86V330.733Z" fill="white"/>
<path d="M1019.86 347.353H878.621V352.601H1019.86V347.353Z" fill="white"/>
<path d="M954.175 211.179H929.684V235.67H954.175V211.179Z" fill="#F2F2F2"/>
<path d="M939.059 217.304V247.044H968.799V217.304H939.059ZM967.509 245.754H940.349V218.594H967.509V245.754Z" fill="#3F3D56"/>
<path opacity="0.1" d="M1046.76 487.854V525.974C1046.76 533.443 1043.8 540.608 1038.52 545.891C1033.23 551.174 1026.07 554.142 1018.6 554.144H879.881C872.412 554.142 865.248 551.174 859.967 545.891C854.686 540.608 851.72 533.443 851.721 525.974V333.764L968.591 426.094L970.591 427.674L992.331 444.844L994.361 446.454L1046.76 487.854Z" fill="black"/>
<path d="M937.241 542.575C961.469 542.575 981.109 522.934 981.109 498.707C981.109 474.479 961.469 454.839 937.241 454.839C913.014 454.839 893.374 474.479 893.374 498.707C893.374 522.934 913.014 542.575 937.241 542.575Z" fill="#FF7223"/>
<path d="M320.171 654.543C302.964 654.543 286.144 649.441 271.837 639.881C257.53 630.321 246.379 616.734 239.794 600.836C233.209 584.939 231.486 567.446 234.843 550.57C238.2 533.694 246.486 518.192 258.653 506.025C270.82 493.858 286.322 485.572 303.199 482.215C320.075 478.858 337.568 480.581 353.465 487.165C369.362 493.75 382.95 504.901 392.509 519.208C402.069 533.515 407.171 550.336 407.171 567.543C407.145 590.609 397.971 612.722 381.661 629.033C365.351 645.343 343.237 654.517 320.171 654.543ZM320.171 482.543C303.36 482.543 286.926 487.528 272.948 496.868C258.97 506.208 248.075 519.483 241.642 535.015C235.208 550.547 233.525 567.637 236.805 584.126C240.084 600.614 248.18 615.76 260.067 627.647C271.955 639.535 287.1 647.63 303.589 650.91C320.077 654.19 337.168 652.506 352.7 646.073C368.231 639.639 381.506 628.745 390.846 614.767C400.186 600.788 405.171 584.354 405.171 567.543C405.146 545.007 396.182 523.402 380.247 507.467C364.312 491.532 342.707 482.568 320.171 482.543V482.543Z" fill="#3F3D56"/>
<path d="M950.171 532.543C939.293 532.543 928.66 529.317 919.615 523.274C910.57 517.23 903.521 508.641 899.358 498.591C895.195 488.541 894.106 477.482 896.228 466.813C898.35 456.144 903.589 446.344 911.281 438.652C918.972 430.96 928.772 425.722 939.441 423.6C950.11 421.478 961.169 422.567 971.219 426.73C981.269 430.892 989.859 437.942 995.902 446.987C1001.95 456.031 1005.17 466.665 1005.17 477.543C1005.15 492.125 999.355 506.105 989.044 516.416C978.733 526.727 964.753 532.527 950.171 532.543V532.543ZM950.171 424.543C939.689 424.543 929.442 427.651 920.726 433.475C912.01 439.299 905.217 447.576 901.206 457.261C897.194 466.945 896.145 477.602 898.19 487.883C900.235 498.164 905.283 507.607 912.695 515.02C920.107 522.432 929.551 527.48 939.832 529.525C950.113 531.57 960.769 530.52 970.454 526.509C980.138 522.497 988.416 515.704 994.239 506.988C1000.06 498.272 1003.17 488.025 1003.17 477.543C1003.16 463.491 997.567 450.02 987.631 440.084C977.695 430.148 964.223 424.559 950.171 424.543Z" fill="#3F3D56"/>
</g>
<defs>
<clipPath id="clip0_709_862">
<rect width="1139.17" height="654.543" fill="white"/>
</clipPath>
</defs>
</svg>
