<svg width="553" height="368" viewBox="0 0 553 368" fill="none" xmlns="http://www.w3.org/2000/svg">
<g clip-path="url(#clip0_709_904)">
<path d="M213.78 33.2394H146.695C144.394 33.2394 142.521 31.367 142.521 29.0655C142.521 26.7641 144.394 24.8916 146.695 24.8916H213.78C216.081 24.8916 217.954 26.7641 217.954 29.0655C217.954 31.367 216.081 33.2394 213.78 33.2394Z" fill="#E6E7E8"/>
<path d="M266.133 47.3664H146.695C144.394 47.3664 142.521 45.4939 142.521 43.1925C142.521 40.891 144.394 39.0186 146.695 39.0186H266.133C268.435 39.0186 270.307 40.891 270.307 43.1925C270.307 45.4939 268.435 47.3664 266.133 47.3664Z" fill="#E6E7E8"/>
<path d="M266.133 61.3664H146.695C144.394 61.3664 142.521 59.4939 142.521 57.1925C142.521 54.891 144.394 53.0186 146.695 53.0186H266.133C268.435 53.0186 270.307 54.891 270.307 57.1925C270.307 59.4939 268.435 61.3664 266.133 61.3664Z" fill="#E6E7E8"/>
<path d="M278.785 134.019V132.019C255.699 132.019 235.54 113.161 230.18 86.8928L238.878 89.1305C234.671 85.1447 230.421 78.472 227.785 73.0186C226.228 78.873 223.319 86.2302 219.943 90.941L228.173 87.0425C233.646 114.371 254.672 134.019 278.785 134.019V134.019Z" fill="#3F3D56"/>
<path d="M270.053 57.4795C270.053 59.6851 268.258 61.4795 266.053 61.4795H214.052C211.847 61.4795 210.052 59.6851 210.052 57.4795C210.052 55.2739 211.847 53.4795 214.052 53.4795H266.053C268.258 53.4795 270.053 55.2739 270.053 57.4795Z" fill="#007BFF"/>
<path d="M35.9039 280.298C35.1123 277.541 33.7568 275.19 32.1429 273.513L26.2792 246.783L13.498 249.914L20.8223 276.692C20.3406 278.958 20.437 281.662 21.2286 284.419C23.037 290.716 27.7882 294.898 31.8407 293.76C35.8932 292.622 37.7123 286.595 35.9039 280.298H35.9039V280.298Z" fill="#E4974F"/>
<path d="M34.1357 104.957C34.1357 104.957 20.3307 104.48 12.3307 113.48C3.16516 124.676 -3.09991 168.547 1.6033 171.501L14.346 261.987L32.5168 259.49L27.8533 150.921L34.1357 104.956V104.957V104.957Z" fill="#007BFF"/>
<path d="M127.331 257.479L124.023 367.917H76.5234L74.6034 325.347L66.1634 367.917H15.2534L21.6034 294.737L28.1634 279.347L32.6034 268.917L127.331 257.479Z" fill="#2F2E41"/>
<path d="M89.6034 86.917L56.6034 84.917L45.6034 98.917C36.1031 100.951 27.5222 103.577 21.6034 107.917C23.0195 149.843 19.9087 204.359 32.6034 214.917L21.3308 294.48C21.3308 294.48 25.8768 290.585 33.4705 291.96C36.0939 292.435 39.2608 298.345 42.4845 298.703C67.2542 301.455 107.422 298.625 127.331 257.48L119.603 197.917L121.603 110.917C115.351 105.975 107.578 102.763 98.6034 100.917L89.6034 86.917V86.917H89.6034Z" fill="#007BFF"/>
<path d="M153.134 62.5783C153.492 66.0452 153.037 69.3056 151.99 71.9197L157.487 104.732L141.797 106.891L137.91 73.3737C136.351 71.0288 135.24 67.9302 134.882 64.4632C134.064 56.543 137.487 49.7004 142.527 49.1799C147.567 48.6594 152.316 54.658 153.134 62.5782V62.5783H153.134H153.134Z" fill="#E4974F"/>
<path d="M100.971 113.424C99.3279 115.848 99.7855 118.572 99.3933 121.846C97.7282 135.742 124.358 176.805 142.784 181.533C145.201 182.154 146.579 184.762 149.019 185.287H149.019C156.249 186.84 162.98 181.102 162.59 173.718L157.585 79.0098L136.558 86.1818L137.903 135.352C137.769 125.166 128.416 114.794 121.331 110.48C121.331 110.48 106.98 104.558 100.971 113.424L100.971 113.424Z" fill="#007BFF"/>
<path d="M76.5279 82.3298C92.5816 82.3298 105.596 69.3157 105.596 53.2621C105.596 37.2084 92.5816 24.1943 76.5279 24.1943C60.4743 24.1943 47.4602 37.2084 47.4602 53.2621C47.4602 69.3157 60.4743 82.3298 76.5279 82.3298Z" fill="#E4974F"/>
<path d="M103.603 31.9172C103.353 31.9773 107.43 28.004 107.603 27.9172C111.603 25.9172 107.493 45.4672 104.603 44.9172C97.4933 43.5672 94.4234 40.8872 91.6634 47.5772C90.8934 49.4372 90.4134 51.5372 88.9134 52.8672C86.8534 54.6772 83.4334 54.5272 81.7534 56.6872C80.4034 58.4272 80.7934 60.9872 81.7934 62.9472C82.7934 64.9172 84.3134 66.5872 85.2234 68.5972C86.2434 70.8572 81.8934 78.0472 80.2334 82.0872V82.0972L80.2235 82.1209C79.7824 83.1805 78.7343 80.1279 77.6276 79.8232C76.3034 79.4586 74.3525 82.5854 72.2434 82.0172C72.2334 82.0172 72.2234 82.0072 72.2134 82.0072C70.2033 81.4472 67.9634 80.8472 65.7434 80.2472H65.7334C59.4834 78.5472 57.9034 80.9872 57.6034 80.9172L53.7234 76.8572C52.3918 75.8877 52.5423 72.7578 51.6034 71.9172C50.8355 71.2297 48.9212 72.8183 48.357 72.1575C45.5906 68.9175 44.9541 65.6763 43.3233 59.2772C41.8334 53.4272 38.7434 35.9172 45.0934 35.1272C51.0834 34.3772 46.7034 26.0372 52.7334 26.3472C52.3734 24.8272 53.0434 23.1972 54.1334 22.0772C55.2134 20.9472 56.6534 20.2472 58.1034 19.6472C65.2534 16.7272 64.0634 14.2173 71.6034 15.9172C72.3534 14.8672 81.9707 12.1299 83.3308 12.4799C83.4308 12.4999 81.2334 16.7672 86.6034 15.9172C86.4034 17.1472 89.3308 14.4799 89.6034 18.9172C95.3308 15.4799 98.4134 23.7072 98.6034 24.9172C98.8534 26.4272 96.5733 25.6572 98.0934 25.8872C98.9934 26.0272 100.533 27.8572 100.383 28.7672C101.033 27.8872 101.683 27.0172 102.343 26.1372C102.463 26.1472 102.573 26.1672 102.693 26.1872C105.733 26.7672 102.248 36.7051 102.373 33.6072C102.603 27.9172 106.633 31.2472 103.603 31.9172H103.603V31.9172Z" fill="#2F2E41"/>
<path d="M474.37 25.9581C473.296 34.7854 472.122 43.6006 470.85 52.4015C470.333 55.976 469.786 59.596 468.348 62.909C467.367 65.1704 465.992 67.2356 464.624 69.2869C463.009 71.711 461.366 74.1659 459.172 76.0821C456.977 77.9982 454.127 79.3437 451.222 79.1185C458.929 73.931 464.108 65.1569 464.926 55.9033C465.311 51.5535 464.783 47.1811 464.682 42.8156C464.581 38.45 464.946 33.9325 466.96 30.058C468.974 26.1836 472.953 23.0822 477.318 23.1923L474.37 25.9581H474.37V25.9581Z" fill="#2F2E41"/>
<path d="M396.268 214.231C389.997 219.316 382.291 220.204 379.054 216.214C375.818 212.224 378.277 204.866 384.548 199.78C387.293 197.554 390.313 196.132 393.113 195.572L419.953 174.355L429.641 187.163L402.153 206.719C401.027 209.343 399.013 212.004 396.268 214.23H396.268L396.268 214.231L396.268 214.231Z" fill="#A0616A"/>
<path d="M401.338 185.428L441.331 147.48L445.331 144.48C445.331 144.48 468.288 122.114 474.233 121.601C476.751 121.385 479.269 122.013 481.39 123.391C484.817 125.613 486.592 129.27 486.592 132.957C486.592 136.038 485.351 139.133 482.811 141.412L446.197 174.282L430.621 188.263L411.25 205.658L409.281 201.646L402.622 188.054L401.338 185.428V185.428L401.338 185.428H401.338Z" fill="#007BFF"/>
<path d="M486.853 159.746L446.81 172.011C453.514 173.899 456.321 214.75 450.082 216.019C450.082 216.019 516.446 220.739 512.825 216.019C508.411 210.265 514.331 172.027 517.154 172.011L486.853 159.746V159.746Z" fill="#A0616A"/>
<path d="M540.136 367.92L536.636 325.68C536.636 310.57 535.656 296.92 534.086 284.75C527.796 235.9 512.026 210.86 512.026 210.86H453.026C452.946 210.95 452.866 211.02 452.786 211.11L452.776 211.12C438.856 225.75 431.616 262.54 428.396 284.75C426.866 295.32 426.246 302.59 426.246 302.59L420.476 353.87L424.646 367.92H458.976L458.436 364.91L480.526 284.75L480.796 283.77L481.036 284.75L501.516 367.92H540.136V367.92V367.92Z" fill="#2F2E41"/>
<path d="M454.235 135.379L466.703 110.212L477.208 91.9279L485.703 83.2705H508.952L511.116 91.9279L524.102 99.1424L528.695 135.215L512.331 213.48C492.851 197.608 452.703 193.212 452.703 193.212L446.197 174.281L441.898 151.476L441.378 148.749L454.235 135.379V135.379V135.379Z" fill="#007BFF"/>
<path d="M452.74 180.905C444.669 180.676 438.245 176.327 438.391 171.192C438.537 166.056 445.197 162.078 453.267 162.307C456.8 162.407 460.017 163.297 462.506 164.697L496.691 166.096L495.692 182.124L462.099 179.043C459.535 180.3 456.272 181.006 452.74 180.905V180.905L452.74 180.905V180.905Z" fill="#A0616A"/>
<path d="M496.457 126.198L528.703 158.212L472.535 163.964L459.482 182.324L537.77 184.92C544.834 187.436 552.358 182.554 552.939 175.079V175.079C553.135 172.554 537.052 108.506 527.315 102.56C515.903 95.5914 496.457 126.198 496.457 126.198L502.826 115.595L496.457 126.198V126.198Z" fill="#007BFF"/>
<path d="M518.856 51.8575C519.091 37.3161 507.492 25.3379 492.951 25.1034C478.41 24.8689 466.431 36.467 466.197 51.0084C465.963 65.5498 477.561 77.528 492.102 77.7624C506.643 77.9969 518.622 66.3989 518.856 51.8575Z" fill="#A0616A"/>
<path d="M550.331 133.48C549.671 135.98 544.531 137.27 543.331 140.48C539.511 142.66 541.581 124.85 540.041 123.68C538.851 122.79 538.531 124.94 538.261 123.09C537.241 116.15 530.571 117.7 525.631 116.58C525.071 115.49 524.641 114.43 524.361 113.4C523.861 111.54 521.581 110.89 520.231 112.26C519.621 111.72 519.181 109.81 518.751 107.9C518.441 106.51 518.131 105.12 517.771 104.24L514.331 96.4799L515.441 102.26C513.191 101.45 510.921 102.29 509.611 99.5098C507.931 95.9398 507.261 91.7598 508.481 88.0098C509.591 84.6099 511.461 77.7999 513.571 72.1599C511.181 73.8898 508.311 75.1499 504.981 75.7799C506.161 73.5399 507.361 71.2598 507.861 68.7699C508.351 66.2799 508.051 63.5098 506.471 61.5299C505.171 59.8999 503.251 60.3098 501.631 58.9998C500.371 57.9799 499.281 55.3699 498.521 53.9398C501.761 64.7099 504.211 76.1499 500.091 86.4299C497.241 93.5499 491.241 99.3399 484.041 101.97C487.871 99.2299 491.611 96.3098 494.481 92.5899C497.551 88.5999 499.551 83.5598 498.941 78.5598C497.981 70.7099 483.421 45.8798 481.631 40.9998C482.611 45.7699 482.231 49.4899 479.651 51.5399C478.981 44.6199 471.441 45.2498 467.331 42.4799C467.331 42.4799 464.151 24.5098 471.611 24.3999C475.211 24.3499 478.981 15.8898 482.251 14.3798C487.471 11.9699 490.671 13.6099 496.461 13.7899C502.241 13.9598 507.791 16.4498 511.321 21.0198C513.171 23.4099 513.851 21.5098 516.631 22.9998C519.271 24.4099 521.051 23.0999 524.041 23.1898C530.031 23.3499 535.841 26.5499 539.201 31.4998C542.561 36.4598 544.631 35.9998 543.301 43.6699C543.281 43.7598 543.281 43.9398 543.301 44.2098C544.031 56.2899 542.161 68.3998 537.371 79.5198C535.891 82.9398 543.13 86.4697 543.12 90.7397C543.11 95.6997 535.121 100.22 535.861 102.34C537.981 112.55 549.891 110.28 547.081 127.37C546.851 128.76 550.771 131.81 550.331 133.48V133.48Z" fill="#2F2E41"/>
<path d="M477.378 102.211C477.598 102.141 477.818 102.061 478.038 101.971C477.758 102.171 477.488 102.361 477.208 102.561L477.378 102.211H477.378Z" fill="#2F2E41"/>
<path d="M514.47 17.9605C511.606 18.3862 508.696 13.6336 510.322 7.04297C513.867 12.4625 515.678 18.5636 515.963 25.2651L514.053 25.8569L514.47 17.9605V17.9605Z" fill="#FF0000"/>
<path d="M529.106 11.8086C527.151 18.7352 517.224 23.3709 515.47 20.9604L515.27 25.091L514.042 23.5122C517.603 18.2177 522.456 14.1563 529.106 11.8086H529.106V11.8086Z" fill="#FF0000"/>
<path d="M311.121 198.594C311.121 196.292 312.993 194.42 315.295 194.42H382.38C384.681 194.42 386.554 196.292 386.554 198.594C386.554 200.895 384.681 202.768 382.38 202.768H315.295C312.993 202.768 311.121 200.895 311.121 198.594Z" fill="#E6E7E8"/>
<path d="M311.121 226.594C311.121 224.292 312.993 222.42 315.295 222.42H382.38C384.681 222.42 386.554 224.292 386.554 226.594C386.554 228.895 384.681 230.768 382.38 230.768H315.295C312.993 230.768 311.121 228.895 311.121 226.594Z" fill="#E6E7E8"/>
<path d="M262.941 216.895C260.64 216.895 258.768 215.022 258.768 212.721C258.768 210.419 260.64 208.547 262.941 208.547H382.38C384.681 208.547 386.554 210.419 386.554 212.721C386.554 215.022 384.681 216.895 382.38 216.895H262.941Z" fill="#E6E7E8"/>
<path d="M254.062 176.947L245.832 173.048C249.208 177.759 252.116 185.116 253.673 190.971C256.31 185.517 260.56 178.845 264.767 174.859L256.069 177.096C261.429 150.828 281.588 131.971 304.673 131.971V129.971C280.56 129.971 259.534 149.618 254.062 176.947Z" fill="#3F3D56"/>
<path d="M291.941 216.971H239.941C237.736 216.971 235.941 215.176 235.941 212.971C235.941 210.765 237.736 208.971 239.941 208.971H291.941C294.147 208.971 295.941 210.765 295.941 212.971C295.941 215.176 294.147 216.971 291.941 216.971Z" fill="#007BFF"/>
<path d="M307.129 135.165C308.514 126.63 302.717 118.587 294.181 117.202C285.646 115.817 277.603 121.614 276.218 130.149C274.833 138.685 280.63 146.727 289.165 148.113C297.701 149.498 305.743 143.701 307.129 135.165Z" fill="#FF0000"/>
<path d="M206.673 19.3147C212.007 19.3147 216.331 14.991 216.331 9.65737C216.331 4.32375 212.007 0 206.673 0C201.34 0 197.016 4.32375 197.016 9.65737C197.016 14.991 201.34 19.3147 206.673 19.3147Z" fill="#FF7223"/>
<path d="M319.673 186.315C325.007 186.315 329.331 181.991 329.331 176.657C329.331 171.324 325.007 167 319.673 167C314.34 167 310.016 171.324 310.016 176.657C310.016 181.991 314.34 186.315 319.673 186.315Z" fill="#FF7223"/>
</g>
<defs>
<clipPath id="clip0_709_904">
<rect width="552.941" height="367.921" fill="white"/>
</clipPath>
</defs>
</svg>
