<svg width="1028" height="530" viewBox="0 0 1028 530" fill="none" xmlns="http://www.w3.org/2000/svg">
<g clip-path="url(#clip0_709_1002)">
<path d="M649.712 295.386H305.992V529.556H649.712V295.386Z" fill="#007BFF"/>
<path d="M668.882 267.995H330.642C329.552 267.997 328.508 268.43 327.738 269.201C326.967 269.971 326.534 271.016 326.532 272.105V500.795C326.532 501.335 326.638 501.869 326.845 502.368C327.051 502.867 327.354 503.32 327.736 503.701C328.117 504.083 328.57 504.386 329.069 504.592C329.568 504.799 330.102 504.905 330.642 504.905H668.882C669.422 504.905 669.956 504.799 670.455 504.592C670.954 504.386 671.407 504.083 671.788 503.701C672.17 503.32 672.473 502.867 672.679 502.368C672.886 501.869 672.992 501.335 672.992 500.795V272.105C672.99 271.016 672.557 269.971 671.786 269.201C671.016 268.43 669.972 267.997 668.882 267.995V267.995ZM670.252 500.795C670.253 500.975 670.218 501.154 670.149 501.32C670.08 501.487 669.979 501.638 669.852 501.765C669.725 501.892 669.573 501.993 669.407 502.062C669.241 502.131 669.062 502.166 668.882 502.165H330.642C330.462 502.166 330.284 502.131 330.117 502.062C329.951 501.993 329.799 501.892 329.672 501.765C329.545 501.638 329.444 501.487 329.375 501.32C329.307 501.154 329.271 500.975 329.272 500.795V272.105C329.273 271.742 329.417 271.394 329.674 271.137C329.931 270.88 330.279 270.736 330.642 270.735H668.882C669.245 270.736 669.593 270.88 669.85 271.137C670.107 271.394 670.251 271.742 670.252 272.105V500.795Z" fill="#3F3D56"/>
<path d="M346.335 430.587H497.078C497.63 430.587 498.078 431.035 498.078 431.587V445.389C498.078 445.941 497.63 446.389 497.078 446.389H346.335C345.783 446.389 345.335 445.941 345.335 445.389V431.587C345.335 431.035 345.783 430.587 346.335 430.587Z" fill="#FF0000" stroke="white" stroke-width="2"/>
<path d="M640.122 414.525H590.832C590.292 414.525 589.758 414.632 589.259 414.838C588.76 415.045 588.307 415.347 587.926 415.729C587.544 416.111 587.241 416.564 587.035 417.063C586.828 417.561 586.722 418.096 586.722 418.635V456.975C586.722 457.515 586.828 458.05 587.035 458.548C587.241 459.047 587.544 459.5 587.926 459.882C588.307 460.263 588.76 460.566 589.259 460.773C589.758 460.979 590.292 461.085 590.832 461.085H640.122C640.662 461.085 641.196 460.979 641.695 460.773C642.193 460.566 642.647 460.263 643.028 459.882C643.41 459.5 643.713 459.047 643.919 458.548C644.126 458.05 644.232 457.515 644.232 456.975V418.635C644.232 418.096 644.126 417.561 643.919 417.063C643.713 416.564 643.41 416.111 643.028 415.729C642.647 415.347 642.193 415.045 641.695 414.838C641.196 414.632 640.662 414.525 640.122 414.525V414.525ZM641.492 456.975C641.491 457.339 641.347 457.687 641.09 457.944C640.833 458.2 640.485 458.345 640.122 458.345H590.832C590.469 458.345 590.121 458.2 589.864 457.944C589.607 457.687 589.462 457.339 589.462 456.975V418.635C589.461 418.455 589.496 418.277 589.565 418.11C589.634 417.944 589.735 417.793 589.862 417.665C589.989 417.538 590.141 417.437 590.307 417.369C590.473 417.3 590.652 417.265 590.832 417.265H640.122C640.302 417.265 640.48 417.3 640.647 417.369C640.813 417.437 640.965 417.538 641.092 417.665C641.219 417.793 641.32 417.944 641.389 418.11C641.458 418.277 641.493 418.455 641.492 418.635V456.975Z" fill="#3F3D56"/>
<path d="M630.279 423.372H600.676C599.571 423.372 598.676 424.268 598.676 425.372V428.324C598.676 429.429 599.571 430.324 600.676 430.324H630.279C631.383 430.324 632.279 429.429 632.279 428.324V425.372C632.279 424.268 631.383 423.372 630.279 423.372Z" fill="white"/>
<path d="M630.279 434.327H600.676C599.571 434.327 598.676 435.223 598.676 436.327V439.28C598.676 440.384 599.571 441.28 600.676 441.28H630.279C631.383 441.28 632.279 440.384 632.279 439.28V436.327C632.279 435.223 631.383 434.327 630.279 434.327Z" fill="white"/>
<path d="M630.279 445.283H600.676C599.571 445.283 598.676 446.179 598.676 447.283V450.236C598.676 451.34 599.571 452.236 600.676 452.236H630.279C631.383 452.236 632.279 451.34 632.279 450.236V447.283C632.279 446.179 631.383 445.283 630.279 445.283Z" fill="white"/>
<path d="M417.653 284.431H350.444C349.339 284.431 348.444 285.326 348.444 286.431V312.558C348.444 313.662 349.339 314.558 350.444 314.558H417.653C418.757 314.558 419.653 313.662 419.653 312.558V286.431C419.653 285.326 418.757 284.431 417.653 284.431Z" fill="#FF7223"/>
<path d="M389.526 299.494C389.526 304.788 387.073 309.08 384.048 309.08C381.023 309.08 378.57 304.788 378.57 299.494C378.57 294.2 384.048 289.908 384.048 289.908C384.048 289.908 389.526 294.2 389.526 299.494Z" fill="#007BFF"/>
<path d="M901.992 161.837H899.992V385.451H672.992V387.451H901.992V161.837Z" fill="#3F3D56"/>
<path d="M305.992 387.451H76.992V161.837H78.992V385.451H305.992V387.451Z" fill="#3F3D56"/>
<path d="M1027.35 37.8096H1026.07V35.5667H1027.03C1027.2 35.5667 1027.36 35.4991 1027.48 35.379C1027.6 35.2588 1027.67 35.0958 1027.67 34.9258V23.3907C1027.67 23.2207 1027.6 23.0577 1027.48 22.9376C1027.36 22.8174 1027.2 22.7499 1027.03 22.7499H1026.07V16.1989C1026.07 14.3661 1025.71 12.5514 1025.01 10.8581C1024.31 9.16492 1023.28 7.62642 1021.98 6.33049C1020.69 5.03456 1019.15 4.00658 1017.45 3.30524C1015.76 2.60389 1013.95 2.24293 1012.11 2.24295H1010.69V0.640839C1010.69 0.470878 1010.62 0.307879 1010.5 0.187698C1010.38 0.0675181 1010.22 2.65209e-06 1010.05 0H998.513C998.343 2.65209e-06 998.18 0.0675181 998.06 0.187698C997.94 0.307879 997.873 0.470878 997.873 0.640839V2.24295H789.457C787.624 2.24293 785.809 2.60389 784.116 3.30524C782.423 4.00658 780.884 5.03456 779.589 6.33049C778.293 7.62642 777.265 9.16492 776.563 10.8581C775.862 12.5514 775.501 14.3661 775.501 16.1989V313.193C775.501 315.026 775.862 316.841 776.563 318.534C777.265 320.227 778.293 321.766 779.589 323.061C780.884 324.357 782.423 325.385 784.116 326.087C785.809 326.788 787.624 327.149 789.457 327.149H1012.11C1013.95 327.149 1015.76 326.788 1017.45 326.087C1019.15 325.385 1020.69 324.357 1021.98 323.061C1023.28 321.766 1024.31 320.227 1025.01 318.534C1025.71 316.841 1026.07 315.026 1026.07 313.193V50.6264H1027.35C1027.52 50.6264 1027.68 50.5589 1027.8 50.4387C1027.92 50.3185 1027.99 50.1555 1027.99 49.9856V38.4505C1027.99 38.3663 1027.98 38.283 1027.94 38.2052C1027.91 38.1274 1027.86 38.0568 1027.8 37.9973C1027.74 37.9378 1027.67 37.8906 1027.6 37.8584C1027.52 37.8262 1027.44 37.8096 1027.35 37.8096V37.8096Z" fill="#3F3D56"/>
<path d="M1014.55 11.3721H788.94C787.888 11.3721 787.035 12.2249 787.035 13.2769V313.873C787.035 314.925 787.888 315.778 788.94 315.778H1014.55C1015.61 315.778 1016.46 314.925 1016.46 313.873V13.2769C1016.46 12.2249 1015.61 11.3721 1014.55 11.3721Z" fill="#F2F2F2"/>
<path d="M912.758 160.559H877.401C876.296 160.559 875.401 161.454 875.401 162.559V170.222C875.401 171.326 876.296 172.222 877.401 172.222H912.758C913.862 172.222 914.758 171.326 914.758 170.222V162.559C914.758 161.454 913.862 160.559 912.758 160.559Z" fill="#3F3D56"/>
<path d="M960.338 69.7539H829.821C828.716 69.7539 827.821 70.6493 827.821 71.7539V72.7523C827.821 73.8569 828.716 74.7523 829.821 74.7523H960.338C961.442 74.7523 962.338 73.8569 962.338 72.7523V71.7539C962.338 70.6493 961.442 69.7539 960.338 69.7539Z" fill="#3F3D56"/>
<path d="M960.338 85.582H829.821C828.716 85.582 827.821 86.4775 827.821 87.582V88.5804C827.821 89.685 828.716 90.5804 829.821 90.5804H960.338C961.442 90.5804 962.338 89.685 962.338 88.5804V87.582C962.338 86.4775 961.442 85.582 960.338 85.582Z" fill="#3F3D56"/>
<path d="M960.338 101.41H829.821C828.716 101.41 827.821 102.306 827.821 103.41V104.409C827.821 105.513 828.716 106.409 829.821 106.409H960.338C961.442 106.409 962.338 105.513 962.338 104.409V103.41C962.338 102.306 961.442 101.41 960.338 101.41Z" fill="#3F3D56"/>
<path d="M960.338 117.238H829.821C828.716 117.238 827.821 118.134 827.821 119.238V120.237C827.821 121.341 828.716 122.237 829.821 122.237H960.338C961.442 122.237 962.338 121.341 962.338 120.237V119.238C962.338 118.134 961.442 117.238 960.338 117.238Z" fill="#3F3D56"/>
<path d="M960.338 133.067H829.821C828.716 133.067 827.821 133.963 827.821 135.067V136.066C827.821 137.17 828.716 138.066 829.821 138.066H960.338C961.442 138.066 962.338 137.17 962.338 136.066V135.067C962.338 133.963 961.442 133.067 960.338 133.067Z" fill="#3F3D56"/>
<path d="M890.317 303.758C913.392 303.758 932.097 285.052 932.097 261.978C932.097 238.904 913.392 220.198 890.317 220.198C867.243 220.198 848.538 238.904 848.538 261.978C848.538 285.052 867.243 303.758 890.317 303.758Z" fill="#007BFF"/>
<path d="M906 269C917.598 269 927 259.822 927 248.5C927 237.178 917.598 228 906 228C894.402 228 885 237.178 885 248.5C885 259.822 894.402 269 906 269Z" fill="#FF0000"/>
<path d="M902.632 294.204C892.272 294.204 882.144 291.132 873.53 285.376C864.916 279.621 858.202 271.44 854.237 261.868C850.272 252.297 849.235 241.764 851.256 231.603C853.277 221.442 858.266 212.109 865.592 204.783C872.918 197.457 882.251 192.468 892.413 190.447C902.574 188.426 913.106 189.463 922.677 193.428C932.249 197.392 940.43 204.106 946.186 212.721C951.942 221.335 955.014 231.462 955.014 241.822C954.998 255.71 949.474 269.025 939.654 278.845C929.834 288.665 916.52 294.189 902.632 294.204V294.204ZM902.632 191.345C892.648 191.345 882.889 194.306 874.588 199.852C866.287 205.399 859.817 213.282 855.997 222.506C852.176 231.729 851.177 241.878 853.125 251.67C855.072 261.462 859.88 270.456 866.939 277.515C873.998 284.574 882.993 289.382 892.784 291.33C902.576 293.277 912.725 292.278 921.949 288.457C931.172 284.637 939.055 278.167 944.602 269.866C950.148 261.565 953.109 251.806 953.109 241.822C953.094 228.44 947.771 215.609 938.308 206.146C928.845 196.683 916.015 191.36 902.632 191.345V191.345Z" fill="#3F3D56"/>
<path d="M155.492 87.9117H153.779V40.9733C153.779 37.4057 153.076 33.8731 151.711 30.5771C150.345 27.281 148.344 24.2862 145.822 21.7635C143.299 19.2409 140.304 17.2398 137.008 15.8746C133.712 14.5093 130.179 13.8066 126.612 13.8066H27.1667C23.5991 13.8066 20.0665 14.5093 16.7705 15.8746C13.4744 17.2398 10.4796 19.2409 7.95694 21.7635C5.43428 24.2862 3.43319 27.2811 2.06794 30.5771C0.702686 33.8731 -3.93966e-06 37.4057 0 40.9733V298.481C-3.93967e-06 302.048 0.702684 305.581 2.06794 308.877C3.4332 312.173 5.43428 315.168 7.95695 317.691C10.4796 320.213 13.4745 322.214 16.7705 323.58C20.0665 324.945 23.5991 325.647 27.1667 325.647H126.612C130.18 325.647 133.712 324.945 137.008 323.58C140.304 322.214 143.299 320.213 145.822 317.691C148.344 315.168 150.345 312.173 151.711 308.877C153.076 305.581 153.779 302.048 153.779 298.481V121.323H155.492V87.9117Z" fill="#3F3D56"/>
<path d="M147.993 42.5699V299.702C147.994 305.083 145.858 310.243 142.054 314.049C138.249 317.854 133.089 319.993 127.709 319.994H27.7833C22.4025 319.993 17.2425 317.854 13.4383 314.049C9.63422 310.243 7.49761 305.083 7.49854 299.702V42.5699C7.49911 37.1902 9.63643 32.031 13.4404 28.227C17.2444 24.423 22.4036 22.2857 27.7833 22.2852H39.9065C39.3099 23.7486 39.0824 25.3363 39.2439 26.9084C39.4054 28.4805 39.9511 29.9888 40.8328 31.3004C41.7145 32.6119 42.9053 33.6866 44.3001 34.4295C45.695 35.1725 47.2512 35.5611 48.8315 35.561H105.803C107.384 35.5611 108.94 35.1726 110.335 34.4296C111.729 33.6866 112.92 32.612 113.802 31.3004C114.684 29.9889 115.229 28.4806 115.391 26.9084C115.552 25.3363 115.325 23.7486 114.728 22.2852H127.709C133.088 22.2857 138.247 24.4231 142.051 28.2271C145.855 32.031 147.993 37.1902 147.993 42.5699Z" fill="#F2F2F2"/>
<path d="M89.1302 173.773H66.3618C65.2572 173.773 64.3618 174.669 64.3618 175.773V179.706C64.3618 180.811 65.2572 181.706 66.3618 181.706H89.1302C90.2348 181.706 91.1302 180.811 91.1302 179.706V175.773C91.1302 174.669 90.2348 173.773 89.1302 173.773Z" fill="#3F3D56"/>
<path d="M121.792 112.013H33.6998C32.761 112.013 32 112.774 32 113.713C32 114.651 32.761 115.412 33.6998 115.412H121.792C122.731 115.412 123.492 114.651 123.492 113.713C123.492 112.774 122.731 112.013 121.792 112.013Z" fill="#3F3D56"/>
<path d="M121.792 122.778H33.6998C32.761 122.778 32 123.539 32 124.478C32 125.417 32.761 126.178 33.6998 126.178H121.792C122.731 126.178 123.492 125.417 123.492 124.478C123.492 123.539 122.731 122.778 121.792 122.778Z" fill="#3F3D56"/>
<path d="M121.792 133.544H33.6998C32.761 133.544 32 134.305 32 135.244C32 136.183 32.761 136.944 33.6998 136.944H121.792C122.731 136.944 123.492 136.183 123.492 135.244C123.492 134.305 122.731 133.544 121.792 133.544Z" fill="#3F3D56"/>
<path d="M121.792 144.31H33.6998C32.761 144.31 32 145.071 32 146.009C32 146.948 32.761 147.709 33.6998 147.709H121.792C122.731 147.709 123.492 146.948 123.492 146.009C123.492 145.071 122.731 144.31 121.792 144.31Z" fill="#3F3D56"/>
<path d="M121.792 155.075H33.6998C32.761 155.075 32 155.836 32 156.775C32 157.714 32.761 158.475 33.6998 158.475H121.792C122.731 158.475 123.492 157.714 123.492 156.775C123.492 155.836 122.731 155.075 121.792 155.075Z" fill="#3F3D56"/>
<path d="M69.875 285.168C85.7879 285.168 98.6878 272.268 98.6878 256.355C98.6878 240.442 85.7879 227.542 69.875 227.542C53.962 227.542 41.0621 240.442 41.0621 256.355C41.0621 272.268 53.962 285.168 69.875 285.168Z" fill="#007BFF"/>
<path d="M78 269C89.598 269 99 259.822 99 248.5C99 237.178 89.598 228 78 228C66.402 228 57 237.178 57 248.5C57 259.822 66.402 269 78 269Z" fill="#FF0000"/>
<path d="M78.3675 278.579C71.2227 278.579 64.2384 276.461 58.2977 272.491C52.357 268.522 47.7268 262.88 44.9926 256.279C42.2585 249.678 41.5431 242.415 42.9369 235.407C44.3308 228.4 47.7713 221.963 52.8235 216.911C57.8756 211.859 64.3124 208.418 71.3199 207.024C78.3273 205.63 85.5908 206.346 92.1917 209.08C98.7926 211.814 104.435 216.444 108.404 222.385C112.373 228.326 114.492 235.31 114.492 242.455C114.481 252.032 110.672 261.214 103.899 267.987C97.1271 274.759 87.945 278.569 78.3675 278.579V278.579ZM78.3675 207.644C71.4825 207.644 64.7522 209.685 59.0275 213.51C53.3029 217.336 48.8411 222.772 46.2063 229.133C43.5715 235.494 42.8822 242.493 44.2254 249.246C45.5685 255.999 48.884 262.201 53.7524 267.07C58.6208 271.938 64.8235 275.254 71.5762 276.597C78.3288 277.94 85.3282 277.251 91.6891 274.616C98.0499 271.981 103.487 267.519 107.312 261.795C111.137 256.07 113.178 249.34 113.178 242.455C113.168 233.225 109.497 224.377 102.971 217.851C96.445 211.325 87.5967 207.654 78.3675 207.644Z" fill="#3F3D56"/>
<path d="M175.505 375.189H147.505V403.189H175.505V375.189Z" fill="#D0CDE1"/>
<path d="M192.505 387.189H158.505V353.189H192.505V387.189ZM159.983 385.711H191.026V354.668H159.983V385.711Z" fill="#3F3D56"/>
<path d="M802.505 375.189H774.505V403.189H802.505V375.189Z" fill="#D0CDE1"/>
<path d="M819.505 387.189H785.505V353.189H819.505V387.189ZM786.983 385.711H818.026V354.668H786.983V385.711Z" fill="#3F3D56"/>
</g>
<defs>
<clipPath id="clip0_709_1002">
<rect width="1027.99" height="529.556" fill="white"/>
</clipPath>
</defs>
</svg>
