<svg width="75" height="63" viewBox="0 0 75 63" fill="none" xmlns="http://www.w3.org/2000/svg">
<path d="M6.89869 16.8431V55.7373H18.1592V13.9343H10.2564C9.81101 13.9365 9.37057 14.0137 8.96039 14.1613C8.55021 14.309 8.17839 14.5241 7.86633 14.7945C7.55427 15.0648 7.30812 15.385 7.14206 15.7366C6.97599 16.0881 6.89328 16.4642 6.89869 16.8431Z" fill="#2068D9"/>
<path d="M57.0586 26.8236H68.3191V55.7374H57.0586V26.8236Z" fill="#2068D9"/>
<path d="M39.6539 23.6187C39.1203 22.8353 38.7878 21.9645 38.6784 21.0639C38.569 20.1632 38.6852 19.253 39.0192 18.3933H27.3697V15.6761H40.8004L46.7173 6.96716H24.6671C23.7549 6.96716 22.88 7.27546 22.235 7.82423C21.5899 8.373 21.2275 9.11729 21.2275 9.89337V55.7374H53.9855V26.8236H46.2669C44.9299 26.835 43.6132 26.5444 42.4514 25.9813C41.2895 25.4183 40.3242 24.603 39.6539 23.6187ZM37.6065 48.4044C36.8835 48.3975 36.179 48.2089 35.5817 47.8621C34.9845 47.5154 34.5211 47.0261 34.25 46.4558C33.9789 45.8855 33.9122 45.2598 34.0582 44.6573C34.2041 44.0548 34.5564 43.5025 35.0705 43.07C35.5846 42.6374 36.2377 42.3439 36.9474 42.2264C37.6572 42.1089 38.3919 42.1726 39.0592 42.4096C39.7265 42.6466 40.2965 43.0462 40.6974 43.5581C41.0983 44.07 41.3122 44.6714 41.3123 45.2866C41.3096 45.6983 41.2116 46.1056 41.0239 46.4851C40.8362 46.8646 40.5625 47.2089 40.2184 47.4984C39.8743 47.788 39.4665 48.017 39.0184 48.1724C38.5702 48.3279 38.0905 48.4067 37.6065 48.4044Z" fill="#2068D9"/>
<path d="M55.7274 1.9856L44.0164 19.1597C43.7439 19.4999 43.5875 19.8977 43.5645 20.3089C43.5415 20.7201 43.6527 21.1287 43.8859 21.4894C44.1191 21.8501 44.4652 22.1489 44.8857 22.3525C45.3063 22.5562 45.7849 22.6568 46.2685 22.6433H69.7109C70.1946 22.6568 70.6732 22.5562 71.0937 22.3525C71.5143 22.1489 71.8603 21.8501 72.0935 21.4894C72.3267 21.1287 72.438 20.7201 72.4149 20.3089C72.3919 19.8977 72.2355 19.4999 71.963 19.1597L60.2521 1.9856C60.0211 1.64953 59.6907 1.37076 59.2938 1.17704C58.8969 0.983311 58.4473 0.881378 57.9897 0.881378C57.5321 0.881378 57.0825 0.983311 56.6856 1.17704C56.2887 1.37076 55.9583 1.64953 55.7274 1.9856Z" fill="#2068D9"/>
</svg>
