<svg width="176" height="34" viewBox="0 0 176 34" fill="none" xmlns="http://www.w3.org/2000/svg">
<path d="M40.84 16.6C40.84 14.952 41.208 13.48 41.944 12.184C42.696 10.872 43.712 9.856 44.992 9.136C46.288 8.4 47.736 8.032 49.336 8.032C51.208 8.032 52.848 8.512 54.256 9.472C55.664 10.432 56.648 11.76 57.208 13.456H53.344C52.96 12.656 52.416 12.056 51.712 11.656C51.024 11.256 50.224 11.056 49.312 11.056C48.336 11.056 47.464 11.288 46.696 11.752C45.944 12.2 45.352 12.84 44.92 13.672C44.504 14.504 44.296 15.48 44.296 16.6C44.296 17.704 44.504 18.68 44.92 19.528C45.352 20.36 45.944 21.008 46.696 21.472C47.464 21.92 48.336 22.144 49.312 22.144C50.224 22.144 51.024 21.944 51.712 21.544C52.416 21.128 52.96 20.52 53.344 19.72H57.208C56.648 21.432 55.664 22.768 54.256 23.728C52.864 24.672 51.224 25.144 49.336 25.144C47.736 25.144 46.288 24.784 44.992 24.064C43.712 23.328 42.696 22.312 41.944 21.016C41.208 19.72 40.84 18.248 40.84 16.6ZM63.4379 7.24V25H60.0779V7.24H63.4379ZM79.3096 11.704V25H75.9256V23.32C75.4936 23.896 74.9256 24.352 74.2216 24.688C73.5336 25.008 72.7816 25.168 71.9656 25.168C70.9256 25.168 70.0056 24.952 69.2056 24.52C68.4056 24.072 67.7736 23.424 67.3096 22.576C66.8616 21.712 66.6376 20.688 66.6376 19.504V11.704H69.9976V19.024C69.9976 20.08 70.2616 20.896 70.7896 21.472C71.3176 22.032 72.0376 22.312 72.9496 22.312C73.8776 22.312 74.6056 22.032 75.1336 21.472C75.6616 20.896 75.9256 20.08 75.9256 19.024V11.704H79.3096ZM87.7128 25.216C86.6248 25.216 85.6488 25.024 84.7848 24.64C83.9208 24.24 83.2328 23.704 82.7208 23.032C82.2248 22.36 81.9528 21.616 81.9048 20.8H85.2888C85.3528 21.312 85.6008 21.736 86.0328 22.072C86.4808 22.408 87.0328 22.576 87.6888 22.576C88.3288 22.576 88.8248 22.448 89.1768 22.192C89.5448 21.936 89.7288 21.608 89.7288 21.208C89.7288 20.776 89.5048 20.456 89.0568 20.248C88.6248 20.024 87.9288 19.784 86.9688 19.528C85.9768 19.288 85.1608 19.04 84.5208 18.784C83.8968 18.528 83.3528 18.136 82.8888 17.608C82.4408 17.08 82.2168 16.368 82.2168 15.472C82.2168 14.736 82.4248 14.064 82.8408 13.456C83.2728 12.848 83.8808 12.368 84.6648 12.016C85.4648 11.664 86.4008 11.488 87.4728 11.488C89.0568 11.488 90.3208 11.888 91.2648 12.688C92.2088 13.472 92.7288 14.536 92.8248 15.88H89.6088C89.5608 15.352 89.3368 14.936 88.9368 14.632C88.5528 14.312 88.0328 14.152 87.3768 14.152C86.7688 14.152 86.2968 14.264 85.9608 14.488C85.6408 14.712 85.4808 15.024 85.4808 15.424C85.4808 15.872 85.7048 16.216 86.1528 16.456C86.6008 16.68 87.2968 16.912 88.2408 17.152C89.2008 17.392 89.9928 17.64 90.6168 17.896C91.2408 18.152 91.7768 18.552 92.2248 19.096C92.6888 19.624 92.9288 20.328 92.9448 21.208C92.9448 21.976 92.7288 22.664 92.2968 23.272C91.8808 23.88 91.2728 24.36 90.4728 24.712C89.6888 25.048 88.7688 25.216 87.7128 25.216ZM99.6149 14.464V20.896C99.6149 21.344 99.7189 21.672 99.9269 21.88C100.151 22.072 100.519 22.168 101.031 22.168H102.591V25H100.479C97.6469 25 96.2309 23.624 96.2309 20.872V14.464H94.6469V11.704H96.2309V8.416H99.6149V11.704H102.591V14.464H99.6149ZM115.232 15.016V17.848H105.056V15.016H115.232ZM122.36 22.336H127.88V25H119V8.248H122.36V22.336ZM135.919 25.216C134.639 25.216 133.487 24.936 132.463 24.376C131.439 23.8 130.631 22.992 130.039 21.952C129.463 20.912 129.175 19.712 129.175 18.352C129.175 16.992 129.471 15.792 130.063 14.752C130.671 13.712 131.495 12.912 132.535 12.352C133.575 11.776 134.735 11.488 136.015 11.488C137.295 11.488 138.455 11.776 139.495 12.352C140.535 12.912 141.351 13.712 141.943 14.752C142.551 15.792 142.855 16.992 142.855 18.352C142.855 19.712 142.543 20.912 141.919 21.952C141.311 22.992 140.479 23.8 139.423 24.376C138.383 24.936 137.215 25.216 135.919 25.216ZM135.919 22.288C136.527 22.288 137.095 22.144 137.623 21.856C138.167 21.552 138.599 21.104 138.919 20.512C139.239 19.92 139.399 19.2 139.399 18.352C139.399 17.088 139.063 16.12 138.391 15.448C137.735 14.76 136.927 14.416 135.967 14.416C135.007 14.416 134.199 14.76 133.543 15.448C132.903 16.12 132.583 17.088 132.583 18.352C132.583 19.616 132.895 20.592 133.519 21.28C134.159 21.952 134.959 22.288 135.919 22.288ZM150.528 11.488C151.52 11.488 152.392 11.688 153.144 12.088C153.896 12.472 154.488 12.976 154.92 13.6V11.704H158.304V25.096C158.304 26.328 158.056 27.424 157.56 28.384C157.064 29.36 156.32 30.128 155.328 30.688C154.336 31.264 153.136 31.552 151.728 31.552C149.84 31.552 148.288 31.112 147.072 30.232C145.872 29.352 145.192 28.152 145.032 26.632H148.368C148.544 27.24 148.92 27.72 149.496 28.072C150.088 28.44 150.8 28.624 151.632 28.624C152.608 28.624 153.4 28.328 154.008 27.736C154.616 27.16 154.92 26.28 154.92 25.096V23.032C154.488 23.656 153.888 24.176 153.12 24.592C152.368 25.008 151.504 25.216 150.528 25.216C149.408 25.216 148.384 24.928 147.456 24.352C146.528 23.776 145.792 22.968 145.248 21.928C144.72 20.872 144.456 19.664 144.456 18.304C144.456 16.96 144.72 15.768 145.248 14.728C145.792 13.688 146.52 12.888 147.432 12.328C148.36 11.768 149.392 11.488 150.528 11.488ZM154.92 18.352C154.92 17.536 154.76 16.84 154.44 16.264C154.12 15.672 153.688 15.224 153.144 14.92C152.6 14.6 152.016 14.44 151.392 14.44C150.768 14.44 150.192 14.592 149.664 14.896C149.136 15.2 148.704 15.648 148.368 16.24C148.048 16.816 147.888 17.504 147.888 18.304C147.888 19.104 148.048 19.808 148.368 20.416C148.704 21.008 149.136 21.464 149.664 21.784C150.208 22.104 150.784 22.264 151.392 22.264C152.016 22.264 152.6 22.112 153.144 21.808C153.688 21.488 154.12 21.04 154.44 20.464C154.76 19.872 154.92 19.168 154.92 18.352ZM167.49 25.216C166.21 25.216 165.058 24.936 164.034 24.376C163.01 23.8 162.202 22.992 161.61 21.952C161.034 20.912 160.746 19.712 160.746 18.352C160.746 16.992 161.042 15.792 161.634 14.752C162.242 13.712 163.066 12.912 164.106 12.352C165.146 11.776 166.306 11.488 167.586 11.488C168.866 11.488 170.026 11.776 171.066 12.352C172.106 12.912 172.922 13.712 173.514 14.752C174.122 15.792 174.426 16.992 174.426 18.352C174.426 19.712 174.114 20.912 173.49 21.952C172.882 22.992 172.05 23.8 170.994 24.376C169.954 24.936 168.786 25.216 167.49 25.216ZM167.49 22.288C168.098 22.288 168.666 22.144 169.194 21.856C169.738 21.552 170.17 21.104 170.49 20.512C170.81 19.92 170.97 19.2 170.97 18.352C170.97 17.088 170.634 16.12 169.962 15.448C169.306 14.76 168.498 14.416 167.538 14.416C166.578 14.416 165.77 14.76 165.114 15.448C164.474 16.12 164.154 17.088 164.154 18.352C164.154 19.616 164.466 20.592 165.09 21.28C165.73 21.952 166.53 22.288 167.49 22.288Z" fill="white"/>
<path d="M34.0013 17.0001C34.0013 26.3889 26.3901 34.0001 17.0013 34.0001C13.0609 34.0001 9.43369 32.6595 6.55078 30.4095L24.7833 12.177C25.6535 13.5776 26.1551 15.2294 26.1551 17.0001C26.1551 21.1928 23.3363 24.7271 19.4905 25.8114C18.9167 25.0654 18.0151 24.5847 17.0013 24.5847C15.2679 24.5847 13.8628 25.9898 13.8628 27.7231C13.8628 29.4565 15.2679 30.8616 17.0013 30.8616C18.2989 30.8616 19.4126 30.0741 19.8905 28.9509C25.2853 27.6513 29.2936 22.7938 29.2936 17.0001C29.2936 14.3619 28.4612 11.9162 27.0465 9.9138L30.4107 6.54956C32.6607 9.43247 34.0013 13.0597 34.0013 17.0001Z" fill="#FFAF2E"/>
<path d="M6.95477 24.0862L3.59053 27.4505C1.34058 24.5676 0 20.9403 0 17C0 7.61116 7.61116 0 17 0C20.9403 0 24.5676 1.34058 27.4505 3.59053L9.218 21.823C8.34783 20.4225 7.84615 18.7708 7.84615 17C7.84615 12.8073 10.6649 9.27294 14.5108 8.18866C15.0846 8.93463 15.9861 9.41538 17 9.41538C18.7333 9.41538 20.1385 8.01024 20.1385 6.27692C20.1385 4.54359 18.7333 3.13845 17 3.13845C15.7024 3.13845 14.5887 3.92597 14.1108 5.04914C8.71598 6.34871 4.70768 11.2063 4.70768 17C4.70768 19.6379 5.54001 22.0838 6.95477 24.0862Z" fill="#F04148"/>
<circle cx="16.9991" cy="6.27693" r="1.30769" fill="#F04148"/>
<circle cx="16.9991" cy="27.7232" r="1.30769" fill="#FFAF2E"/>
</svg>
