<svg width="72" height="70" viewBox="0 0 72 70" fill="none" xmlns="http://www.w3.org/2000/svg">
<path d="M35.8742 7.95395L13.5967 48.9544L23.7105 63.76L37.9918 7.16521L35.8742 7.95395Z" fill="#56A444"/>
<path d="M24.8455 65.0811C24.2474 65.1099 23.6505 64.998 23.0932 64.7525C22.5359 64.507 22.0306 64.1333 21.6098 63.6556L21.3218 63.3753L21.2371 63.2422L6.13832 39.4849C5.87054 39.1878 5.65903 38.833 5.5165 38.4419C5.37397 38.0508 5.30336 37.6315 5.3089 37.209C5.31443 36.7865 5.39601 36.3696 5.54873 35.9834C5.70145 35.5972 5.92216 35.2496 6.19762 34.9615L34.6968 4.98916C35.1404 4.53662 35.6609 4.1893 36.2271 3.96803C36.7934 3.74676 37.3936 3.65611 37.9918 3.70151C39.5679 3.83323 41.0338 4.65806 42.0704 5.99647L67.2364 37.6555C68.3714 39.081 69.8199 41.2572 69.2608 43.5996C68.8119 45.5002 67.2025 46.9257 64.331 48.009L26.3617 64.9385L26.222 64.9623C25.7661 65.0365 25.3062 65.0762 24.8455 65.0811ZM23.0752 61.5935L23.1684 61.6885C23.7444 62.2587 24.1001 62.6055 25.7646 62.368L63.5559 45.5335C65.5465 44.7875 66.7662 43.8657 66.9865 42.9392C67.1813 42.1172 66.6731 40.9388 65.4787 39.4326L40.3127 7.75927C39.6931 6.94491 38.815 6.43357 37.8647 6.33383C37.5798 6.30539 37.2927 6.34348 37.0216 6.4457C36.7504 6.54793 36.501 6.71206 36.2892 6.92776L7.80278 36.862C7.75705 36.9091 7.72061 36.9664 7.69581 37.0303C7.67101 37.0941 7.65842 37.163 7.65879 37.2327C7.65879 37.3013 7.67203 37.3691 7.69762 37.4314C7.72321 37.4938 7.76053 37.5492 7.80702 37.5938L7.90866 37.6936L7.98489 37.8171L23.0752 61.5935Z" fill="#2068D9"/>
<path d="M36.8424 4.67318L22.5605 63.4026L24.8323 64.098L39.1141 5.36851L36.8424 4.67318Z" fill="#818793"/>
<path d="M22.8103 69.0566C25.2804 69.0566 27.2828 66.8101 27.2828 64.039C27.2828 61.2679 25.2804 59.0215 22.8103 59.0215C20.3403 59.0215 18.3379 61.2679 18.3379 64.039C18.3379 66.8101 20.3403 69.0566 22.8103 69.0566Z" fill="black"/>
<path d="M63.0225 42.4831C63.0225 41.4907 63.2848 40.5206 63.7762 39.6955C64.2676 38.8703 64.9661 38.2272 65.7834 37.8475C66.6006 37.4677 67.4999 37.3683 68.3675 37.5619C69.235 37.7555 70.0319 38.2334 70.6574 38.9351C71.2829 39.6368 71.7089 40.5309 71.8814 41.5042C72.054 42.4775 71.9654 43.4864 71.6269 44.4032C71.2884 45.32 70.7152 46.1037 69.9797 46.655C69.2442 47.2064 68.3795 47.5006 67.4949 47.5006C66.9074 47.5013 66.3256 47.3719 65.7827 47.12C65.2399 46.868 64.7466 46.4985 64.3312 46.0324C63.9158 45.5664 63.5863 45.013 63.3618 44.404C63.1372 43.7949 63.0219 43.1422 63.0225 42.4831Z" fill="black"/>
<path d="M33.5195 5.01756C33.5195 4.02518 33.7818 3.05508 34.2733 2.22995C34.7647 1.40482 35.4632 0.761707 36.2804 0.38194C37.0977 0.00217296 37.9969 -0.0971899 38.8645 0.0964136C39.7321 0.290017 40.529 0.767893 41.1545 1.46961C41.78 2.17133 42.2059 3.06537 42.3785 4.03868C42.551 5.01199 42.4625 6.02085 42.124 6.93769C41.7855 7.85453 41.2122 8.63816 40.4767 9.1895C39.7412 9.74084 38.8765 10.0351 37.992 10.0351C36.8058 10.0351 35.6682 9.50648 34.8295 8.56551C33.9907 7.62453 33.5195 6.34829 33.5195 5.01756Z" fill="black"/>
<path d="M0.900391 39.3191C0.900391 38.3267 1.16269 37.3566 1.65413 36.5315C2.14557 35.7063 2.84407 35.0632 3.66131 34.6835C4.47854 34.3037 5.37781 34.2043 6.24538 34.3979C7.11295 34.5915 7.90985 35.0694 8.53533 35.7711C9.16082 36.4728 9.58679 37.3669 9.75936 38.3402C9.93193 39.3135 9.84335 40.3224 9.50484 41.2392C9.16633 42.156 8.59309 42.9397 7.8576 43.491C7.12211 44.0424 6.2574 44.3366 5.37284 44.3366C4.18667 44.3366 3.04909 43.808 2.21034 42.867C1.3716 41.926 0.900391 40.6498 0.900391 39.3191Z" fill="black"/>
</svg>
