<svg width="104" height="130" viewBox="0 0 104 130" fill="none" xmlns="http://www.w3.org/2000/svg">
<path d="M53.2921 4.44727L53.2914 4.44677C52.8753 4.15596 52.38 4 51.8724 4C51.3649 4 50.8696 4.15593 50.4536 4.44667C50.4535 4.44671 50.4535 4.44674 50.4534 4.44677L53.2921 4.44727ZM53.2921 4.44727C59.5464 8.81702 66.6308 11.8571 74.107 13.3794C81.5815 14.9014 89.2886 14.874 96.7521 13.299C97.1139 13.2241 97.4878 13.2303 97.847 13.3174C98.2062 13.4044 98.5416 13.5702 98.8289 13.8025C99.1147 14.0358 99.3451 14.3296 99.5034 14.6627C99.6623 14.9969 99.7448 15.3623 99.7448 15.7323V64.0799C99.7363 72.7312 97.6671 81.256 93.7085 88.9486C89.7504 96.6404 84.0172 103.279 76.9834 108.314C76.9827 108.315 76.982 108.315 76.9814 108.316L53.317 125.219C52.8955 125.52 52.3905 125.681 51.8727 125.681C51.3549 125.681 50.85 125.52 50.4284 125.219L26.764 108.319C19.7294 103.282 13.9955 96.6426 10.0369 88.9495C6.07866 81.2572 4.00928 72.7327 4 64.0818L4 15.7321L4 15.7296C3.99977 15.3602 4.08198 14.9955 4.24063 14.6619C4.39928 14.3284 4.63037 14.0344 4.91705 13.8015L2.39488 10.6969L4.91705 13.8015C5.20373 13.5687 5.53878 13.4027 5.89776 13.3157L4.95599 9.42815L5.89776 13.3157C6.25605 13.2289 6.62916 13.223 6.98999 13.2984L53.2921 4.44727ZM41.3883 75.3246V77.8086C41.3883 80.5891 42.4929 83.2558 44.4591 85.2219C46.4252 87.1881 49.0918 88.2927 51.8724 88.2927C54.653 88.2927 57.3196 87.1881 59.2857 85.2219C61.2519 83.2558 62.3564 80.5891 62.3564 77.8086V75.3246H64.8405C67.621 75.3246 70.2877 74.22 72.2538 72.2539C74.22 70.2877 75.3245 67.621 75.3245 64.8405C75.3245 62.06 74.22 59.3933 72.2538 57.4272C70.2877 55.461 67.621 54.3565 64.8405 54.3565H62.3564V51.8724C62.3564 49.0919 61.2519 46.4252 59.2857 44.4591C57.3196 42.4929 54.6529 41.3884 51.8724 41.3884C49.0919 41.3884 46.4252 42.4929 44.4591 44.4591C42.4929 46.4252 41.3883 49.0919 41.3883 51.8724V54.3565H38.9043C36.1237 54.3565 33.4571 55.461 31.491 57.4272C29.5248 59.3933 28.4202 62.06 28.4202 64.8405C28.4202 67.621 29.5248 70.2877 31.491 72.2538C33.4571 74.22 36.1237 75.3246 38.9043 75.3246H41.3883Z" stroke="black" stroke-width="8"/>
<rect x="18" y="35" width="67" height="60" rx="16" fill="white"/>
<path d="M72 55.226C72 43.9934 62.8847 34.9711 51.7451 34.9711C40.6056 34.9711 31.4902 44.0839 31.4902 55.226C31.4902 62.9608 36.1849 69.7728 42.5393 73.18L40.6961 90.2112L51.7451 82.8461L62.7941 90.2112L60.9535 73.1775C67.3958 69.7728 72 62.9583 72 55.226ZM51.7451 73.6377C49.3266 73.6387 46.9317 73.1631 44.6971 72.238C42.4626 71.313 40.4322 69.9566 38.7221 68.2465C37.012 66.5364 35.6556 64.506 34.7306 62.2715C33.8055 60.0369 33.3299 57.6419 33.3309 55.2235C33.3309 45.0042 41.6164 36.8093 51.7451 36.8093C61.8738 36.8093 70.1593 45.0948 70.1593 55.2235C70.168 57.6441 69.6976 60.0425 68.7752 62.2805C67.8529 64.5185 66.4968 66.5519 64.7852 68.2636C63.0736 69.9752 61.0402 71.3312 58.8021 72.2536C56.5641 73.1759 54.1657 73.6463 51.7451 73.6377ZM60.0306 47.6747L62.7916 50.4357L50.3621 62.8653L43.4596 55.9602L46.2206 53.1992L50.3646 57.3433L60.0306 47.6747Z" fill="black"/>
</svg>
