<svg width="119" height="119" viewBox="0 0 119 119" fill="none" xmlns="http://www.w3.org/2000/svg">
<path d="M106.298 54.2379L94.6951 47.276C91.806 45.5409 88.4992 44.6245 85.129 44.6249H28.9339L26.6253 35.3842C26.2245 33.7738 25.296 32.344 23.9879 31.3229C22.6798 30.3017 21.0674 29.7479 19.4079 29.7499H14.874C12.9022 29.7522 11.0117 30.5365 9.61742 31.9308C8.22311 33.3252 7.43879 35.2156 7.43652 37.1874V63.2187C7.43977 66.1765 8.6162 69.0123 10.7077 71.1038C12.7992 73.1953 15.6349 74.3717 18.5928 74.3749H44.624V96.6874C44.6263 98.6593 45.4106 100.55 46.8049 101.944C48.1992 103.338 50.0897 104.123 52.0615 104.125H56.9223C58.4355 104.121 59.9117 103.657 61.1554 102.795C62.3991 101.933 63.3518 100.714 63.8872 99.2984L73.232 74.3749H100.72C103.09 74.3751 105.396 73.598 107.283 72.1627C109.17 70.7274 110.535 68.713 111.168 66.4281C111.801 64.1432 111.667 61.7138 110.787 59.5121C109.908 57.3104 108.331 55.4577 106.298 54.2379ZM100.72 66.9374H68.0786L56.9223 96.6874H52.0615V66.9374H18.5928C17.6068 66.9366 16.6614 66.5445 15.9642 65.8473C15.267 65.1501 14.8749 64.2047 14.874 63.2187V37.1874H19.4079L23.1267 52.0624H37.1865V59.4999H44.624V52.0624H55.7803V59.4999H63.2178V52.0624H74.374V59.4999H81.8115V52.0624H85.129C87.151 52.0623 89.135 52.6121 90.8685 53.653L102.471 60.6148C103.109 60.9982 103.603 61.5799 103.879 62.2711C104.155 62.9622 104.197 63.7247 103.998 64.4418C103.799 65.1589 103.371 65.7911 102.779 66.2417C102.186 66.6923 101.463 66.9364 100.719 66.9367L100.72 66.9374Z" fill="black"/>
<path d="M52.0625 14.875H56.9817L65.9067 37.1875H73.9187L63.8881 12.1131C63.3401 10.73 62.388 9.54407 61.156 8.71005C59.9241 7.87602 58.4694 7.43256 56.9817 7.43748H52.0625C50.0906 7.43974 48.2002 8.22406 46.8059 9.61837C45.4116 11.0127 44.6273 12.9031 44.625 14.875V37.1875H52.0625V14.875Z" fill="black"/>
</svg>
