<svg width="113" height="97" viewBox="0 0 113 97" fill="none" xmlns="http://www.w3.org/2000/svg">
<path d="M96.1941 36.0972C100.444 36.0924 104.519 34.402 107.524 31.3969C110.529 28.3917 112.219 24.3172 112.224 20.0673V8.04486H100.202C96.0985 8.05156 92.156 9.6396 89.1938 12.4787C87.1179 8.71142 84.07 5.56948 80.3675 3.38005C76.6649 1.19062 72.4432 0.0337549 68.1418 0.0299072H56.1193V12.0523C56.1263 18.4273 58.6619 24.5391 63.1696 29.0469C67.6774 33.5547 73.7892 36.0902 80.1642 36.0972H84.1717V88.1944H36.0819V68.157H40.0894C44.3393 68.1522 48.4138 66.4618 51.419 63.4567C54.4242 60.4515 56.1146 56.377 56.1193 52.1271V40.1047H44.0969C39.9939 40.1114 36.0513 41.6994 33.0892 44.5385C31.0132 40.7712 27.9653 37.6293 24.2628 35.4399C20.5603 33.2504 16.3385 32.0936 12.0371 32.0897H0.0146484V44.1122C0.0216493 50.4871 2.55719 56.5989 7.06496 61.1067C11.5727 65.6145 17.6846 68.15 24.0595 68.157H28.067V88.1944H0.0146484V96.2094H112.224V88.1944H92.1866V36.0972H96.1941ZM92.1866 24.0748C92.1887 21.9497 93.0338 19.9123 94.5365 18.4097C96.0391 16.907 98.0765 16.0619 100.202 16.0598H104.209V20.0673C104.207 22.1923 103.362 24.2297 101.859 25.7324C100.357 27.235 98.3191 28.0801 96.1941 28.0822H92.1866V24.0748ZM36.0819 56.1346C36.0841 54.0095 36.9292 51.9721 38.4318 50.4695C39.9344 48.9669 41.9718 48.1217 44.0969 48.1196H48.1044V52.1271C48.1022 54.2522 47.2571 56.2896 45.7545 57.7922C44.2519 59.2948 42.2145 60.1399 40.0894 60.1421H36.0819V56.1346ZM28.067 60.1421H24.0595C19.8096 60.1373 15.7351 58.4469 12.7299 55.4417C9.72477 52.4366 8.03438 48.3621 8.0296 44.1122V40.1047H12.0371C16.287 40.1094 20.3615 41.7998 23.3667 44.805C26.3718 47.8102 28.0622 51.8847 28.067 56.1346V60.1421ZM84.1717 28.0822H80.1642C75.9143 28.0775 71.8398 26.3871 68.8346 23.3819C65.8294 20.3768 64.1391 16.3023 64.1343 12.0523V8.04486H68.1418C72.3917 8.04963 76.4662 9.74003 79.4713 12.7452C82.4765 15.7503 84.1669 19.8248 84.1717 24.0748V28.0822Z" fill="black"/>
</svg>
