<svg width="114" height="98" viewBox="0 0 114 98" fill="none" xmlns="http://www.w3.org/2000/svg">
<path d="M0 51.4861V77.2292C0 78.5947 0.542442 79.9043 1.50799 80.8698C2.47355 81.8354 3.78312 82.3778 5.14861 82.3778H10.2972C10.2972 86.4743 11.9246 90.403 14.8212 93.2997C17.7179 96.1964 21.6466 97.8237 25.7431 97.8237C29.8396 97.8237 33.7683 96.1964 36.6649 93.2997C39.5616 90.403 41.1889 86.4743 41.1889 82.3778H72.0806C72.0806 86.4743 73.7079 90.403 76.6046 93.2997C79.5012 96.1964 83.43 97.8237 87.5264 97.8237C91.6229 97.8237 95.5517 96.1964 98.4483 93.2997C101.345 90.403 102.972 86.4743 102.972 82.3778H108.121C109.486 82.3778 110.796 81.8354 111.762 80.8698C112.727 79.9043 113.27 78.5947 113.27 77.2292V15.4458C113.27 11.3494 111.642 7.42064 108.746 4.52398C105.849 1.62733 101.92 0 97.8237 0H51.4861C47.3897 0 43.4609 1.62733 40.5643 4.52398C37.6676 7.42064 36.0403 11.3494 36.0403 15.4458V25.7431H25.7431C23.3452 25.7431 20.9802 26.3014 18.8355 27.3737C16.6907 28.4461 14.8251 30.0031 13.3864 31.9214L1.02972 48.397C0.879133 48.6208 0.758002 48.863 0.66932 49.1178L0.360403 49.6841C0.133174 50.2583 0.0110955 50.8687 0 51.4861ZM82.3778 82.3778C82.3778 81.3595 82.6798 80.3641 83.2455 79.5174C83.8113 78.6707 84.6154 78.0108 85.5562 77.6211C86.4969 77.2314 87.5322 77.1295 88.5309 77.3281C89.5296 77.5268 90.447 78.0172 91.1671 78.7372C91.8871 79.4573 92.3775 80.3746 92.5761 81.3734C92.7748 82.3721 92.6728 83.4073 92.2831 84.3481C91.8935 85.2889 91.2336 86.093 90.3869 86.6588C89.5402 87.2245 88.5447 87.5264 87.5264 87.5264C86.1609 87.5264 84.8514 86.984 83.8858 86.0185C82.9203 85.0529 82.3778 83.7433 82.3778 82.3778ZM46.3375 15.4458C46.3375 14.0803 46.88 12.7708 47.8455 11.8052C48.8111 10.8397 50.1206 10.2972 51.4861 10.2972H97.8237C99.1892 10.2972 100.499 10.8397 101.464 11.8052C102.43 12.7708 102.972 14.0803 102.972 15.4458V72.0806H98.9564C97.5087 70.4879 95.7441 69.2152 93.7757 68.3444C91.8074 67.4736 89.6788 67.0237 87.5264 67.0237C85.3741 67.0237 83.2455 67.4736 81.2771 68.3444C79.3088 69.2152 77.5442 70.4879 76.0965 72.0806H46.3375V15.4458ZM36.0403 46.3375H15.4458L21.6242 38.0997C22.1038 37.4603 22.7256 36.9413 23.4405 36.5839C24.1555 36.2264 24.9438 36.0403 25.7431 36.0403H36.0403V46.3375ZM20.5945 82.3778C20.5945 81.3595 20.8964 80.3641 21.4622 79.5174C22.0279 78.6707 22.832 78.0108 23.7728 77.6211C24.7136 77.2314 25.7488 77.1295 26.7475 77.3281C27.7463 77.5268 28.6636 78.0172 29.3837 78.7372C30.1037 79.4573 30.5941 80.3746 30.7928 81.3734C30.9914 82.3721 30.8895 83.4073 30.4998 84.3481C30.1101 85.2889 29.4502 86.093 28.6035 86.6588C27.7568 87.2245 26.7614 87.5264 25.7431 87.5264C24.3776 87.5264 23.068 86.984 22.1025 86.0185C21.1369 85.0529 20.5945 83.7433 20.5945 82.3778ZM10.2972 56.6348H36.0403V70.9479C33.0018 68.2323 29.0131 66.8275 24.9435 67.0397C20.8738 67.2519 17.0528 69.0638 14.3131 72.0806H10.2972V56.6348Z" fill="black"/>
</svg>
