<svg width="92" height="92" viewBox="0 0 92 92" fill="none" xmlns="http://www.w3.org/2000/svg">
<path d="M25.8796 90.16C18.9681 90.16 13.3446 84.5365 13.3446 77.625C13.3446 70.7135 18.9681 65.09 25.8796 65.09C27.9812 65.09 29.9621 65.6133 31.7044 66.5275L37.8137 56.9308L39.5589 58.0434L33.4495 67.643C36.4625 69.9344 38.4146 73.5569 38.4146 77.6279C38.4146 84.5365 32.794 90.16 25.8796 90.16ZM25.8796 67.16C20.1095 67.16 15.4146 71.8549 15.4146 77.625C15.4146 83.3952 20.1095 88.09 25.8796 88.09C31.6497 88.09 36.3446 83.3952 36.3446 77.625C36.3446 71.8549 31.6526 67.16 25.8796 67.16ZM46.0046 90.1457C43.5292 90.1457 41.0539 89.9415 38.6532 89.5362L38.9954 87.492C41.2839 87.8802 43.6442 88.0728 46.0046 88.0728C59.3676 88.0728 71.641 81.9375 79.6766 71.2425L81.3326 72.4845C72.9031 83.7085 60.026 90.1457 46.0046 90.1457ZM89.1239 71.4725C88.9456 71.4725 88.7616 71.4237 88.6006 71.3288L71.365 61.2519C71.0488 61.0679 70.8504 60.7258 70.8504 60.3578C70.8504 59.9898 71.0459 59.6505 71.365 59.4637L88.6006 49.4155C88.9255 49.2287 89.3165 49.2287 89.6385 49.4098C89.9576 49.5938 90.1589 49.9388 90.1589 50.3068V70.4318C90.1589 70.8027 89.9605 71.1448 89.6356 71.3288C89.4804 71.4265 89.3021 71.4725 89.1239 71.4725ZM73.941 60.3607L88.0889 68.632V52.1152L73.941 60.3607ZM9.61574 71.0097C8.02299 68.701 6.64299 66.2228 5.51887 63.6497L7.41637 62.8188C8.48874 65.274 9.79974 67.6344 11.3177 69.8338L9.61574 71.0097ZM8.98612 58.8714C8.72162 58.8714 8.45712 58.7708 8.25587 58.5695L2.14362 52.486C1.94812 52.2905 1.83887 52.026 1.83887 51.75C1.83887 51.4769 1.94812 51.2124 2.14074 51.0169L8.25299 44.9075C8.65837 44.5022 9.31099 44.5022 9.71637 44.9075L15.8171 51.0054C16.0126 51.198 16.119 51.4625 16.119 51.7385C16.119 52.0145 16.0126 52.2762 15.8171 52.4688L9.71637 58.5667C9.51512 58.7679 9.25062 58.8714 8.98612 58.8714ZM4.34012 51.7472L8.98612 56.3702L13.6235 51.7357L8.98899 47.1012L4.34012 51.7472ZM25.1867 58.006C23.0822 54.3663 21.9696 50.2119 21.9696 45.9857C21.9696 35.006 29.3871 25.4323 40.0074 22.7039L40.522 24.7078C30.8189 27.2004 24.0396 35.949 24.0396 45.9828C24.0396 49.8439 25.0574 53.6418 26.9779 56.9624L25.1867 58.006ZM46.0046 55.6457C40.6772 55.6457 36.3446 51.3102 36.3446 45.9857C36.3446 41.0062 40.131 36.8949 44.9754 36.3803V20.1107H47.0454V36.3803C51.884 36.9035 55.6646 41.009 55.6646 45.9857C55.6646 51.313 51.3291 55.6457 46.0046 55.6457ZM46.0046 38.3957C41.8186 38.3957 38.4146 41.8025 38.4146 45.9857C38.4146 50.1717 41.8215 53.5757 46.0046 53.5757C50.1877 53.5757 53.5918 50.1717 53.5918 45.9857C53.5946 41.8025 50.1906 38.3957 46.0046 38.3957ZM88.0918 43.1797C86.8498 24.3197 73.0095 8.51578 54.4341 4.7409L54.8452 2.71115C74.3349 6.67003 88.8565 23.2559 90.1589 43.0445L88.0918 43.1797ZM69.0132 41.2707C68.835 41.2707 68.6568 41.2247 68.4958 41.1327L61.0236 36.8202C60.7045 36.6362 60.5033 36.2912 60.5033 35.9232V27.2982C60.5033 26.9302 60.7016 26.5852 61.0236 26.4012L68.4958 22.0887C68.8149 21.9075 69.2087 21.9047 69.5279 22.0887L76.9971 26.4012C77.3162 26.5852 77.5175 26.9273 77.5175 27.2982V35.9232C77.5175 36.2912 77.3191 36.6362 76.9971 36.8202L69.5279 41.1327C69.3698 41.2247 69.1915 41.2707 69.0132 41.2707ZM62.579 35.3252L69.0132 39.0397L75.4446 35.3252V27.8962L69.0132 24.1817L62.579 27.8962V35.3252ZM45.9931 12.535C43.0491 12.535 40.6542 10.1315 40.6542 7.17315C40.6542 4.23203 43.0491 1.84003 45.9931 1.84003C48.9457 1.84003 51.3492 4.23203 51.3492 7.17315C51.3464 10.1287 48.9429 12.535 45.9931 12.535ZM45.9931 3.91003C44.1905 3.91003 42.7214 5.3734 42.7214 7.17315C42.7214 8.98728 44.1876 10.465 45.9931 10.465C47.8044 10.465 49.2764 8.98728 49.2764 7.17315C49.2764 5.3734 47.8015 3.91003 45.9931 3.91003ZM2.97449 44.1255C2.95149 44.1255 2.92562 44.1255 2.90262 44.1227C2.33337 44.0795 1.90499 43.6138 1.94524 43.0445C1.94524 43.0445 1.94812 42.9842 1.94812 42.9813C1.99412 42.412 2.47999 41.9664 3.06074 42.0297C3.62999 42.0728 4.05549 42.5702 4.01237 43.1423C3.96924 43.6828 3.51212 44.1255 2.97449 44.1255ZM3.74212 37.3664H3.76799H3.74212ZM5.27737 31.7688H5.30324H5.27737ZM7.55149 27.4333C7.39624 27.4333 7.24099 27.3988 7.09437 27.3212C6.59124 27.0624 6.37849 26.473 6.63437 25.967C6.63724 25.9584 6.66887 25.898 6.67462 25.8865C6.94487 25.3834 7.56874 25.1965 8.07762 25.4668C8.58074 25.737 8.76762 26.3638 8.49737 26.8698C8.30762 27.2234 7.93387 27.4333 7.55149 27.4333ZM14.1611 17.9142C13.9081 17.9142 13.6551 17.825 13.4596 17.641C13.0514 17.2558 13.0082 16.6348 13.382 16.2179C13.3964 16.2064 13.4481 16.1518 13.4625 16.1374C13.8679 15.732 14.5205 15.732 14.9259 16.1374C15.3312 16.5428 15.3312 17.1954 14.9259 17.6008C14.7189 17.8078 14.4371 17.9142 14.1611 17.9142ZM10.5415 22.4337C10.2885 22.4337 10.0355 22.3445 9.83999 22.1605C9.43174 21.7753 9.38862 21.1543 9.76237 20.7374C9.77387 20.723 9.82562 20.6684 9.83999 20.6569C10.2454 20.2515 10.898 20.2515 11.3034 20.6569C11.7087 21.0623 11.7087 21.7149 11.3034 22.1203C11.0992 22.3273 10.8175 22.4337 10.5415 22.4337ZM5.26299 32.7779C5.00999 32.7779 4.75699 32.6888 4.56149 32.5048C4.15324 32.1195 4.11012 31.4985 4.48387 31.0817C4.49537 31.0673 4.54712 31.0127 4.56149 31.0012C4.96687 30.5958 5.61949 30.5958 6.02487 31.0012C6.43024 31.4065 6.43024 32.0592 6.02487 32.4645C5.81787 32.6687 5.53899 32.7779 5.26299 32.7779ZM3.72487 38.3755C3.47187 38.3755 3.21887 38.2864 3.02337 38.1024C2.61512 37.7172 2.57199 37.0962 2.94574 36.6793C2.95724 36.6649 3.00899 36.6103 3.02337 36.5988C3.42874 36.1934 4.08137 36.1934 4.48674 36.5988C4.89212 37.0042 4.89212 37.6568 4.48674 38.0622C4.28262 38.2692 4.00087 38.3755 3.72487 38.3755ZM47.1776 70.0063C46.9246 70.0063 46.6716 69.9172 46.4761 69.7332C46.0679 69.3479 46.0247 68.7269 46.3985 68.31C46.41 68.2957 46.4617 68.241 46.4761 68.2295C46.8815 67.8242 47.5341 67.8242 47.9395 68.2295C48.3449 68.6349 48.3449 69.2875 47.9395 69.6929C47.7325 69.8999 47.4536 70.0063 47.1776 70.0063ZM52.9477 68.9512C52.6947 68.9512 52.4417 68.862 52.2463 68.678C51.838 68.2928 51.7949 67.6718 52.1686 67.2549C52.1801 67.2405 52.2319 67.1859 52.2463 67.1744C52.6516 66.769 53.3042 66.769 53.7096 67.1744C54.115 67.5798 54.115 68.2324 53.7096 68.6378C53.5026 68.8448 53.2237 68.9512 52.9477 68.9512ZM62.6653 62.9137C62.4123 62.9137 62.1592 62.8245 61.9637 62.6405C61.5555 62.2553 61.5124 61.6343 61.8861 61.2174C61.8976 61.203 61.9494 61.1484 61.9637 61.1369C62.3691 60.7315 63.0218 60.7315 63.4271 61.1369C63.8325 61.5423 63.8325 62.1949 63.4271 62.6003C63.2201 62.8073 62.9412 62.9137 62.6653 62.9137ZM68.2571 52.8598C68.0041 52.8598 67.7511 52.7707 67.5556 52.5867C67.1474 52.2014 67.1042 51.5804 67.478 51.1635C67.4895 51.1492 67.5412 51.0945 67.5556 51.083C67.961 50.6777 68.6136 50.6777 69.019 51.083C69.4244 51.4884 69.4244 52.141 69.019 52.5464C68.8149 52.7534 68.536 52.8598 68.2571 52.8598ZM18.327 13.9582C18.0424 13.9582 17.7606 13.8374 17.5536 13.6045C17.1712 13.1819 17.2259 12.512 17.6514 12.1297C17.6772 12.1067 17.7491 12.0463 17.7779 12.0262C18.2407 11.6898 18.8876 11.7933 19.224 12.2533C19.5604 12.7162 19.4597 13.363 18.9969 13.6994C18.8042 13.8748 18.5656 13.9582 18.327 13.9582ZM28.1739 7.73953C27.7714 7.73953 27.3832 7.51528 27.2136 7.1329C26.9922 6.6269 27.1791 6.04615 27.6707 5.80178C27.6995 5.7874 27.7829 5.74715 27.8145 5.73853C28.3492 5.5344 28.9472 5.7989 29.1514 6.33365C29.3555 6.8684 29.091 7.4664 28.5562 7.67053C28.4355 7.71653 28.3032 7.73953 28.1739 7.73953ZM23.0794 10.4737C22.6769 10.4737 22.2887 10.2494 22.1191 9.86703C21.8949 9.36103 22.0817 8.78028 22.5762 8.5359C22.605 8.52153 22.6884 8.48128 22.72 8.47265C23.2547 8.26853 23.8527 8.53303 24.0569 9.06778C24.261 9.60253 23.9965 10.2005 23.4617 10.4047C23.3381 10.4507 23.2087 10.4737 23.0794 10.4737ZM33.6076 5.70115C33.162 5.70115 32.7365 5.42228 32.5985 4.97953C32.4289 4.43328 32.7106 3.86115 33.2569 3.6944L33.3115 3.67715C33.8491 3.5104 34.4356 3.81515 34.6052 4.3614C34.772 4.90765 34.4672 5.4884 33.921 5.65515C33.8175 5.68678 33.714 5.70115 33.6076 5.70115ZM41.5254 69.5865C41.4707 69.5865 41.419 69.5808 41.3644 69.5722C41.3212 69.5664 41.2235 69.5463 41.1804 69.5319C40.6312 69.3767 40.3121 68.8017 40.4702 68.2554C40.6255 67.7063 41.1947 67.3814 41.7496 67.5453C42.3131 67.6287 42.6667 68.1519 42.5805 68.7154C42.5 69.2272 42.0314 69.5865 41.5254 69.5865ZM58.1975 66.5304C57.8467 66.5304 57.5046 66.3522 57.3091 66.0273C57.013 65.5357 57.174 64.9003 57.6627 64.607C58.14 64.3138 58.7926 64.4489 59.0945 64.9233C59.3935 65.4005 59.2842 66.0129 58.8156 66.3234C58.8041 66.332 58.7437 66.3723 58.7294 66.3809C58.5626 66.4815 58.3815 66.5304 58.1975 66.5304ZM66.1095 58.1987C65.9111 58.1987 65.7099 58.1412 65.5374 58.0233C65.0601 57.707 64.9307 57.063 65.247 56.5887C65.5029 56.0712 66.1181 55.9073 66.6184 56.1545C67.1301 56.4133 67.3199 57.063 67.064 57.5748C67.0439 57.615 66.995 57.7013 66.972 57.7358C66.7736 58.0377 66.443 58.1987 66.1095 58.1987ZM69.0046 47.0782C68.4325 47.0782 67.9696 46.6153 67.9696 46.0432C67.9696 45.471 68.4325 44.9794 69.0046 44.9794C69.5768 44.9794 70.0396 45.4135 70.0396 45.9857V46.0432C70.0396 46.6153 69.5768 47.0782 69.0046 47.0782Z" fill="black" stroke="black" stroke-width="3"/>
</svg>
