<svg width="115" height="115" viewBox="0 0 115 115" fill="none" xmlns="http://www.w3.org/2000/svg">
<g filter="url(#filter0_d_85_266)">
<rect x="20.054" y="12.1961" width="74.5735" height="74.5735" rx="24" fill="url(#paint0_linear_85_266)"/>
</g>
<path fill-rule="evenodd" clip-rule="evenodd" d="M57.5592 50.33C60.5462 50.33 62.9676 47.9086 62.9676 44.9217C62.9676 41.9347 60.5462 39.5133 57.5592 39.5133C54.5723 39.5133 52.1509 41.9347 52.1509 44.9217C52.1509 47.9086 54.5723 50.33 57.5592 50.33Z" fill="white"/>
<path fill-rule="evenodd" clip-rule="evenodd" d="M62.2531 49.7247C61.0371 50.8842 59.3818 51.5975 57.5581 51.5975C55.7344 51.5975 54.0791 50.8842 52.8631 49.7247C52.6537 49.6728 52.4443 49.6215 52.2409 49.5956C52.0376 49.5696 51.8408 49.5696 51.6574 49.598C51.4745 49.6258 51.3056 49.6825 51.1082 49.7531C50.9109 49.8231 50.6858 49.9076 50.404 50.0766C50.1228 50.2456 49.7842 50.4991 49.4608 50.9222C49.1367 51.3441 48.8271 51.9361 48.5453 52.6405C48.2635 53.3442 48.01 54.1614 47.8694 54.9502C47.7288 55.7385 47.7004 56.4995 47.6866 57.0765C47.6721 57.6541 47.6721 58.0488 47.7288 58.4291C47.7849 58.8093 47.8972 59.1751 48.1512 59.5414C48.4047 59.9078 48.7988 60.2741 49.2634 60.5554C49.7281 60.8372 50.2634 61.0346 50.996 61.133C51.728 61.2313 52.6573 61.2313 53.784 61.2313H57.0512H57.5581H58.065H61.3322C62.4589 61.2313 63.3882 61.2313 64.1202 61.133C64.8528 61.0346 65.3881 60.8372 65.8528 60.5554C66.3175 60.2741 66.7115 59.9078 66.965 59.5414C67.219 59.1751 67.3313 58.8093 67.3874 58.4291C67.4441 58.0488 67.4441 57.6541 67.4297 57.0765C67.4158 56.4995 67.3874 55.7385 67.2468 54.9502C67.1062 54.1614 66.8527 53.3442 66.5709 52.6405C66.2891 51.9361 65.9795 51.3441 65.6555 50.9222C65.332 50.4991 64.9934 50.2456 64.7122 50.0766C64.4304 49.9076 64.2053 49.8231 64.008 49.7531C63.8106 49.6825 63.6417 49.6258 63.4588 49.598C63.2754 49.5696 63.0786 49.5696 62.8753 49.5956C62.6719 49.6215 62.4625 49.6728 62.2531 49.7247Z" fill="white"/>
<path fill-rule="evenodd" clip-rule="evenodd" d="M63.3212 47.587C64.2824 48.4646 65.5622 49.0005 66.9663 49.0005C69.9525 49.0005 72.3733 46.5791 72.3733 43.5921C72.3733 40.6052 69.9525 38.1838 66.9663 38.1838C65.0487 38.1838 63.3634 39.1826 62.4041 40.6885C63.4865 41.6771 64.166 43.1015 64.166 44.6834C64.166 45.7516 63.8558 46.7487 63.3212 47.587Z" fill="white"/>
<path fill-rule="evenodd" clip-rule="evenodd" d="M51.3601 47.587C50.3989 48.4646 49.1191 49.0005 47.715 49.0005C44.7288 49.0005 42.3079 46.5791 42.3079 43.5921C42.3079 40.6052 44.7288 38.1838 47.715 38.1838C49.6325 38.1838 51.3178 39.1826 52.2772 40.6885C51.1947 41.6771 50.5153 43.1015 50.5153 44.6834C50.5153 45.7516 50.8255 46.7487 51.3601 47.587Z" fill="white"/>
<path fill-rule="evenodd" clip-rule="evenodd" d="M71.3623 48.595C70.1821 49.7194 68.5889 50.4249 66.8291 50.466L67.0235 50.6989C67.3477 51.1208 67.6574 51.7129 67.9393 52.4172C68.2212 53.121 68.4748 53.9382 68.6155 54.727C68.7561 55.5152 68.7845 56.2763 68.7984 56.8533C68.8129 57.4309 68.8129 57.8256 68.7561 58.2058C68.7 58.5861 68.5877 58.9518 68.3335 59.3182C68.1446 59.591 67.8777 59.8644 67.562 60.1016H70.441C71.5681 60.1016 72.4978 60.1016 73.2301 60.0032C73.963 59.9048 74.4985 59.7075 74.9634 59.4256C75.4282 59.1444 75.8224 58.778 76.076 58.4117C76.3301 58.0453 76.4424 57.6796 76.4986 57.2993C76.5553 56.9191 76.5553 56.5244 76.5408 55.9468C76.5269 55.3698 76.4986 54.6087 76.3579 53.8205C76.2172 53.0316 75.9637 52.2144 75.6818 51.5107C75.3998 50.8064 75.0901 50.2143 74.766 49.7924C74.4424 49.3693 74.1037 49.1158 73.8224 48.9469C73.5404 48.7779 73.3153 48.6934 73.1178 48.6234C72.9204 48.5527 72.7514 48.496 72.5685 48.4682C72.385 48.4399 72.1881 48.4399 71.9847 48.4658C71.7813 48.4918 71.5718 48.5431 71.3623 48.595Z" fill="white"/>
<path fill-rule="evenodd" clip-rule="evenodd" d="M43.3189 48.595C44.4991 49.7194 46.0923 50.4249 47.8521 50.466L47.6577 50.6989C47.3335 51.1208 47.0238 51.7129 46.7418 52.4172C46.4599 53.121 46.2064 53.9382 46.0657 54.727C45.925 55.5152 45.8967 56.2763 45.8828 56.8533C45.8683 57.4309 45.8683 57.8256 45.925 58.2058C45.9812 58.5861 46.0935 58.9518 46.3476 59.3182C46.5366 59.591 46.8034 59.8644 47.1192 60.1016H44.2401C43.113 60.1016 42.1833 60.1016 41.451 60.0032C40.7181 59.9048 40.1826 59.7075 39.7178 59.4256C39.2529 59.1444 38.8587 58.778 38.6052 58.4117C38.351 58.0453 38.2387 57.6796 38.1826 57.2993C38.1258 56.9191 38.1258 56.5244 38.1403 55.9468C38.1542 55.3698 38.1826 54.6087 38.3232 53.8205C38.4639 53.0316 38.7175 52.2144 38.9994 51.5107C39.2813 50.8064 39.591 50.2143 39.9152 49.7924C40.2388 49.3693 40.5775 49.1158 40.8588 48.9469C41.1407 48.7779 41.3659 48.6934 41.5633 48.6234C41.7607 48.5527 41.9297 48.496 42.1127 48.4682C42.2962 48.4399 42.493 48.4399 42.6964 48.4658C42.8999 48.4918 43.1094 48.5431 43.3189 48.595Z" fill="white"/>
<defs>
<filter id="filter0_d_85_266" x="0.0539551" y="0.196106" width="114.573" height="114.574" filterUnits="userSpaceOnUse" color-interpolation-filters="sRGB">
<feFlood flood-opacity="0" result="BackgroundImageFix"/>
<feColorMatrix in="SourceAlpha" type="matrix" values="0 0 0 0 0 0 0 0 0 0 0 0 0 0 0 0 0 0 127 0" result="hardAlpha"/>
<feMorphology radius="2" operator="erode" in="SourceAlpha" result="effect1_dropShadow_85_266"/>
<feOffset dy="8"/>
<feGaussianBlur stdDeviation="11"/>
<feColorMatrix type="matrix" values="0 0 0 0 0.971137 0 0 0 0 0.341921 0 0 0 0 0.36709 0 0 0 0.3 0"/>
<feBlend mode="normal" in2="BackgroundImageFix" result="effect1_dropShadow_85_266"/>
<feBlend mode="normal" in="SourceGraphic" in2="effect1_dropShadow_85_266" result="shape"/>
</filter>
<linearGradient id="paint0_linear_85_266" x1="35.3076" y1="12.1961" x2="70.8995" y2="86.7696" gradientUnits="userSpaceOnUse">
<stop stop-color="#FF858A"/>
<stop offset="1" stop-color="#F04148"/>
</linearGradient>
</defs>
</svg>
