<svg width="115" height="115" viewBox="0 0 115 115" fill="none" xmlns="http://www.w3.org/2000/svg">
<g filter="url(#filter0_d_85_239)">
<rect x="20" y="10" width="74.5735" height="74.5735" rx="24" fill="url(#paint0_linear_85_239)"/>
</g>
<path fill-rule="evenodd" clip-rule="evenodd" d="M50.7542 47.8268C54.7287 47.8268 57.9508 44.6048 57.9508 40.6302C57.9508 36.6556 54.7287 33.4335 50.7542 33.4335C46.7796 33.4335 43.5575 36.6556 43.5575 40.6302C43.5575 44.6048 46.7796 47.8268 50.7542 47.8268Z" fill="white"/>
<path fill-rule="evenodd" clip-rule="evenodd" d="M57.0015 47.0212C55.3835 48.564 53.1808 49.5133 50.7541 49.5133C48.3275 49.5133 46.1248 48.564 44.5068 47.0212C44.2281 46.9522 43.9495 46.8839 43.6788 46.8494C43.4082 46.8148 43.1465 46.8148 42.9023 46.8526C42.659 46.8895 42.4342 46.965 42.1716 47.059C41.909 47.1521 41.6095 47.2646 41.2345 47.4894C40.8603 47.7143 40.4098 48.0516 39.9794 48.6146C39.5482 49.176 39.1362 49.9638 38.7612 50.901C38.3862 51.8375 38.049 52.9249 37.8619 53.9745C37.6748 55.0234 37.637 56.0361 37.6186 56.8039C37.5993 57.5725 37.5993 58.0977 37.6748 58.6037C37.7494 59.1096 37.8988 59.5963 38.2369 60.0838C38.5741 60.5713 39.0985 61.0588 39.7168 61.433C40.3351 61.8081 41.0474 62.0707 42.0222 62.2016C42.9963 62.3325 44.2329 62.3325 45.7321 62.3325H50.0796H50.7541H51.4287H55.7762C57.2754 62.3325 58.512 62.3325 59.486 62.2016C60.4609 62.0707 61.1732 61.8081 61.7915 61.433C62.4098 61.0588 62.9342 60.5713 63.2714 60.0838C63.6095 59.5963 63.7588 59.1096 63.8335 58.6037C63.909 58.0977 63.909 57.5725 63.8897 56.8039C63.8713 56.0361 63.8335 55.0234 63.6464 53.9745C63.4593 52.9249 63.1221 51.8375 62.7471 50.901C62.3721 49.9638 61.9601 49.176 61.5289 48.6146C61.0985 48.0516 60.648 47.7143 60.2738 47.4894C59.8988 47.2646 59.5993 47.1521 59.3367 47.059C59.0741 46.965 58.8493 46.8895 58.6059 46.8526C58.3618 46.8148 58.1001 46.8148 57.8294 46.8494C57.5588 46.8839 57.2802 46.9522 57.0015 47.0212Z" fill="white"/>
<path fill-rule="evenodd" clip-rule="evenodd" d="M58.425 44.1766C59.704 45.3443 61.407 46.0575 63.2754 46.0575C67.249 46.0575 70.4702 42.8354 70.4702 38.8608C70.4702 34.8863 67.249 31.6642 63.2754 31.6642C60.7237 31.6642 58.4812 32.9933 57.2046 34.9971C58.645 36.3126 59.5491 38.2079 59.5491 40.3129C59.5491 41.7344 59.1364 43.0611 58.425 44.1766Z" fill="white"/>
<path fill-rule="evenodd" clip-rule="evenodd" d="M69.1245 45.5178C67.554 47.0139 65.4341 47.9528 63.0924 48.0074L63.3511 48.3174C63.7825 48.8788 64.1946 49.6666 64.5697 50.6038C64.9449 51.5403 65.2822 52.6277 65.4694 53.6773C65.6566 54.7262 65.6943 55.7389 65.7128 56.5067C65.7321 57.2753 65.7321 57.8005 65.6566 58.3064C65.5819 58.8124 65.4325 59.2991 65.0943 59.7866C64.8428 60.1496 64.4878 60.5134 64.0676 60.829H67.8986C69.3984 60.829 70.6355 60.829 71.61 60.6981C72.5852 60.5672 73.2977 60.3046 73.9163 59.9295C74.5348 59.5553 75.0594 59.0678 75.3968 58.5803C75.735 58.0928 75.8844 57.6061 75.9591 57.1002C76.0346 56.5942 76.0346 56.069 76.0153 55.3004C75.9969 54.5326 75.9591 53.5199 75.7719 52.4711C75.5848 51.4214 75.2474 50.334 74.8722 49.3976C74.4971 48.4603 74.085 47.6725 73.6536 47.1111C73.223 46.5481 72.7724 46.2108 72.398 45.986C72.0229 45.7611 71.7232 45.6487 71.4605 45.5555C71.1979 45.4615 70.9729 45.386 70.7295 45.3491C70.4853 45.3114 70.2234 45.3114 69.9527 45.3459C69.682 45.3804 69.4032 45.4487 69.1245 45.5178Z" fill="white"/>
<defs>
<filter id="filter0_d_85_239" x="0" y="0" width="114.573" height="114.574" filterUnits="userSpaceOnUse" color-interpolation-filters="sRGB">
<feFlood flood-opacity="0" result="BackgroundImageFix"/>
<feColorMatrix in="SourceAlpha" type="matrix" values="0 0 0 0 0 0 0 0 0 0 0 0 0 0 0 0 0 0 127 0" result="hardAlpha"/>
<feMorphology radius="2" operator="erode" in="SourceAlpha" result="effect1_dropShadow_85_239"/>
<feOffset dy="10"/>
<feGaussianBlur stdDeviation="11"/>
<feColorMatrix type="matrix" values="0 0 0 0 0.427083 0 0 0 0 0.671455 0 0 0 0 1 0 0 0 0.36 0"/>
<feBlend mode="normal" in2="BackgroundImageFix" result="effect1_dropShadow_85_239"/>
<feBlend mode="normal" in="SourceGraphic" in2="effect1_dropShadow_85_239" result="shape"/>
</filter>
<linearGradient id="paint0_linear_85_239" x1="35.2537" y1="10" x2="70.8456" y2="84.5735" gradientUnits="userSpaceOnUse">
<stop stop-color="#2068D9"/>
<stop offset="1" stop-color="#56A444"/>
</linearGradient>
</defs>
</svg>
