<svg width="498" height="289" viewBox="0 0 498 289" fill="none" xmlns="http://www.w3.org/2000/svg">
<path d="M471.37 174.122C453.784 219.711 420.719 259.652 374.793 277.205C368.819 279.484 362.72 281.418 356.525 282.996C323.758 291.36 287.912 288.451 257.707 273.211C244.887 266.737 233.197 258.183 220.332 251.803C207.466 245.422 192.773 241.246 178.77 244.396C166.712 247.108 156.54 254.879 146.297 261.802C122.152 278.123 93.119 291.039 64.5276 285.433C51.3714 282.857 38.4163 275.721 32.3064 263.793C18.802 237.423 44.2709 206.07 39.1129 176.907C35.8122 158.242 20.7367 144.265 11.3649 127.792C-4.67404 99.6168 -2.778 62.1902 16.0276 35.7888C34.8332 9.38755 69.5501 -4.61694 101.38 1.37224C140.195 8.67861 169.541 41.565 207.284 53.2025C230.887 60.474 256.515 58.3046 279.058 48.728C315.482 33.2514 365.522 9.51539 406.51 13.3816C428.307 15.4387 449.686 25.1237 464.073 41.6619C482.259 62.5388 487.711 92.1788 484.677 119.707C482.596 138.342 478.123 156.631 471.37 174.122Z" fill="url(#paint0_linear_86_1501)"/>
<path d="M483.072 210.181C482.263 210.179 481.458 210.082 480.673 209.89C478.188 209.279 476.033 207.741 474.644 205.592C473.255 203.443 472.736 200.844 473.197 198.325C473.653 195.806 475.058 193.558 477.117 192.04C479.175 190.522 481.737 189.847 484.275 190.155C486.813 190.462 489.139 191.728 490.776 193.695C492.416 195.661 493.241 198.179 493.09 200.734C492.935 203.29 491.813 205.691 489.952 207.446C488.09 209.202 485.629 210.18 483.072 210.181ZM483.072 194.615C481.741 194.62 480.46 195.112 479.465 195.998C478.471 196.884 477.836 198.103 477.678 199.425C477.523 200.748 477.852 202.082 478.61 203.178C479.365 204.273 480.495 205.054 481.787 205.373C482.534 205.553 483.312 205.572 484.07 205.43C484.825 205.287 485.54 204.986 486.171 204.547C486.802 204.107 487.336 203.538 487.731 202.878C488.125 202.218 488.381 201.481 488.47 200.717C488.562 199.952 488.489 199.177 488.261 198.442C488.032 197.707 487.649 197.029 487.139 196.453C486.628 195.876 486.005 195.414 485.301 195.098C484.6 194.781 483.842 194.616 483.072 194.615Z" fill="#E7F6FF"/>
<path d="M473.912 220.838C474.481 218.482 473.038 216.11 470.685 215.538C468.329 214.967 465.961 216.414 465.388 218.769C464.819 221.125 466.263 223.498 468.619 224.069C470.972 224.641 473.34 223.194 473.912 220.838Z" fill="#E7F6FF"/>
<path d="M21.3563 209.224C18.6986 209.166 16.171 208.061 14.3223 206.148C12.4736 204.235 11.453 201.67 11.482 199.009C11.5111 196.347 12.5874 193.805 14.4774 191.933C16.3674 190.062 18.9185 189.012 21.5769 189.012C24.2353 189.012 26.7864 190.062 28.6763 191.933C30.5663 193.805 31.6427 196.347 31.6717 199.009C31.7008 201.67 30.6802 204.235 28.8314 206.148C26.9828 208.061 24.4552 209.166 21.7975 209.224H21.3563ZM21.3563 193.662H21.128C19.6926 193.693 18.3274 194.29 17.3288 195.322C16.3301 196.355 15.7787 197.741 15.7943 199.178C15.8098 200.615 16.391 201.989 17.4118 203C18.4325 204.011 19.8103 204.577 21.2461 204.577C22.6818 204.577 24.0596 204.011 25.0803 203C26.101 201.989 26.6823 200.615 26.6978 199.178C26.7133 197.741 26.1619 196.355 25.1634 195.322C24.1647 194.29 22.7995 193.693 21.3641 193.662H21.3563Z" fill="#E7F6FF"/>
<path d="M14.1581 226.185C16.5771 226.081 18.4535 224.032 18.3492 221.611C18.2448 219.189 16.1992 217.31 13.7802 217.415C11.3612 217.519 9.48479 219.567 9.58911 221.989C9.69347 224.411 11.7391 226.289 14.1581 226.185Z" fill="#E7F6FF"/>
<path d="M274.376 45.8147C271.967 45.8166 269.637 44.9554 267.807 43.3865C265.977 41.8175 264.769 39.6446 264.401 37.2609C264.033 34.8774 264.53 32.4407 265.801 30.3919C267.072 28.3432 269.034 26.8177 271.331 26.0916C273.628 25.3655 276.11 25.4869 278.325 26.4336C280.541 27.3804 282.345 29.09 283.41 31.253C284.476 33.4161 284.733 35.8896 284.135 38.2259C283.537 40.5623 282.123 42.607 280.149 43.99C278.457 45.1755 276.442 45.8124 274.376 45.8147ZM274.345 30.2566C272.935 30.2551 271.58 30.7984 270.56 31.773C269.541 32.7477 268.937 34.0786 268.873 35.4884C268.81 36.8981 269.293 38.278 270.22 39.3405C271.148 40.4027 272.45 41.0656 273.854 41.1907C275.258 41.3158 276.656 40.8936 277.757 40.0122C278.857 39.1309 279.576 37.8582 279.762 36.4594C279.949 35.0606 279.589 33.6437 278.758 32.504C277.927 31.3643 276.688 30.5898 275.3 30.3418C274.985 30.2855 274.665 30.257 274.345 30.2566Z" fill="#E7F6FF"/>
<path d="M253.792 45.2624C255.775 43.8705 256.255 41.1335 254.865 39.1484C253.474 37.1639 250.74 36.6832 248.758 38.075C246.776 39.4669 246.295 42.2039 247.686 44.1889C249.076 46.1735 251.81 46.6543 253.792 45.2624Z" fill="#E7F6FF"/>
<path d="M497.613 97.8813C497.613 93.6214 495.922 89.5359 492.916 86.5239C489.905 83.5118 485.827 81.8197 481.57 81.8197C481.214 81.8197 480.862 81.8197 480.514 81.8545C480.537 81.5059 480.549 81.1533 480.549 80.7969C480.549 78.514 480.061 76.2578 479.121 74.1778C478.181 72.0983 476.811 70.243 475.097 68.736C473.383 67.2287 471.37 66.1044 469.188 65.4381C467.01 64.7718 464.711 64.5785 462.451 64.8709C460.188 65.1634 458.017 65.9351 456.075 67.1349C454.136 68.3343 452.472 69.9343 451.199 71.8279C449.926 73.7211 449.071 75.8646 448.688 78.1154C448.309 80.3662 448.409 82.6723 448.989 84.8801C447.051 83.4723 444.822 82.517 442.466 82.0843C440.109 81.6519 437.687 81.7527 435.377 82.3799C433.063 83.0071 430.923 84.1445 429.104 85.7088C427.29 87.2727 425.846 89.224 424.883 91.4194C423.919 93.6144 423.459 95.9981 423.536 98.3946C423.614 100.791 424.225 103.141 425.324 105.27C426.427 107.399 427.99 109.254 429.901 110.7C431.813 112.145 434.022 113.143 436.371 113.621C437.331 116.166 438.917 118.425 440.987 120.187C443.054 121.949 445.534 123.157 448.196 123.696C450.858 124.236 453.614 124.09 456.206 123.273C458.795 122.455 461.136 120.992 463.009 119.022C464.924 120.469 467.137 121.467 469.49 121.944C471.843 122.421 474.269 122.363 476.594 121.776C478.924 121.189 481.087 120.087 482.932 118.551C484.778 117.015 486.252 115.084 487.255 112.901C490.3 111.745 492.92 109.69 494.769 107.007C496.623 104.324 497.613 101.141 497.613 97.8813Z" fill="white"/>
<path d="M74.0809 59.2732C74.0832 57.163 73.6696 55.073 72.8647 53.1228C72.0595 51.1726 70.8785 49.4003 69.3892 47.9072C67.8994 46.4142 66.1307 45.2295 64.1836 44.421C62.2368 43.6129 60.1497 43.1965 58.042 43.1961C57.686 43.1961 57.3338 43.1961 56.9856 43.2309C57.0088 42.8823 57.0204 42.5298 57.0204 42.1733C57.02 39.8904 56.5336 37.6339 55.5934 35.5542C54.6535 33.4744 53.2814 31.6192 51.5687 30.1122C49.8561 28.6051 47.842 27.481 45.6612 26.8145C43.4804 26.148 41.1831 25.9546 38.9218 26.2472C36.6603 26.5398 34.4872 27.3116 32.5473 28.5112C30.6074 29.7108 28.9451 31.3106 27.6714 33.204C26.3977 35.0975 25.5417 37.2409 25.1606 39.4918C24.7795 41.7422 24.882 44.0484 25.4612 46.2565C23.5222 44.8487 21.2931 43.8934 18.9373 43.4607C16.5815 43.028 14.1588 43.1291 11.8471 43.7563C9.53529 44.3835 7.39315 45.5209 5.57775 47.0848C3.76241 48.6491 2.31991 50.6004 1.35613 52.7958C0.39236 54.9908 -0.0682306 57.3745 0.00816333 59.771C0.0845571 62.1678 0.695997 64.517 1.79761 66.6461C2.89922 68.7753 4.46304 70.6306 6.37432 72.0759C8.28564 73.5209 10.4959 74.5193 12.8429 74.9977C13.802 77.5398 15.3897 79.7968 17.4574 81.5572C19.525 83.3175 22.005 84.5242 24.6652 85.0635C27.3255 85.6031 30.079 85.4583 32.668 84.642C35.257 83.8261 37.5969 82.366 39.4685 80.398C41.3835 81.845 43.5984 82.8437 45.9499 83.3206C48.3014 83.7971 50.7298 83.7398 53.0562 83.1525C55.3825 82.5652 57.5478 81.463 59.3924 79.927C61.237 78.3909 62.7139 76.4601 63.7146 74.2771C66.7583 73.1235 69.3799 71.0706 71.2314 68.391C73.0829 65.7113 74.0766 62.5312 74.0809 59.2732Z" fill="white"/>
<path d="M369.217 287.812H138.403V282.775H369.217C369.884 282.775 370.523 283.041 370.995 283.513C371.467 283.985 371.732 284.626 371.732 285.293C371.732 285.961 371.467 286.602 370.995 287.074C370.523 287.546 369.884 287.812 369.217 287.812Z" fill="#426572"/>
<path d="M128.08 287.812H113.968C113.301 287.812 112.661 287.546 112.189 287.074C111.718 286.602 111.453 285.961 111.453 285.293C111.453 284.626 111.718 283.985 112.189 283.513C112.661 283.041 113.301 282.775 113.968 282.775H128.08C128.747 282.775 129.386 283.041 129.858 283.513C130.33 283.985 130.595 284.626 130.595 285.293C130.595 285.961 130.33 286.602 129.858 287.074C129.386 287.546 128.747 287.812 128.08 287.812Z" fill="#426572"/>
<path d="M104.809 287.812H100.313C99.6457 287.812 99.006 287.546 98.5344 287.074C98.0627 286.602 97.7976 285.961 97.7976 285.293C97.7976 284.626 98.0627 283.985 98.5344 283.513C99.006 283.041 99.6457 282.775 100.313 282.775H104.809C105.476 282.775 106.116 283.041 106.587 283.513C107.059 283.985 107.324 284.626 107.324 285.293C107.324 285.961 107.059 286.602 106.587 287.074C106.116 287.546 105.476 287.812 104.809 287.812Z" fill="#426572"/>
<path d="M450.15 287.812H379.208V282.775H450.15C450.816 282.775 451.458 283.041 451.93 283.513C452.402 283.985 452.665 284.626 452.665 285.293C452.665 285.961 452.402 286.602 451.93 287.074C451.458 287.546 450.816 287.812 450.15 287.812Z" fill="#426572"/>
<path d="M87.4492 287.812H16.5027V282.775H87.4492C88.1163 282.775 88.7563 283.041 89.2279 283.513C89.6996 283.985 89.9643 284.626 89.9643 285.293C89.9643 285.961 89.6996 286.602 89.2279 287.074C88.7563 287.546 88.1163 287.812 87.4492 287.812Z" fill="#426572"/>
<path d="M109.932 91.2568H368.342C373.006 91.2568 377.479 93.1109 380.778 96.412C384.076 99.7134 385.931 104.191 385.933 108.86V276.318H92.3413V108.86C92.3432 104.191 94.1975 99.7134 97.4962 96.412C100.795 93.1109 105.268 91.2568 109.932 91.2568Z" fill="#EBF0F9"/>
<path d="M375.729 104.099H103.709V259.679H375.729V104.099Z" fill="#637F91"/>
<path d="M101.671 259.388H376.886C376.886 260.623 376.398 261.808 375.528 262.683C374.658 263.559 373.477 264.054 372.243 264.06H106.334C105.096 264.06 103.909 263.568 103.034 262.692C102.159 261.816 101.667 260.627 101.667 259.388H101.671Z" fill="white"/>
<g opacity="0.5">
<path opacity="0.5" d="M184.996 103.518L144.324 260.554H123.843L164.514 103.518H184.996Z" fill="#A7BCD5"/>
<path opacity="0.5" d="M237.199 103.518L196.531 260.554H153.58L194.252 103.518H237.199Z" fill="#A7BCD5"/>
</g>
<path d="M388.254 278.642H90.0195V101.352C90.0234 98.0595 91.3317 94.903 93.6572 92.5743C95.9831 90.246 99.136 88.9362 102.425 88.9324H375.849C379.138 88.9362 382.291 90.246 384.617 92.5743C386.942 94.903 388.25 98.0595 388.254 101.352V278.642ZM94.6629 273.993H383.611V101.352C383.609 99.2918 382.791 97.3165 381.335 95.8595C379.88 94.4025 377.907 93.5831 375.849 93.5812H102.425C100.367 93.5831 98.3938 94.4025 96.9385 95.8595C95.4832 97.3165 94.6648 99.2918 94.6629 101.352V273.993Z" fill="#426572"/>
<path d="M55.3137 270.774H430.834V272.01C430.834 276.016 429.244 279.859 426.415 282.693C423.583 285.526 419.744 287.118 415.743 287.118H70.4046C66.4024 287.118 62.5639 285.526 59.7338 282.693C56.9037 279.859 55.3137 276.016 55.3137 272.01V270.774Z" fill="#EBF0F9"/>
<path opacity="0.5" d="M428.911 278.654C428.087 280.802 426.628 282.651 424.732 283.954C422.836 285.257 420.588 285.953 418.289 285.952H65.5182C63.2194 285.952 60.9747 285.254 59.0798 283.952C57.1853 282.648 55.7293 280.801 54.9043 278.654H428.911Z" fill="#A7BCD5"/>
<path d="M413.99 288.858H68.656C64.0393 288.853 59.6134 287.014 56.3492 283.746C53.0845 280.478 51.2484 276.047 51.2434 271.425V267.865H431.407V271.425C431.403 276.047 429.565 280.479 426.299 283.748C423.033 287.016 418.606 288.853 413.99 288.858ZM55.9293 272.513C56.2017 275.704 57.6598 278.676 60.0159 280.842C62.3716 283.007 65.4536 284.209 68.6521 284.209H413.99C417.19 284.209 420.27 283.007 422.627 280.842C424.983 278.676 426.442 275.704 426.713 272.513H55.9293Z" fill="#426572"/>
<path d="M377.466 261.128H100.8V101.775H377.466V261.128ZM105.443 256.479H372.823V106.423H105.443V256.479Z" fill="#426572"/>
<path d="M334.148 54.1555V258.803H148.719V54.1555C148.726 53.2328 149.095 52.3503 149.747 51.6979C150.398 51.0455 151.28 50.6759 152.202 50.6689H330.65C330.86 50.6689 331.07 50.6883 331.276 50.7271C332.078 50.8754 332.803 51.2989 333.327 51.9245C333.851 52.5502 334.141 53.3389 334.148 54.1555Z" fill="white"/>
<path d="M151.637 67.5827H334.733V55.2711L331.231 50.6533H170.88H155.135L149.304 55.2711V67.5827H151.637Z" fill="#E2F2FF"/>
<path d="M337.054 261.128H146.982V54.1555C146.988 52.6159 147.602 51.1415 148.689 50.0529C149.776 48.9647 151.249 48.3503 152.787 48.3445H331.227C332.764 48.3503 334.237 48.9647 335.324 50.0529C336.411 51.1415 337.025 52.6159 337.031 54.1555L337.054 261.128ZM151.626 256.479H332.411V54.1555C332.403 53.8494 332.278 53.5585 332.062 53.3423C331.846 53.1258 331.555 53.001 331.25 52.9933H152.802C152.496 53.001 152.206 53.1258 151.99 53.3423C151.774 53.5585 151.649 53.8494 151.641 54.1555L151.626 256.479Z" fill="#426572"/>
<path d="M323.325 57.8281H160.212C158.923 57.8281 157.879 58.8737 157.879 60.1641C157.879 61.4542 158.923 62.5002 160.212 62.5002H323.325C324.614 62.5002 325.659 61.4542 325.659 60.1641C325.659 58.8737 324.614 57.8281 323.325 57.8281Z" fill="#CADCE8"/>
<path d="M209.768 89.5056H171.643V132.999H209.768V89.5056Z" fill="#E8837E"/>
<path d="M303.768 89.5056H213.366V132.999H303.768V89.5056Z" fill="#E8837E"/>
<path d="M303.768 137.814H261.084V181.308H303.768V137.814Z" fill="#DDE4ED"/>
<path d="M257.486 137.814H172.122V181.308H257.486V137.814Z" fill="#DDE4ED"/>
<path d="M304.008 186.123H172.122V229.616H304.008V186.123Z" fill="#DDE4ED"/>
<path d="M305.173 235.462H271.354V240.111H305.173V235.462Z" fill="#DDE4ED"/>
<path d="M120.426 247.72H65.0696C64.1584 247.726 63.2599 247.502 62.4577 247.069C61.2969 246.434 60.554 245.391 60.554 244.218L60.5849 168.032C60.5857 167.533 60.7192 167.043 60.9719 166.614C61.6761 165.39 63.2664 164.53 65.1006 164.53H120.457C122.392 164.53 124.021 165.467 124.671 166.776C124.868 167.164 124.971 167.593 124.973 168.028L124.946 244.218C124.946 245.976 123.247 247.445 121.053 247.685C120.845 247.708 120.635 247.72 120.426 247.72Z" fill="white"/>
<path d="M121.931 247.135L66.5555 247.123C65.6442 247.129 64.7457 246.906 63.9436 246.472C62.7827 245.837 62.0398 244.795 62.0398 243.621L62.0708 167.435C62.0715 166.936 62.205 166.447 62.4577 166.017C63.1619 164.793 64.7523 163.933 66.5864 163.933H67.341L67.3294 238.949C67.3294 240.111 68.08 241.165 69.2331 241.8C70.0353 242.234 70.9338 242.457 71.845 242.451H126.451V243.613C126.451 245.372 124.752 246.84 122.558 247.08C122.35 247.11 122.141 247.128 121.931 247.135Z" fill="#D6DEE9"/>
<path d="M121.176 249.459H65.8157C64.5101 249.466 63.2243 249.142 62.0777 248.518C60.143 247.445 58.9822 245.616 58.9822 243.633L59.0131 167.447C59.0178 166.538 59.2619 165.646 59.7212 164.863C60.8821 162.868 63.2038 161.624 65.8543 161.624H121.211C123.92 161.624 126.338 162.961 127.437 165.037L127.746 165.514V165.73C127.946 166.283 128.049 166.866 128.048 167.454L128.017 243.64C128.017 246.561 125.452 249.064 122.054 249.416C121.763 249.447 121.469 249.461 121.176 249.459ZM65.8427 166.253C64.8019 166.253 63.9893 166.714 63.73 167.172C63.6793 167.249 63.6511 167.339 63.6488 167.431L63.6178 243.617C63.6178 243.873 63.9003 244.198 64.322 244.435C64.7817 244.678 65.2952 244.803 65.8157 244.799H121.172C121.294 244.799 121.415 244.793 121.536 244.779C122.697 244.655 123.37 244.005 123.37 243.617L123.401 167.431C123.401 167.385 123.393 167.339 123.378 167.296L123.161 166.962C122.626 166.479 121.923 166.224 121.203 166.253H65.8466H65.8427Z" fill="#426572"/>
<path d="M114.792 197.497H77.2505V202.146H114.792V197.497Z" fill="#426572"/>
<path d="M114.792 187.797H77.2505V192.445H114.792V187.797Z" fill="#426572"/>
<path d="M114.792 208.488H77.2505V213.137H114.792V208.488Z" fill="#426572"/>
<path opacity="0.2" d="M414.807 110.022C417.511 104.94 419.171 99.367 419.69 93.6319C420.208 87.8964 419.574 82.1157 417.825 76.6297C416.076 71.1441 413.247 66.0649 409.501 61.6916C405.76 57.3186 401.182 53.7402 396.036 51.1675C390.889 48.5948 385.281 47.08 379.541 46.7128C373.801 46.3455 368.046 47.1331 362.614 49.0287C357.183 50.9246 352.187 53.8905 347.919 57.751C343.651 61.6118 340.199 66.2889 337.766 71.5071C334.406 77.8237 332.669 84.8778 332.711 92.0339C332.753 99.1903 334.574 106.224 338.008 112.5C341.442 118.776 346.382 124.098 352.383 127.986C358.384 131.875 365.256 134.207 372.382 134.773C371.138 135.068 369.876 135.306 368.594 135.49C375.339 136.464 382.219 135.821 388.668 133.615C395.119 131.408 400.95 127.702 405.69 122.799C409.482 119.133 412.574 114.802 414.807 110.022Z" fill="#606060"/>
<path d="M370.989 124.705C394.774 124.705 414.056 105.4 414.056 81.5874C414.056 57.7743 394.774 38.4697 370.989 38.4697C347.204 38.4697 327.922 57.7743 327.922 81.5874C327.922 105.4 347.204 124.705 370.989 124.705Z" fill="#2068D9"/>
<path d="M412.001 84.6671C412.001 90.8488 410.67 96.9585 408.105 102.581C405.539 108.204 401.794 113.208 397.127 117.256C392.46 121.302 386.977 124.297 381.051 126.037C375.126 127.777 368.897 128.221 362.785 127.339C373.033 125.856 382.404 120.726 389.183 112.888C395.958 105.051 399.689 95.0316 399.689 84.6652C399.689 74.2983 395.958 64.2786 389.183 56.4416C382.404 48.6041 373.033 43.4741 362.785 41.9912C368.897 41.1083 375.128 41.5519 381.053 43.2917C386.977 45.0315 392.46 48.0269 397.131 52.0744C401.797 56.122 405.543 61.1272 408.109 66.7506C410.674 72.3741 412.005 78.4842 412.005 84.6671H412.001Z" fill="#A7E59C"/>
<path d="M369.963 129.079C360.986 129.079 352.21 126.413 344.746 121.42C337.282 116.427 331.465 109.33 328.029 101.027C324.594 92.723 323.695 83.5862 325.446 74.7713C327.198 65.9564 331.52 57.8594 337.868 51.5041C344.216 45.1492 352.304 40.8212 361.108 39.0678C369.912 37.3143 379.039 38.2143 387.333 41.6537C395.626 45.093 402.715 50.9176 407.702 58.3905C412.69 65.8631 415.352 74.6489 415.352 83.6366C415.337 95.6843 410.55 107.235 402.041 115.754C393.532 124.273 381.997 129.065 369.963 129.079ZM369.963 42.8473C361.904 42.8473 354.027 45.2399 347.326 49.7221C340.626 54.2047 335.403 60.5755 332.319 68.0294C329.235 75.4834 328.428 83.6858 330 91.5988C331.572 99.5118 335.453 106.781 341.151 112.485C346.85 118.191 354.11 122.076 362.014 123.65C369.918 125.224 378.11 124.416 385.555 121.328C393.002 118.241 399.364 113.012 403.841 106.304C408.318 99.5955 410.709 91.7084 410.709 83.6404C410.697 72.825 406.402 62.4555 398.76 54.8079C391.122 47.1598 380.766 42.8585 369.963 42.8473Z" fill="#426572"/>
<path d="M391.717 66.0061C390.789 65.4862 389.694 65.3468 388.664 65.6168C387.635 65.8872 386.751 66.5458 386.196 67.455L378.739 79.6581L366.825 99.1365L366.492 99.6827L352.737 88.6651L350.229 86.6584C348.585 85.3412 346.104 84.9267 344.522 86.6584C343.175 88.1266 342.761 90.9624 344.522 92.3725L362.209 106.536L364.716 108.543C365.757 109.379 366.748 109.836 368.106 109.654C368.713 109.58 369.295 109.366 369.806 109.03C370.317 108.694 370.745 108.245 371.055 107.717L378.511 95.5143L390.429 76.0398L393.18 71.5382C394.267 69.7329 393.617 67.0211 391.717 66.0061Z" fill="white"/>
<defs>
<linearGradient id="paint0_linear_86_1501" x1="0.511048" y1="143.8" x2="485.463" y2="143.8" gradientUnits="userSpaceOnUse">
<stop stop-color="#E5FFD3"/>
<stop offset="1" stop-color="#DBFBC7"/>
</linearGradient>
</defs>
</svg>
