<svg width="1002" height="927" viewBox="0 0 1002 927" fill="none" xmlns="http://www.w3.org/2000/svg">
<circle cx="568" cy="359" r="568" fill="#E2F0DC"/>
<path d="M357.835 479.121C357.633 480.217 357.667 481.343 357.934 482.424C358.202 483.505 358.696 484.517 359.386 485.392C360.075 486.267 360.942 486.985 361.931 487.499C362.919 488.012 364.006 488.31 365.117 488.37L365.845 488.408" stroke="black" stroke-width="3.47" stroke-miterlimit="10"/>
<path d="M821.552 311.089H705.242C697.789 311.089 691.747 317.13 691.747 324.583V518.84C691.747 526.293 697.789 532.334 705.242 532.334H821.552C829.006 532.334 835.047 526.293 835.047 518.84V324.583C835.047 317.13 829.006 311.089 821.552 311.089Z" fill="#3FBDF1"/>
<path d="M566.411 384.246L565.722 399.293L563.787 411.633L553.13 479.856L552.847 481.661L552.411 478.05L551.31 468.97L565.47 385.86L566.411 384.246Z" fill="#3FBDF1"/>
<path d="M569.011 325.899L568.743 331.637C568.743 328.363 569.011 325.899 569.011 325.899Z" fill="#3FBDF1"/>
<path d="M851.207 313.861V628.222C851.206 632.597 849.468 636.792 846.375 639.885C843.283 642.979 839.089 644.719 834.714 644.723H581.499C581.606 643.193 581.698 641.663 581.805 640.133C581.889 638.473 581.981 636.844 582.065 635.229C578.756 636.788 575.358 638.155 571.89 639.322C569.289 640.225 566.627 641.005 563.957 641.694L563.69 641.502C561.608 639.971 559.917 637.97 558.752 635.663C557.588 633.356 556.984 630.807 556.988 628.222V524.442L560.897 496.084L562.297 485.932L562.404 483.637L563.521 458.606V458.407L563.889 449.878L563.927 449.38L563.98 448.072L565.51 413.043L566.13 399.181L569.137 379.934C568.196 381.67 567.385 383.124 566.842 384.133L567.14 377.157L568.349 351.162V351.086L569.213 331.655C569.213 335.189 569.55 339.649 570.881 343.015C571.418 344.609 572.423 346.004 573.765 347.016L574.01 347.192C574.093 347.246 574.18 347.295 574.27 347.337V347.215L578.294 321.633L579.724 319.545L586.823 309.087C586.832 309.073 586.837 309.058 586.837 309.041C586.837 309.025 586.832 309.009 586.823 308.995L587.649 302.355L588.093 298.798H588.629L594.611 298.568H594.68L617.431 297.681H617.584L662.566 297.413H834.691C839.062 297.405 843.257 299.134 846.355 302.217C849.452 305.302 851.197 309.49 851.207 313.861Z" fill="#56A444"/>
<path d="M846.846 318.18V624.181C846.846 628.441 845.153 632.527 842.141 635.54C839.128 638.553 835.042 640.246 830.781 640.246H581.338C581.422 638.585 581.514 636.956 581.598 635.342C578.288 636.9 574.89 638.267 571.423 639.435C571.313 639.388 571.201 639.347 571.087 639.312C567.973 638.186 565.282 636.129 563.378 633.42C561.474 630.712 560.45 627.483 560.445 624.173V485.708L556.536 487.605L556.284 487.727L555.756 486.419L553.132 479.871L552.413 478.065L545.788 461.526C545.788 461.526 558.395 410.654 566.711 377.284C569.771 365.044 572.234 355.138 573.282 350.984C573.596 349.744 573.795 349.018 573.825 348.895C573.827 348.867 573.827 348.839 573.825 348.811C573.838 348.574 573.801 348.337 573.718 348.115C573.61 347.852 573.485 347.596 573.343 347.35C573.33 347.297 573.306 347.248 573.275 347.205C572.412 345.737 571.443 344.337 570.375 343.012L568.991 325.945L569.22 325.769L570.268 324.935L577.398 319.274L579.066 314.883L582.34 306.3L583.793 302.475H587.243H588.131H594.381L617.469 302.406H619.45L663.246 302.138H830.781C835.038 302.138 839.12 303.828 842.132 306.836C845.145 309.844 846.84 313.923 846.846 318.18Z" fill="#2068D9"/>
<path d="M556.533 486.075V628.365C556.529 630.945 557.132 633.491 558.293 635.795C559.456 638.1 561.142 640.099 563.219 641.63L563.487 641.821" stroke="black" stroke-width="3.47" stroke-miterlimit="10"/>
<path d="M581.031 644.835H834.246C838.618 644.835 842.811 643.101 845.906 640.014C849.001 636.926 850.745 632.737 850.755 628.365V314.003C850.757 311.836 850.332 309.69 849.503 307.688C848.676 305.686 847.461 303.866 845.929 302.333C844.397 300.801 842.578 299.586 840.576 298.756C838.574 297.928 836.428 297.502 834.262 297.502H662.137L617.155 297.77H617.002L594.212 297.893H594.09L588.161 297.931" stroke="black" stroke-width="3.47" stroke-miterlimit="10"/>
<path d="M821.547 548.583H588.176C580.724 548.583 574.682 554.625 574.682 562.078V614.434C574.682 621.887 580.724 627.929 588.176 627.929H821.547C829 627.929 835.042 621.887 835.042 614.434V562.078C835.042 554.625 829 548.583 821.547 548.583Z" fill="white"/>
<path opacity="0.54" d="M601.73 589.25H698.266" stroke="white" stroke-width="3.47" stroke-miterlimit="10"/>
<path d="M744.39 566.255H595.551C593.024 566.255 590.977 568.303 590.977 570.829V606.823C590.977 609.349 593.024 611.397 595.551 611.397H744.39C746.916 611.397 748.964 609.349 748.964 606.823V570.829C748.964 568.303 746.916 566.255 744.39 566.255Z" fill="#2068D9"/>
<path d="M717.015 585.265C719.592 585.265 721.682 583.176 721.682 580.598C721.682 578.021 719.592 575.932 717.015 575.932C714.438 575.932 712.349 578.021 712.349 580.598C712.349 583.176 714.438 585.265 717.015 585.265Z" fill="white"/>
<path d="M703.973 601.72C704.055 598.315 705.466 595.077 707.904 592.697C710.341 590.318 713.613 588.985 717.02 588.985C720.426 588.985 723.698 590.318 726.135 592.697C728.573 595.077 729.984 598.315 730.067 601.72H703.973Z" fill="white"/>
<path d="M788.821 566.255C784.271 566.246 779.82 567.587 776.033 570.107C772.245 572.629 769.291 576.217 767.543 580.419C765.796 584.619 765.333 589.244 766.216 593.708C767.098 598.172 769.284 602.274 772.498 605.495C775.713 608.715 779.81 610.91 784.272 611.801C788.734 612.692 793.36 612.24 797.564 610.5C801.77 608.761 805.364 605.814 807.893 602.031C810.421 598.249 811.771 593.8 811.771 589.251C811.777 586.233 811.188 583.243 810.038 580.454C808.886 577.664 807.197 575.129 805.065 572.993C802.934 570.856 800.402 569.162 797.614 568.006C794.827 566.85 791.839 566.255 788.821 566.255ZM788.821 606.685C788.366 606.706 787.912 606.635 787.485 606.476C787.058 606.317 786.668 606.073 786.338 605.759C786.008 605.444 785.746 605.066 785.566 604.648C785.387 604.229 785.295 603.778 785.295 603.323C785.295 602.867 785.387 602.416 785.566 601.997C785.746 601.579 786.008 601.201 786.338 600.886C786.668 600.572 787.058 600.328 787.485 600.169C787.912 600.01 788.366 599.938 788.821 599.961C789.685 600.002 790.5 600.374 791.097 600.999C791.694 601.626 792.027 602.458 792.027 603.323C792.027 604.187 791.694 605.02 791.097 605.645C790.5 606.271 789.685 606.644 788.821 606.685ZM793.052 580.828C792.34 585.816 791.744 591.056 790.252 595.891C789.915 597.061 787.72 597.061 787.368 595.891C786.317 592.238 785.512 588.52 784.958 584.76C784.499 582.037 782.908 577.607 784.43 574.968C785.777 572.597 789.563 572.313 791.744 573.553C794.429 575.09 793.373 578.349 793.052 580.828Z" fill="#2068D9"/>
<path d="M848.153 637.224C861.032 654.458 871.308 673.49 878.654 693.711C895.193 738.923 897.098 793.161 864.884 832.069C843.938 857.368 810.003 864.888 778.584 864.75" stroke="#CCDDE2" stroke-width="3.47" stroke-miterlimit="10"/>
<path d="M465.913 380.406C450.613 339.861 449.045 292.339 468.025 252.719C493.729 199.116 554.263 174.016 611.34 176.403C680.71 179.31 736.134 223.68 768.44 283.411C770.942 288.001 773.313 292.729 775.562 297.503" stroke="#CCDDE2" stroke-width="3.47" stroke-miterlimit="10"/>
<path d="M813.239 471.028C812.114 480.622 808.13 489.658 801.807 496.96C795.483 504.264 787.111 509.498 777.775 511.984C768.44 514.47 758.573 514.093 749.454 510.902C740.336 507.712 732.387 501.854 726.639 494.09C720.89 486.325 717.608 477.013 717.217 467.36C716.827 457.707 719.346 448.16 724.449 439.957C729.55 431.754 737.001 425.274 745.831 421.356C754.662 417.439 764.467 416.267 773.972 417.99C774.388 418.072 774.783 418.237 775.133 418.477C775.483 418.716 775.781 419.024 776.008 419.381C776.236 419.739 776.388 420.139 776.456 420.557C776.524 420.976 776.507 421.404 776.404 421.815L775.448 425.518L766.934 458.78C766.798 459.311 766.805 459.868 766.953 460.395C767.1 460.922 767.384 461.402 767.775 461.784C768.167 462.167 768.652 462.44 769.183 462.577C769.713 462.712 770.27 462.707 770.797 462.559L803.853 453.31L808.374 452.048C808.779 451.936 809.202 451.907 809.619 451.962C810.035 452.018 810.437 452.157 810.798 452.371C811.16 452.586 811.474 452.871 811.723 453.21C811.971 453.549 812.149 453.934 812.245 454.343C813.55 459.803 813.886 465.451 813.239 471.028Z" fill="white"/>
<path d="M814.408 436.756C814.564 437.161 814.634 437.595 814.613 438.029C814.591 438.463 814.479 438.888 814.282 439.276C814.086 439.664 813.811 440.007 813.474 440.281C813.138 440.556 812.747 440.757 812.328 440.871L809.214 441.743L782.285 449.263C781.761 449.404 781.209 449.406 780.684 449.266C780.159 449.128 779.68 448.855 779.293 448.473C778.906 448.092 778.626 447.616 778.48 447.094C778.334 446.571 778.327 446.018 778.46 445.492L785.391 418.411L786.065 415.81C786.168 415.396 786.355 415.008 786.614 414.669C786.874 414.331 787.201 414.05 787.574 413.844C787.948 413.638 788.36 413.511 788.785 413.472C789.209 413.432 789.638 413.48 790.043 413.614C795.52 415.509 800.529 418.555 804.731 422.546C808.934 426.538 812.233 431.383 814.408 436.756Z" fill="white"/>
<path d="M764.638 354.357C771.964 354.357 777.903 348.418 777.903 341.092C777.903 333.766 771.964 327.827 764.638 327.827C757.312 327.827 751.373 333.766 751.373 341.092C751.373 348.418 757.312 354.357 764.638 354.357Z" fill="#D7E8F0"/>
<path d="M813.552 370.399H717.017V373.054H813.552V370.399Z" fill="#D7E8F0"/>
<path d="M813.552 380.222H717.017V382.876H813.552V380.222Z" fill="#D7E8F0"/>
<path d="M813.552 389.18H717.017V391.835H813.552V389.18Z" fill="#D7E8F0"/>
<path d="M560.107 356.369C559.648 358.453 559.032 360.499 558.264 362.489C554.829 371.669 550.048 373.873 545.06 372.756C541.357 371.922 537.532 369.305 534.028 366.345C533.749 366.066 533.39 365.881 533 365.816C532.611 365.75 532.211 365.806 531.856 365.978C526.363 369.55 517.918 371.585 512.325 370.193C508.164 369.16 505.586 366.223 506.97 360.592C507.654 358.188 508.666 355.889 509.977 353.761C514.957 345.346 521.873 347.641 527.098 351.466C529.179 353.041 531.085 354.836 532.782 356.821C533.066 357.196 533.481 357.453 533.944 357.542C534.406 357.631 534.886 357.546 535.291 357.303C543.874 351.435 563.642 339.44 560.107 356.369Z" fill="#2068D9"/>
<path d="M489.436 505.246C489.436 505.246 489.168 527.002 477.823 529.573H477.785C449.977 525.396 445.533 513.072 445.533 513.072C446.596 490.397 452.93 459.384 457.995 440.863C454.973 442.049 452.012 443.396 449.128 444.688C438.824 449.347 428.84 454.779 419.018 460.409C412.645 464.058 406.327 467.845 400.061 471.685C399.472 448.299 385.381 448.353 376.92 444.069C430.47 396.792 476.867 372.648 506.97 360.569C505.555 366.199 508.14 369.137 512.325 370.17C509.808 377.231 510.412 384.384 521.566 386.082C521.742 386.082 521.903 386.135 522.079 386.151C509.418 401.16 482.498 441.2 489.436 505.246Z" fill="#353642"/>
<path d="M589.567 631.096C589.567 631.096 567.634 645.593 528.81 645.96C489.987 646.327 448.486 631.127 448.486 631.127C437.776 596.702 446.252 512.812 446.252 512.812C446.076 516.086 458.04 523.285 458.04 523.285C458.04 523.285 483.285 535.31 488.281 517.608C493.276 499.906 489.604 511.037 494.99 518.848C500.375 526.658 501.875 524.577 501.217 536.106C500.559 547.635 509.181 547.382 512.019 542.157C513.113 540.161 513.396 536.802 514.406 533.627C515.293 533.75 522.476 534.561 520.036 526.383C522.446 525.235 525.827 524.776 530.639 525.465C548.999 528.104 570.365 521.571 570.365 521.571C594.539 556.164 589.567 631.096 589.567 631.096Z" fill="#2068D9"/>
<path d="M560.528 460.7C560.528 460.7 565.944 452.935 589.437 453.486C589.437 453.486 585.153 425.495 576.248 427.599C576.248 427.599 559.35 452.866 560.528 460.7Z" fill="#56A444"/>
<path d="M570.534 325.195C569.93 325.448 569.409 325.654 569.004 325.815L568.277 326.068H568.231L567.994 326.152H567.948C563.19 323.658 563.641 317.607 563.641 317.607C576.707 317.706 577.801 306.966 577.801 306.966C576.891 302.031 575.598 299.843 573.211 298.826C570.825 297.808 567.038 297.916 561.308 297.548L560.359 297.48C551.83 296.837 546.712 288.95 544.486 284.475C543.975 283.484 543.529 282.462 543.147 281.415C534.326 286.326 529.224 292.178 526.416 296.409C521.123 270.177 548.211 269.978 548.211 269.978C552.683 269.377 557.214 269.362 561.69 269.932C562.731 270.2 563.725 270.483 564.682 270.804C565.156 270.957 565.623 271.118 566.089 271.301C566.556 271.485 566.992 271.661 567.443 271.844C567.758 271.964 568.068 272.099 568.369 272.25C574.762 275.079 580.221 279.663 584.113 285.469C584.166 285.553 584.22 285.63 584.258 285.706C584.437 285.978 584.6 286.259 584.748 286.548C594.708 311.938 577.319 322.243 570.534 325.195Z" fill="#56A444"/>
<path d="M570.534 325.196C568.201 322.365 568.507 318.54 568.507 318.54C581.565 318.64 582.667 307.891 582.667 307.891C581.252 300.333 578.987 299.216 573.211 298.834C571.077 298.681 568.461 298.635 565.232 298.405C563.891 298.31 562.569 298.025 561.308 297.556C552.128 294.167 548.005 282.348 548.005 282.348C546.765 283.036 545.58 283.763 544.486 284.49C543.975 283.499 543.529 282.477 543.147 281.43C534.326 286.341 529.224 292.193 526.416 296.424C521.123 270.192 548.211 269.993 548.211 269.993C552.683 269.393 557.214 269.377 561.69 269.947C562.731 270.215 563.725 270.498 564.682 270.819C565.156 270.972 565.623 271.133 566.089 271.317C566.556 271.5 566.992 271.676 567.443 271.86C567.758 271.979 568.068 272.115 568.369 272.265C574.762 275.094 580.221 279.677 584.113 285.484C584.166 285.569 584.22 285.645 584.258 285.722C584.437 285.992 584.6 286.274 584.748 286.563C594.708 311.938 577.319 322.243 570.534 325.196Z" fill="#2068D9"/>
<path d="M665.25 389.195C665.502 396.272 657.875 405.635 653.377 411.128C649.43 415.94 645.215 420.775 644.916 419.78C644.916 419.78 644.916 419.696 644.863 419.658C642.858 412.773 640.273 405.995 637.603 399.37C631.391 383.94 622.502 367.577 608.38 357.616C608.38 357.616 608.38 357.616 608.342 357.578C600.142 351.372 590.243 347.814 579.968 347.381C579.968 347.381 584.925 336.586 587.717 330.015C590.51 323.444 591.542 320.636 591.542 320.636C596.285 306.17 594.304 289.57 591.221 286.701C591.193 286.669 591.155 286.645 591.114 286.632C588.253 280.237 583.999 285.263 583.999 285.263L584.053 285.37C582.784 283.83 581.419 282.371 579.968 281.002C579.966 280.744 579.995 280.487 580.052 280.237C580.404 278.232 581.934 276.656 583.632 275.486C586.572 273.54 590.057 272.586 593.577 272.762C603.354 273.084 609.39 277.276 613.176 283.136C617.407 291.796 617.2 301.901 618.225 311.265C618.669 315.335 618.99 321.623 622.594 324.438C622.594 324.438 623.076 338.422 632.615 353.768C642.155 369.114 659.52 380.727 659.52 380.727L665.25 389.195Z" fill="#2068D9"/>
<path d="M553.52 322.656C550.789 326.32 546.581 327.582 542.496 329.15C533.224 332.723 524.817 331.507 522.736 320.544C521.398 313.491 521.084 306.269 524.496 299.736C528.581 291.903 535.78 286.012 543.139 281.376C543.139 281.376 549.527 299.315 566.089 297.648C582.651 295.98 581.924 318.303 562.096 317.538" stroke="black" stroke-width="3.47" stroke-miterlimit="10"/>
<path d="M578.184 278.462C575.018 275.659 571.395 273.419 567.474 271.837C567.033 271.631 566.581 271.45 566.12 271.294C565.653 271.11 565.187 270.949 564.712 270.796C563.731 270.454 562.733 270.163 561.721 269.924C555.721 268.411 549.478 268.114 543.361 269.052C510.466 273.994 523.854 301.113 523.854 301.113" stroke="black" stroke-width="3.47" stroke-miterlimit="10"/>
<path d="M581.031 347.411C583.456 336.969 589.615 328.026 592.384 317.882C595.115 307.884 595.444 296.202 591.106 286.624C588.245 280.229 583.999 285.263 583.999 285.263" stroke="black" stroke-width="3.47" stroke-miterlimit="10"/>
<path d="M584.053 285.37C584.073 285.398 584.092 285.429 584.106 285.461L584.267 285.706C584.441 285.974 584.6 286.252 584.741 286.54C588.834 293.815 589.645 302.682 585.59 312.083C584.077 315.508 581.793 318.535 578.916 320.931C576.039 323.327 572.647 325.024 569.005 325.892L570.497 344.252C570.555 345.043 570.896 345.789 571.458 346.35C572.019 346.912 572.764 347.253 573.557 347.312L578.3 347.671C588.321 348.658 598.764 351.228 607.064 356.698C607.508 356.981 607.928 357.28 608.357 357.563C608.357 357.563 608.357 357.601 608.395 357.601C622.517 367.546 631.406 383.925 637.618 399.355C640.288 405.98 642.874 412.757 644.878 419.642C644.878 419.681 644.878 419.734 644.931 419.765C648.825 433.129 650.539 446.907 646.377 460.784C640.908 479.037 626.327 493.281 610.269 503.517C605.94 506.283 601.46 508.807 596.851 511.075C593.118 512.972 589.27 514.648 585.376 516.208C574.245 520.653 563.604 523.858 551.571 525.251C545.791 525.864 539.968 525.99 534.167 525.626C529.332 525.342 522.853 524.6 518.592 527.523C517.938 527.941 517.352 528.458 516.855 529.053C515.21 530.95 514.56 533.474 514.04 535.899C513.52 538.324 513 540.895 511.561 542.914C510.123 544.934 507.476 546.403 505.097 545.569C501.272 544.207 501.402 539.334 501.272 536.045C501.188 534.239 501.188 532.488 501.272 530.843C502.037 512.039 516.09 496.624 534.481 492.731C545.058 490.542 555.322 487.044 565.035 482.319C567.498 481.13 569.9 479.837 572.241 478.44C577.925 475.044 583.372 470.852 586.524 465.022C590.632 457.464 590.257 448.047 587.059 440.083C582.133 427.706 570.596 420.293 562.625 410.133" stroke="black" stroke-width="3.47" stroke-miterlimit="10"/>
<path d="M545.286 304.788C545.843 303.773 545.6 302.568 544.742 302.096C543.883 301.623 542.734 302.061 542.176 303.076C541.617 304.09 541.861 305.295 542.72 305.768C543.579 306.24 544.727 305.801 545.286 304.788Z" fill="#353642"/>
<path d="M529.445 302.814C530.002 301.799 529.759 300.594 528.901 300.121C528.042 299.649 526.894 300.087 526.335 301.102C525.777 302.116 526.021 303.321 526.879 303.794C527.738 304.267 528.886 303.827 529.445 302.814Z" fill="#353642"/>
<path d="M589.561 808.14V860.841C589.56 861.692 589.28 862.519 588.763 863.196C588.246 863.872 587.522 864.359 586.7 864.583C585.879 864.807 585.007 864.754 584.219 864.433C583.431 864.112 582.77 863.541 582.339 862.807C580.044 858.791 575.806 850.98 570.298 840.622C583.135 835.313 575.079 797.43 574.796 796.084C575.449 797.36 576.444 798.431 577.668 799.178C578.893 799.925 580.3 800.318 581.735 800.314C583.809 800.316 585.798 801.142 587.266 802.608C588.733 804.076 589.558 806.065 589.561 808.14Z" fill="#353642"/>
<path d="M552.196 844.5C551.577 847.775 550.934 851.079 550.299 854.445C549.74 857.345 548.189 859.959 545.912 861.839C543.635 863.72 540.775 864.748 537.822 864.75H492.771C491.977 864.75 491.205 864.482 490.581 863.99C489.957 863.498 489.516 862.811 489.33 862.039C489.144 861.266 489.223 860.453 489.554 859.731C489.886 859.009 490.45 858.419 491.157 858.056L515.017 845.877L516.792 844.975C516.792 844.975 534.334 857.1 552.196 844.5Z" fill="#353642"/>
<path d="M558.21 463.798C562.226 456.041 574.351 453.853 589.437 454.167" stroke="black" stroke-width="3.47" stroke-miterlimit="10"/>
<path d="M648.917 492.057L628.262 530.46L634.451 669.3L624.039 662.147L614.026 548.162C614.026 548.162 607.76 502.14 626.113 492.057C644.465 481.975 648.917 492.057 648.917 492.057Z" fill="white"/>
<path d="M648.066 434.055C648.056 434.025 648.056 433.993 648.066 433.963" stroke="black" stroke-width="3.47" stroke-miterlimit="10"/>
<path d="M591.113 286.617C588.252 280.229 583.999 285.27 583.999 285.27C582.867 283.462 581.543 281.783 580.051 280.259C579.455 279.64 578.835 279.058 578.192 278.454C579.064 274.346 582.622 271.447 586.607 270.529C597.057 268.134 608.525 273.55 613.214 283.166C617.995 292.935 617.322 304.586 619.411 315.067C621.706 326.374 624.636 337.65 629.646 348.1C633.892 356.928 639.683 365.144 647.149 371.532C652.198 375.839 658.923 378.646 662.625 384.384C672.127 399.186 653.331 405.804 647.149 415.825C646.085 417.518 645.476 419.457 645.382 421.455" stroke="black" stroke-width="3.47" stroke-miterlimit="10"/>
<path d="M532.567 295.789C532.567 295.789 533.691 300.379 530.524 307.096C529.675 308.886 533.584 308.985 534.51 309.161" stroke="black" stroke-width="3.47" stroke-miterlimit="10"/>
<path d="M550.586 303.496C552.383 298.927 550.831 294.039 547.119 292.58C543.408 291.12 538.942 293.64 537.145 298.209C535.348 302.778 536.901 307.665 540.612 309.124C544.324 310.585 548.789 308.064 550.586 303.496Z" stroke="black" stroke-width="3.47" stroke-miterlimit="10"/>
<path d="M532.001 301.458C533.798 296.89 532.246 292.002 528.534 290.542C524.823 289.083 520.357 291.603 518.56 296.172C516.763 300.741 518.316 305.628 522.027 307.087C525.739 308.548 530.204 306.027 532.001 301.458Z" stroke="black" stroke-width="3.47" stroke-miterlimit="10"/>
<path d="M526.195 292.928C526.635 292.928 527.072 293.011 527.481 293.173C529.837 294.098 530.755 297.372 529.538 300.471C528.567 302.942 526.432 304.663 524.352 304.663C523.909 304.667 523.471 304.586 523.059 304.426C520.71 303.5 519.785 300.226 521.009 297.12C521.98 294.649 524.115 292.928 526.195 292.928ZM526.195 291.161C523.441 291.161 520.634 293.226 519.356 296.47C517.78 300.486 519.15 304.785 522.416 306.07C523.036 306.312 523.695 306.437 524.359 306.438C527.106 306.438 529.913 304.364 531.191 301.083C532.767 297.066 531.405 292.767 528.131 291.482C527.514 291.242 526.858 291.12 526.195 291.122V291.161Z" fill="white"/>
<path d="M531.188 301.139C532.768 297.122 531.403 292.824 528.141 291.54C524.877 290.256 520.95 292.473 519.37 296.492C517.789 300.51 519.153 304.808 522.417 306.091C525.68 307.375 529.607 305.158 531.188 301.139Z" fill="#2068D9"/>
<path d="M549.776 303.176C551.356 299.158 549.991 294.86 546.728 293.576C543.465 292.293 539.538 294.51 537.958 298.528C536.377 302.546 537.741 306.845 541.005 308.128C544.268 309.411 548.195 307.194 549.776 303.176Z" fill="#2068D9"/>
<path d="M532.705 297.349C532.705 297.349 533.7 295.253 537.096 298.191" stroke="black" stroke-width="3.47" stroke-miterlimit="10"/>
<path d="M803.185 744.936C770.435 751.714 733.333 741.585 701.241 735.213L656.351 726.331C651.478 725.352 646.406 724.311 642.022 722.169C641.816 722.009 641.601 721.833 641.402 721.657C633.408 714.772 631.939 703.136 631.014 692.587C629.178 671.626 627.337 650.677 625.49 629.742C623.191 603.472 620.896 577.206 618.605 550.947C617.037 532.924 615.974 513.011 627.02 498.667C631.817 492.425 639.872 488.653 647.607 491.445C648.06 491.606 648.504 491.79 648.938 491.996C651.885 494.501 654.284 497.587 655.983 501.061C665.607 520.186 663.381 544.291 664.582 565.038C666.762 603.043 665.714 641.049 664.498 679.077C664.352 683.483 662.494 687.874 662.532 692.082C662.532 691.477 664.528 690.682 667.734 689.787C680.425 686.314 712.18 681.479 715.37 681.112C742.51 677.952 770.007 680.178 796.284 687.66C802.775 689.549 808.924 692.459 814.499 696.282C821.3 700.956 827.106 706.992 829.799 713.984C836.661 731.992 817.987 741.853 803.185 744.936Z" fill="#D7E8F0"/>
<path d="M803.185 744.936C770.435 751.714 733.333 741.585 701.241 735.213L656.351 726.331C651.478 725.352 646.406 724.311 642.022 722.169C641.816 722.009 641.601 721.833 641.402 721.657C633.408 714.772 631.939 703.136 631.014 692.587C629.178 671.626 627.337 650.677 625.49 629.742C623.191 603.472 620.896 577.206 618.605 550.947C617.037 532.924 615.974 513.011 627.02 498.667C631.817 492.425 639.872 488.653 647.607 491.445C648.06 491.606 648.504 491.79 648.938 491.996C651.885 494.501 654.284 497.587 655.983 501.061C665.607 520.186 663.381 544.291 664.582 565.038C666.762 603.043 665.714 641.049 664.498 679.077C664.352 683.483 662.494 687.874 662.532 692.082C662.532 691.477 664.528 690.682 667.734 689.787C667.351 691.464 667.144 693.177 667.114 694.897C667.114 691.906 715.936 684.417 719.937 683.958C747.085 680.802 774.588 683.027 800.874 690.506C805.626 691.893 810.199 693.831 814.499 696.282C821.3 700.956 827.106 706.992 829.799 713.984C836.661 731.992 817.987 741.853 803.185 744.936Z" fill="#D7E8F0"/>
<path d="M620.925 626.927L614.001 548.132C612.418 530.109 611.354 510.188 622.416 495.844C627.221 489.602 635.261 485.83 643.01 488.623C648.794 490.711 653.231 495.607 656.015 501.1C665.639 520.225 663.413 544.345 664.606 565.077C666.794 603.097 665.738 641.095 664.514 679.123C664.377 683.529 662.51 687.92 662.556 692.128C662.556 689.144 711.393 681.647 715.387 681.181C742.529 678.025 770.027 680.25 796.309 687.729C809.115 691.355 824.851 701.109 829.823 714.053C836.708 732 818.034 741.876 803.232 744.943C770.482 751.737 733.38 741.6 701.288 735.236L656.398 726.339C649.513 724.962 642.215 723.432 636.875 718.826C628.873 711.941 627.412 700.298 626.486 689.756L620.925 626.927Z" stroke="black" stroke-width="3.47" stroke-miterlimit="10"/>
<path d="M557.436 816.295C562.179 825.345 566.547 833.607 570.303 840.653C575.811 851.011 580.041 858.821 582.336 862.838C582.77 863.569 583.432 864.138 584.22 864.457C585.008 864.777 585.879 864.829 586.699 864.605C587.52 864.383 588.244 863.896 588.762 863.222C589.28 862.548 589.562 861.721 589.566 860.872V808.14C589.563 806.065 588.739 804.076 587.271 802.608C585.804 801.141 583.814 800.316 581.74 800.314C580.305 800.32 578.897 799.928 577.671 799.181C576.447 798.434 575.453 797.362 574.801 796.084C570.836 788.214 567.641 779.98 565.262 771.497" stroke="black" stroke-width="3.47" stroke-miterlimit="10"/>
<path d="M522.317 749.013C521.416 718.623 517.574 688.392 510.842 658.743C509.725 653.934 508.693 649.295 507.744 644.828" stroke="black" stroke-width="3.47" stroke-miterlimit="10"/>
<path d="M513.158 864.75H537.822C540.777 864.748 543.639 863.717 545.916 861.833C548.193 859.95 549.743 857.332 550.299 854.43C550.934 851.079 551.577 847.775 552.196 844.485C554.032 834.795 555.779 825.393 557.436 816.28C560.32 800.475 562.883 785.55 565.239 771.481C573.899 718.842 578.856 677.753 581.029 644.843C581.136 643.313 581.228 641.783 581.335 640.253C581.419 638.593 581.511 636.964 581.595 635.349" stroke="black" stroke-width="3.47" stroke-miterlimit="10"/>
<path d="M465.914 636.726C471.422 650.642 476.15 664.856 482.469 678.434C493.867 702.914 508.173 726.002 522.318 749.013C523.42 781.096 521.571 813.213 516.794 844.959L515.019 845.862L491.159 858.041C490.444 858.399 489.871 858.989 489.533 859.715C489.196 860.44 489.114 861.259 489.302 862.037C489.488 862.815 489.934 863.506 490.564 863.999C491.194 864.491 491.973 864.756 492.773 864.75H524.138" stroke="black" stroke-width="3.47" stroke-miterlimit="10"/>
<path d="M556.972 485.907C553.369 465.68 564.301 444.926 577.42 425.885" stroke="black" stroke-width="3.47" stroke-miterlimit="10"/>
<path d="M571.116 521.265C571.137 521.282 571.151 521.307 571.154 521.334C571.812 522.864 572.462 524.34 573.105 525.847C576.533 533.764 579.48 541.88 581.933 550.152C582.958 553.732 583.845 557.343 584.557 561.007C588.198 579.589 589.491 598.691 589.69 617.617C589.69 621.052 589.69 624.502 589.636 627.937C589.636 629 589.598 630.063 589.567 631.104L589.437 631.18C588.305 631.854 587.142 632.488 586.026 633.108L585.314 633.483C584.101 634.131 582.861 634.748 581.596 635.334C578.286 636.893 574.889 638.26 571.422 639.427C568.821 640.33 566.158 641.11 563.489 641.799C550.484 645.142 536.92 646.205 523.854 645.907L522.049 645.853C517.16 645.692 512.364 645.34 507.712 644.859C493.578 643.316 479.596 640.598 465.913 636.734C456.779 634.171 450.613 631.907 448.976 631.264L448.517 631.104C443.927 604.398 443.101 577.332 443.506 555.835C443.506 555.682 443.506 555.522 443.506 555.361C443.934 534.415 445.564 518.855 446.092 514.204C446.161 513.653 446.214 513.263 446.237 513.034C446.26 512.804 446.237 512.82 446.237 512.789C447.15 491.814 450.367 471.003 455.83 450.732C462.983 424.439 473.341 402.843 484.388 387.459" stroke="black" stroke-width="3.47" stroke-miterlimit="10"/>
<path d="M513.051 369.872C510.55 376.933 511.146 384.085 522.308 385.784L522.813 385.852C532.498 387.069 539.008 380.497 545.763 372.45" stroke="black" stroke-width="3.47" stroke-miterlimit="10"/>
<path d="M578.277 347.687C571.827 348.862 565.808 351.741 560.843 356.025" stroke="black" stroke-width="3.47" stroke-miterlimit="10"/>
<path d="M490.178 504.948C483.232 440.894 510.168 400.816 522.813 385.852" stroke="black" stroke-width="3.47" stroke-miterlimit="10"/>
<path d="M559.008 362.145C568.532 336.609 545.467 350.555 536.058 356.966C535.654 357.208 535.176 357.293 534.714 357.208C534.252 357.121 533.838 356.87 533.548 356.499C529.264 351.519 517.942 341.238 510.736 353.439C498.703 373.811 521.561 372.801 532.577 365.679C532.929 365.506 533.326 365.447 533.713 365.512C534.1 365.577 534.457 365.761 534.734 366.039C543.019 372.962 553.041 378.156 559.008 362.145Z" stroke="black" stroke-width="3.47" stroke-miterlimit="10"/>
<path d="M446.26 512.773C446.26 512.773 449.595 522.053 468.659 527.224C470.789 527.799 473.013 527.938 475.197 527.633C477.382 527.328 479.483 526.586 481.374 525.45C483.265 524.314 484.908 522.809 486.204 521.024C487.5 519.239 488.422 517.21 488.916 515.061C489.654 511.738 490.068 508.35 490.155 504.948C490.155 504.948 492.825 520.049 501.508 527.224" stroke="black" stroke-width="3.47" stroke-miterlimit="10"/>
<path d="M520.712 526.391C520.712 526.391 522.242 534.041 514.354 534.53" stroke="black" stroke-width="3.47" stroke-miterlimit="10"/>
<path d="M716.189 738.311V822.882C716.19 827.632 714.742 832.27 712.038 836.176C709.335 840.083 705.504 843.072 701.057 844.745L669.983 856.434C669.036 856.786 668.244 857.46 667.744 858.337C667.245 859.215 667.072 860.242 667.254 861.235C667.437 862.229 667.964 863.125 668.743 863.769C669.523 864.411 670.503 864.759 671.513 864.75H778.613C779.621 864.754 780.599 864.403 781.375 863.759C782.151 863.115 782.675 862.219 782.858 861.228C783.04 860.237 782.868 859.212 782.372 858.335C781.876 857.457 781.087 856.782 780.143 856.427L747.248 844.133C742.79 842.465 738.947 839.475 736.234 835.564C733.52 831.653 732.065 827.006 732.063 822.247V741.34" stroke="black" stroke-width="3.47" stroke-miterlimit="10"/>
<path d="M716.189 738.311V822.882C716.19 827.632 714.742 832.27 712.038 836.176C709.335 840.083 705.504 843.072 701.057 844.745L669.983 856.434C669.036 856.786 668.244 857.46 667.744 858.337C667.245 859.215 667.072 860.242 667.254 861.235C667.437 862.229 667.964 863.125 668.743 863.769C669.523 864.411 670.503 864.759 671.513 864.75H778.613C779.621 864.754 780.599 864.403 781.375 863.759C782.151 863.115 782.675 862.219 782.858 861.228C783.04 860.237 782.868 859.212 782.372 858.335C781.876 857.457 781.087 856.782 780.143 856.427L747.248 844.133C742.79 842.465 738.947 839.475 736.234 835.564C733.52 831.653 732.065 827.006 732.063 822.247V741.34L716.189 738.311Z" fill="#353642"/>
<path d="M507.758 360.278C478.596 371.945 434.226 394.933 382.841 439.265C379.316 442.325 375.759 445.469 372.169 448.697C364.947 455.225 357.611 462.181 350.16 469.566L333.804 485.93C333.127 486.617 332.729 487.531 332.688 488.494C332.647 489.458 332.964 490.403 333.579 491.145C334.194 491.888 335.063 492.376 336.018 492.515C336.973 492.654 337.944 492.433 338.746 491.897L360.74 477.033C361.447 476.554 362.246 476.23 363.086 476.082C363.927 475.933 364.789 475.964 365.617 476.171C366.445 476.379 367.219 476.757 367.891 477.284C368.563 477.811 369.116 478.473 369.514 479.228C369.716 479.595 369.83 480.003 369.851 480.422C370.57 486.144 363.731 489.823 360.097 492.899C358.498 494.23 356.395 496.785 357.611 498.935C358.59 500.648 360.74 501.39 362.622 501.49C367.464 501.75 371.473 498.644 375.313 496.135C379.444 493.388 384.891 481.125 389.083 478.478C411.268 464.425 433.767 451.665 458.017 441.552" stroke="black" stroke-width="3.47" stroke-miterlimit="10"/>
<path d="M529.346 319.229C529.346 319.229 532.551 312.81 538.082 317.897" stroke="black" stroke-width="3.47" stroke-miterlimit="10"/>
<path d="M534.93 330.918L527.885 351.183" stroke="black" stroke-width="3.47" stroke-miterlimit="10"/>
</svg>
