<svg width="397" height="334" viewBox="0 0 397 334" fill="none" xmlns="http://www.w3.org/2000/svg">
<path d="M371.538 9.39099H299.225C289.819 9.39099 282.195 17.0154 282.195 26.4209V74.4698C282.195 83.8749 289.819 91.4997 299.225 91.4997H371.538C380.943 91.4997 388.567 83.8749 388.567 74.4698V26.4209C388.567 17.0154 380.943 9.39099 371.538 9.39099Z" fill="#CFD5EC"/>
<path d="M376.97 3H304.657C295.252 3 287.627 10.6248 287.627 20.0299V68.0788C287.627 77.4843 295.252 85.1087 304.657 85.1087H376.97C386.376 85.1087 394 77.4843 394 68.0788V20.0299C394 10.6248 386.376 3 376.97 3Z" fill="#2068D9"/>
<path d="M376.97 3H304.657C295.252 3 287.627 10.6248 287.627 20.0299V68.0788C287.627 77.4843 295.252 85.1087 304.657 85.1087H376.97C386.376 85.1087 394 77.4843 394 68.0788V20.0299C394 10.6248 386.376 3 376.97 3Z" stroke="#070808" stroke-width="6" stroke-miterlimit="10"/>
<path d="M291.583 113.144C296.606 113.144 300.678 109.072 300.678 104.048C300.678 99.0255 296.606 94.9532 291.583 94.9532C286.56 94.9532 282.488 99.0255 282.488 104.048C282.488 109.072 286.56 113.144 291.583 113.144Z" stroke="#070808" stroke-width="6" stroke-miterlimit="10"/>
<path d="M275.605 126.465C278.709 126.465 281.225 123.948 281.225 120.844C281.225 117.74 278.709 115.224 275.605 115.224C272.501 115.224 269.984 117.74 269.984 120.844C269.984 123.948 272.501 126.465 275.605 126.465Z" stroke="#070808" stroke-width="6" stroke-miterlimit="10"/>
<path d="M369.957 51.6206H309.067C306.644 51.6206 304.681 53.5844 304.681 56.0071V66.6887C304.681 69.1113 306.644 71.0751 309.067 71.0751H369.957C372.379 71.0751 374.343 69.1113 374.343 66.6887V56.0071C374.343 53.5844 372.379 51.6206 369.957 51.6206Z" fill="white"/>
<path d="M313.595 66.7736C312.432 66.7732 311.316 66.3113 310.494 65.4886C309.671 64.6659 309.209 63.55 309.209 62.3868V51.7056C309.209 51.6769 309.213 51.6489 309.213 51.6206H309.068C307.904 51.6206 306.789 52.0826 305.966 52.9052C305.143 53.7279 304.681 54.8434 304.681 56.0071V66.6879C304.681 67.8511 305.143 68.967 305.966 69.7893C306.789 70.612 307.904 71.0744 309.068 71.0744H369.956C371.105 71.0744 372.207 70.624 373.027 69.8196C373.847 69.0151 374.318 67.9213 374.339 66.7732L313.595 66.7736Z" fill="#E4E4E4"/>
<path d="M369.957 51.6206H309.067C306.644 51.6206 304.681 53.5844 304.681 56.0071V66.6887C304.681 69.1113 306.644 71.0751 309.067 71.0751H369.957C372.379 71.0751 374.343 69.1113 374.343 66.6887V56.0071C374.343 53.5844 372.379 51.6206 369.957 51.6206Z" stroke="#070808" stroke-width="6" stroke-miterlimit="10"/>
<path d="M318.932 63.991C320.721 63.991 322.172 62.5407 322.172 60.7515C322.172 58.9622 320.721 57.512 318.932 57.512C317.143 57.512 315.693 58.9622 315.693 60.7515C315.693 62.5407 317.143 63.991 318.932 63.991Z" fill="#070808"/>
<path d="M329.39 63.991C331.179 63.991 332.63 62.5407 332.63 60.7515C332.63 58.9622 331.179 57.512 329.39 57.512C327.601 57.512 326.151 58.9622 326.151 60.7515C326.151 62.5407 327.601 63.991 329.39 63.991Z" fill="#070808"/>
<path d="M339.849 63.991C341.638 63.991 343.089 62.5407 343.089 60.7515C343.089 58.9622 341.638 57.512 339.849 57.512C338.06 57.512 336.61 58.9622 336.61 60.7515C336.61 62.5407 338.06 63.991 339.849 63.991Z" fill="#070808"/>
<path d="M350.307 63.991C352.097 63.991 353.547 62.5407 353.547 60.7515C353.547 58.9622 352.097 57.512 350.307 57.512C348.518 57.512 347.068 58.9622 347.068 60.7515C347.068 62.5407 348.518 63.991 350.307 63.991Z" fill="#070808"/>
<path d="M360.766 63.991C362.556 63.991 364.006 62.5407 364.006 60.7515C364.006 58.9622 362.556 57.512 360.766 57.512C358.977 57.512 357.527 58.9622 357.527 60.7515C357.527 62.5407 358.977 63.991 360.766 63.991Z" fill="#070808"/>
<path d="M306.419 41.7388C306.419 41.7388 338.884 36.4528 334.564 24.5579C330.935 14.5644 321.761 21.8991 322.08 24.2701C324.305 40.8253 349.881 42.7243 354.636 29.7139C361.162 11.8555 347.269 13.3217 349.861 22.3808C352.453 31.44 364.559 15.4988 367.152 28.9312" stroke="#070808" stroke-width="6" stroke-miterlimit="10" stroke-linecap="round"/>
<path d="M332.903 137.087C332.911 136.166 333.194 135.268 333.718 134.51C334.198 133.761 334.794 133.094 335.482 132.532C336.135 132.012 336.727 131.42 337.246 130.767C337.744 130.207 338.032 129.491 338.061 128.742C338.078 128.428 338.02 128.113 337.892 127.825C337.764 127.537 337.569 127.283 337.324 127.085C336.724 126.664 336 126.459 335.268 126.503C333.55 126.503 332.333 127.414 331.617 129.234L327.997 127.147C328.565 125.688 329.594 124.455 330.927 123.634C332.277 122.803 333.836 122.373 335.422 122.393C337.17 122.355 338.878 122.924 340.254 124.003C340.922 124.527 341.456 125.202 341.811 125.973C342.165 126.745 342.331 127.589 342.295 128.437C342.301 129.265 342.117 130.084 341.757 130.83C341.429 131.523 340.994 132.16 340.468 132.717C339.967 133.239 339.466 133.73 338.965 134.191C338.49 134.623 338.058 135.101 337.677 135.618C337.343 136.039 337.155 136.556 337.14 137.092L332.903 137.087ZM336.86 143.929C336.434 144.351 335.875 144.613 335.279 144.669C334.682 144.726 334.084 144.574 333.586 144.24C333.089 143.905 332.723 143.409 332.55 142.835C332.378 142.261 332.41 141.644 332.64 141.091C332.87 140.538 333.286 140.081 333.815 139.8C334.344 139.518 334.954 139.428 335.542 139.545C336.13 139.663 336.659 139.981 337.039 140.444C337.419 140.908 337.627 141.489 337.627 142.088C337.631 142.431 337.566 142.771 337.435 143.088C337.303 143.404 337.108 143.691 336.862 143.929L336.86 143.929Z" fill="#EA7AAF"/>
<path d="M238.27 29.5122C238.279 28.3889 238.624 27.2944 239.262 26.3705C239.847 25.4578 240.572 24.6436 241.412 23.9587C242.207 23.3249 242.929 22.6034 243.562 21.8083C244.168 21.1249 244.518 20.2525 244.553 19.3403C244.574 18.9567 244.504 18.5734 244.348 18.2224C244.192 17.8714 243.954 17.5623 243.656 17.321C242.925 16.8071 242.042 16.5565 241.15 16.6104C239.055 16.6104 237.572 17.7197 236.7 19.9387L232.287 17.3959C232.979 15.6175 234.234 14.1141 235.859 13.1137C237.505 12.101 239.405 11.5762 241.337 11.601C243.468 11.5549 245.55 12.2488 247.227 13.5644C248.884 14.8731 249.713 16.6736 249.713 18.9667C249.721 19.976 249.497 20.974 249.058 21.8835C248.658 22.7275 248.129 23.5033 247.488 24.1832C246.877 24.819 246.266 25.4174 245.656 25.9783C245.076 26.5043 244.549 27.0869 244.085 27.7171C243.679 28.2295 243.45 28.859 243.431 29.5122H238.27ZM243.094 37.8515C242.576 38.3654 241.895 38.6839 241.168 38.7529C240.441 38.8215 239.713 38.6365 239.107 38.2285C238.501 37.8208 238.055 37.2158 237.845 36.5164C237.635 35.8171 237.673 35.0666 237.954 34.3924C238.235 33.7183 238.741 33.1621 239.386 32.8192C240.03 32.476 240.774 32.3666 241.49 32.5097C242.206 32.6528 242.85 33.0399 243.314 33.6047C243.777 34.1694 244.03 34.8773 244.03 35.6076C244.035 36.0254 243.955 36.4404 243.794 36.8259C243.633 37.2119 243.395 37.561 243.094 37.8515Z" fill="#EA7AAF"/>
<g clip-path="url(#clip0_119_440)">
<path fill-rule="evenodd" clip-rule="evenodd" d="M268.956 243.965C270.451 243.184 271.912 242.335 273.349 241.452C274.361 240.845 273.465 239.319 272.427 239.871C271.896 240.153 271.367 240.437 270.836 240.718C271.255 240.358 271.642 239.966 271.989 239.539L271.964 239.515C273.302 238.316 271.584 236.052 270.062 237.037C268.72 238.011 267.366 239.004 265.825 239.645C262.635 240.999 259.116 241.223 255.691 241.262C254.438 241.168 253.241 241.385 252.025 241.627C252.502 239.714 253.695 238.268 254.328 236.414C254.794 234.543 252.095 233.268 251.138 235.067C250.903 235.509 250.679 235.956 250.461 236.405C248.393 238.287 244.94 238.121 242.854 240.142C241.666 241.197 241.085 242.629 240.856 244.066C240.699 245.041 240.942 246.019 240.353 246.884C237.502 250.918 233 257.294 230.712 261.733C229.094 251.184 224.77 238.136 220.303 228.489C218.826 225.405 217.136 222.39 214.918 219.775C215.17 218.903 214.282 217.355 213.717 217.831C211.981 215.708 208.91 215.158 206.441 214.102C203.108 212.676 200.342 209.711 198.983 206.342C197.236 199.926 192.937 199.111 186.974 199.394C181.267 199.387 177.045 201.83 175.8 207.644C173.27 212.056 167.298 211.326 163.001 212.494C159.851 213.214 156.795 214.327 153.891 215.74C150.66 212.673 139.088 225.546 138.036 228.858C138.655 228.978 139.27 229.123 139.88 229.299C140.423 229.456 140.195 230.277 139.648 230.146C138.966 229.982 138.28 229.869 137.59 229.791C137.569 229.857 137.551 229.923 137.537 229.988C137.46 229.982 137.383 229.975 137.305 229.97C137.477 230.059 137.642 230.163 137.803 230.297C138.192 230.62 137.685 231.244 137.272 230.987C136.883 230.695 136.373 230.741 135.906 230.643C135.878 231.604 132.451 230.529 131.918 230.21C129.552 229.914 127.118 230.232 124.909 229.09C121.97 228.471 119.009 227.786 116.103 226.997C115.333 227.297 114.61 228.371 115.222 229.159C115.565 229.518 115.123 230.104 114.691 229.849C113.239 228.993 112.117 227.659 111.165 226.221C110.717 225.769 109.922 225.866 109.32 225.678C109.239 225.823 109.192 225.985 109.193 226.15C106.64 226.57 108.461 229.361 109.744 230.23C109.064 230.674 109.038 231.542 109.097 232.268C108.953 232.526 108.905 232.847 109.03 233.136C109.51 234.244 110.549 235.176 111.338 236.073C112.21 237.064 112.987 238.059 114.048 238.863C118.09 241.947 122.969 243.67 127.974 244.345C129.751 244.618 132.307 245.036 133.408 246.54C133.138 248.324 132.642 250.036 132.192 251.776C131.564 254.087 131.606 256.505 131.598 258.86C131.51 258.79 131.341 258.804 131.316 258.939C131.17 259.915 131.061 260.913 130.468 261.733C129.948 263.259 129.602 264.886 129.408 266.489C128.63 274.086 128.444 281.908 130.199 289.387C130.876 292.161 131.978 294.798 133.479 297.226C133.927 297.951 134.646 298.163 135.292 298.021C137.455 299.145 140.179 299.505 142.51 299.219C150.456 296.968 147.687 302.389 158.828 300.729C178.058 298.278 197.493 303.095 216.683 300.267C217.156 303.92 223.343 302.872 225.492 301.327C231.936 296.534 235.136 281.355 238.37 273.656C240.593 267.586 244.315 256.838 249.19 252.765C250.652 251.621 252.419 251.019 254.187 250.533C260.785 248.831 267.408 247.222 274.018 245.568C275.139 245.291 274.938 243.378 273.739 243.501C272.148 243.664 270.552 243.811 268.956 243.965Z" fill="white"/>
<path fill-rule="evenodd" clip-rule="evenodd" d="M122.571 243.69C122.124 243.634 121.686 243.475 121.251 243.349C120.587 243.155 119.936 242.928 119.295 242.67C117.972 242.14 116.688 241.513 115.485 240.746C113.542 239.505 111.825 237.915 110.53 236.001L110.441 235.868C109.701 234.741 108.337 232.238 109.867 231.382C108.881 230.558 107.95 229.078 108.002 227.936C108.077 226.319 110.057 226.341 111.08 227.026C111.75 227.475 112.253 228.104 112.756 228.722C113.314 229.408 113.91 230.063 114.529 230.693C114.693 230.859 114.859 231.023 115.028 231.183L115.198 231.343C115.171 231.28 115.148 231.215 115.127 231.15C114.786 230.085 115.193 228.698 116.258 228.21C116.909 227.911 117.585 228.094 118.217 228.347L118.313 228.387C119.163 228.739 120.023 229.05 120.908 229.3C124.515 230.319 128.279 230.488 131.974 230.996C133.398 231.194 134.848 231.442 136.264 231.807C136.804 229.512 138.129 227.311 139.565 225.501C146.445 216.841 157.792 213.978 168.172 212.126C169.118 211.958 169.902 213.211 170.453 212.914C171.497 212.353 172.415 211.558 173.221 210.695C174.94 208.852 176.159 206.685 177.591 204.632C178.299 203.618 179.929 204.526 179.272 205.614L178.95 206.146C177.625 208.325 176.157 210.571 174.256 212.261C173.246 213.159 172.125 213.867 170.843 214.31C169.872 214.644 168.509 214.926 167.446 214.602L167.319 214.416C167.361 214.478 167.403 214.54 167.446 214.602C170.221 218.624 173.701 222.029 177.369 225.242C181.071 228.484 185.065 231.386 189.083 234.225L189.418 234.461C195.964 229.683 201.493 223.451 205.372 216.33C204.56 216.232 203.755 215.711 203.06 215.322C202.223 214.852 201.437 214.291 200.823 213.543C199.487 211.913 199.661 209.814 199.42 207.836C199.405 207.714 199.567 207.683 199.642 207.745C200.366 208.347 200.62 209.333 200.922 210.185C201.255 211.121 201.632 211.893 202.396 212.552C203.106 213.165 203.974 213.617 204.816 214.019C205.251 214.225 207.408 214.755 207.653 215.194C211.38 214.319 215.009 215.831 217.77 218.382C220.438 220.847 222.396 224.052 224.125 227.215C225.969 230.59 227.48 234.109 228.783 237.725C230.103 241.396 231.115 245.147 231.671 249.01C232.14 252.267 232.428 255.575 232.614 258.869L232.637 259.28C235.394 254.951 238.219 250.667 241.103 246.42C240.447 244.669 241.173 242.88 242.401 241.527C243.762 240.03 245.644 239.334 247.444 238.524L247.681 238.417C248.549 238.021 249.413 237.585 250.163 236.992C250.884 236.419 251.414 235.63 252.174 235.102C253.277 234.334 255.281 234.497 255.332 236.177C255.358 237.099 254.962 238.11 254.6 238.938C254.19 239.875 253.637 240.724 252.98 241.504C252.949 241.54 252.916 241.569 252.882 241.592L252.857 241.608C253.765 241.758 254.68 241.88 255.613 241.922C257.496 242.008 259.398 241.869 261.241 241.472C263.127 241.066 264.955 240.405 266.652 239.485C268.102 238.699 269.445 237.682 271.092 237.442C271.244 237.418 271.397 237.404 271.555 237.395C271.818 237.38 272.081 237.69 271.977 237.95C271.92 238.094 271.86 238.235 271.795 238.379C271.225 239.633 270.352 240.851 269.262 241.775L269.178 241.846C269.562 241.713 269.94 241.564 270.313 241.396C272.502 240.41 274.487 238.919 276.834 238.32C276.944 238.291 277.057 238.265 277.169 238.24C277.895 238.083 278.277 238.872 277.851 239.413C277.782 239.501 277.714 239.587 277.642 239.673C276.596 240.973 275.44 242.18 274.167 243.264C273.73 243.636 273.281 243.995 272.822 244.339C272.629 244.484 272.435 244.626 272.239 244.767L272.142 244.835C272.371 244.673 272.598 244.508 272.822 244.339C274.259 243.903 275.675 243.387 277.061 242.816C277.612 242.59 278.04 243.148 278.098 243.607C278.294 245.144 276.588 246.256 275.478 246.995C274.366 247.737 273.141 248.302 271.887 248.754C269.475 249.626 266.942 250.022 264.413 250.377L263.185 250.549C258.323 251.229 253.246 252.043 249.757 255.828C247.802 257.95 246.479 260.586 245.269 263.179C244.06 265.77 242.998 268.429 241.991 271.103C240.946 273.871 240.037 276.689 239.071 279.485C238.183 282.051 237.122 284.585 236.072 287.093L235.907 287.489C233.677 292.82 231.014 297.84 227.302 302.29C226.69 303.025 225.702 301.983 226.267 301.255C230.149 296.246 232.851 290.336 235.08 284.44C236.095 281.756 236.945 279.01 237.92 276.312L238.501 274.71C239.275 272.574 240.057 270.44 240.873 268.321C241.904 265.64 243.039 262.991 244.337 260.427L244.475 260.158C245.746 257.685 247.256 255.248 249.334 253.378C253.074 250.008 258.051 249.2 262.864 248.56L264.377 248.36C266.412 248.089 268.452 247.791 270.431 247.247C271.573 246.933 272.688 246.533 273.737 245.981C274.154 245.762 274.562 245.521 274.956 245.258C273.831 245.588 272.691 245.858 271.531 246.07C270.962 246.174 270.4 246.251 269.839 246.306C268.396 246.449 266.963 246.443 265.484 246.365C265.358 246.358 265.317 246.161 265.452 246.136C266.482 245.952 267.513 245.724 268.54 245.475L268.848 245.399C268.854 245.229 268.921 245.047 269.061 244.875C269.573 244.252 270.543 243.934 271.216 243.494C271.922 243.033 272.605 242.537 273.256 242.005C273.852 241.519 274.424 241.004 274.974 240.466L275.14 240.304C275.085 240.359 275.03 240.413 274.974 240.466C273.489 241.154 272.079 242.034 270.527 242.578C269.293 243.012 268 243.304 266.694 243.408L266.613 243.414L266.532 243.419C265.17 243.517 263.799 243.478 262.457 243.773C262.307 243.806 262.26 243.605 262.395 243.548C263.567 243.06 264.786 242.872 266.018 242.644C266.044 242.547 266.112 242.461 266.228 242.406L266.544 242.255C267.483 241.804 268.358 241.348 269.139 240.616C269.828 239.968 270.402 239.212 270.833 238.372C269.108 238.751 267.594 240.059 266.026 240.793C264.317 241.596 262.509 242.171 260.652 242.499L260.441 242.536C256.97 243.115 252.796 243.041 249.687 241.235C249.588 241.177 249.659 241.044 249.762 241.06C250.644 241.204 251.516 241.376 252.39 241.527C252.219 241.371 252.143 241.09 252.34 240.865C253.124 239.966 253.745 238.938 254.141 237.813L254.217 237.593C254.399 237.071 254.708 236.262 254.393 235.791C254.092 235.342 253.384 235.404 252.961 235.593C252.08 235.991 251.494 236.983 250.753 237.582C249.944 238.237 249.024 238.721 248.082 239.156L247.883 239.246C246.254 239.98 244.514 240.596 243.233 241.891C242.544 242.587 241.951 243.456 241.753 244.431C241.662 244.878 241.662 245.338 241.782 245.781C241.877 246.127 242.076 246.34 241.962 246.693C241.812 247.147 241.286 247.69 241.014 248.096C240.698 248.563 240.385 249.032 240.071 249.501C239.445 250.439 238.821 251.38 238.197 252.32C236.95 254.202 235.717 256.093 234.493 257.989C234.095 258.606 233.698 259.225 233.303 259.844L232.71 260.772L232.397 261.263L231.864 262.102C231.882 262.18 231.881 262.262 231.856 262.333C231.765 262.593 231.595 262.77 231.383 262.898L231.345 262.92C228.229 267.849 225.163 272.81 222.066 277.75C221.901 279.258 221.746 280.767 221.612 282.277C221.307 285.693 221.098 289.118 221.031 292.547C220.999 294.208 221.131 295.877 221.203 297.536C221.238 298.328 221.286 299.118 221.349 299.909L221.395 300.469C221.456 301.238 221.491 302.003 221.215 302.736C220.97 303.381 220.222 303.525 219.78 303.034C214.008 302.802 208.232 302.625 202.455 302.516C192.116 302.317 181.773 302.348 171.432 302.548C166.239 302.649 161.044 302.79 155.851 302.966C153.293 303.05 150.734 303.171 148.174 303.205C146.795 303.225 144.625 302.722 144.513 301.169L144.511 301.122C144.338 301.168 144.16 301.206 143.978 301.234C143.897 301.247 143.819 301.243 143.746 301.226L143.711 301.217C141.655 301.844 139.055 300.949 137.101 300.428L136.94 300.385C135.076 299.899 133.577 299.203 132.355 297.657C130.216 294.95 129.486 291.314 129.107 287.963C128.75 284.81 128.73 281.599 129.164 278.452C128.908 275.888 129.158 273.241 129.448 270.691C129.591 269.43 129.759 268.171 129.961 266.917C130.073 266.217 130.221 265.524 130.371 264.833C130.431 264.557 130.481 264.26 130.557 263.972L130.592 263.85C130.358 263.881 130.102 263.83 129.856 263.693C129.269 263.37 129.098 262.717 129.088 262.092C129.055 260.207 129.28 258.268 129.479 256.395C129.679 254.525 129.953 252.647 130.313 250.8L130.406 250.324C130.678 248.942 130.989 247.516 131.538 246.218C129.477 245.867 127.423 245.495 125.424 244.86C124.449 244.549 123.488 244.162 122.571 243.69ZM230.103 263.306C230.07 263.314 230.04 263.322 230.009 263.331C229.186 263.562 228.354 263.758 227.524 263.969C226.09 264.329 224.689 264.732 223.355 265.36C223.076 268.887 222.662 272.402 222.268 275.92L222.19 276.624C222.795 275.501 223.413 274.388 224.06 273.288C226.03 269.934 228.045 266.607 230.103 263.306ZM131.094 263.655C131.098 264.075 131.011 264.511 130.964 264.914C130.888 265.568 130.827 266.226 130.749 266.881C130.591 268.195 130.457 269.512 130.359 270.833C130.297 271.676 130.256 272.522 130.219 273.368C131.047 270.272 132.144 267.243 133.186 264.209C133.012 264.191 132.834 264.148 132.65 264.099L132.341 264.016C132.158 263.969 131.566 263.823 131.094 263.655ZM232.71 260.772L232.716 260.911C232.738 261.404 232.443 261.681 232.086 261.753C232.293 261.426 232.502 261.099 232.71 260.772ZM137.978 237.435C138.85 237.512 139.704 237.698 140.519 238.019L140.597 238.049C141.2 238.282 142.081 238.575 142.278 239.219C142.334 239.401 142.185 239.552 142.014 239.566C141.36 239.619 140.589 238.918 139.983 238.681C139.308 238.418 138.602 238.222 137.886 238.118C136.278 237.883 134.602 238.061 133.09 238.648C133.001 238.682 132.945 238.54 133.025 238.498C134.55 237.668 136.245 237.281 137.978 237.435ZM119.507 241.613C119.406 241.524 119.305 241.431 119.206 241.338C118.423 240.596 117.73 239.732 117.216 238.781L117.081 238.524C116.663 237.714 116.15 236.56 117.132 235.976C117.719 235.627 118.426 235.715 119.08 235.926C119.122 235.939 119.165 235.955 119.207 235.969C119.499 236.072 119.781 236.194 120.032 236.311C121.123 236.812 122.085 237.541 123.092 238.184C124.184 238.881 125.262 239.327 126.522 239.588L126.641 239.612C127.823 239.846 129.105 239.996 129.93 240.969C130.138 241.215 129.948 241.675 129.59 241.553C127.309 240.784 124.896 240.614 122.802 239.35C121.935 238.827 121.114 238.226 120.228 237.731C119.758 237.468 119.272 237.238 118.755 237.08L118.472 236.997C118.307 236.948 118.109 236.9 117.976 236.948C117.723 237.036 117.804 237.171 117.882 237.407L117.89 237.431C118.505 239.334 120.257 240.927 121.881 241.981C122.253 242.223 122.634 242.445 123.022 242.651C125.651 244.053 128.593 244.706 131.482 245.481C131.482 245.481 133.153 245.948 133.706 246.122C134.322 246.071 135.025 246.289 135.489 246.55C135.94 246.802 136.304 247.142 136.578 247.54C136.578 247.54 136.842 247.761 136.891 248.103C137.029 248.42 137.123 248.761 137.169 249.118C137.196 249.327 137.143 249.488 137.044 249.601C137.343 254.189 136.104 258.75 134.709 263.109L134.57 263.539L134.481 263.812C132.976 268.433 131.249 273.022 130.478 277.841C129.962 281.06 129.978 284.391 130.357 287.625L130.383 287.848C130.756 290.905 131.473 294.335 133.415 296.796C134.406 298.051 135.58 298.609 137.081 299.013L137.164 299.036C138.522 299.393 139.923 299.9 141.323 300.054C142.623 300.196 143.712 299.712 144.882 299.259L144.883 299.258C147.346 297.076 148.465 293.899 149.291 290.693C151.433 282.397 151.168 273.784 149.953 265.366C149.319 260.969 148.458 256.608 147.599 252.249C147.17 250.071 146.707 247.897 146.323 245.71L146.095 244.425C145.969 243.71 145.847 242.994 145.743 242.276C145.603 241.31 145.561 240.36 145.513 239.388C144.333 237.431 142.62 235.82 140.636 234.664C139.215 233.836 137.711 233.261 136.159 232.845C131.722 231.648 126.884 231.733 122.419 230.812C120.919 230.503 119.496 230.045 118.072 229.495L117.878 229.42C117.226 229.166 116.56 229.024 116.236 229.794C116.005 230.342 116.142 230.912 116.488 231.372C117.337 232.5 119.042 233.023 120.326 233.429C121.098 233.675 121.886 233.87 122.684 234.014C123.481 234.159 124.281 234.195 125.046 234.477C125.341 234.585 125.399 235.055 125.046 235.137C124.077 235.364 123.101 235.17 122.138 234.981C121.079 234.772 120.036 234.476 119.023 234.1C118.836 234.031 118.643 233.959 118.446 233.881L118.297 233.823C118.451 233.934 118.604 234.043 118.759 234.153C118.8 234.182 118.775 234.259 118.721 234.24C116.338 233.351 114.17 231.746 112.491 229.847L112.407 229.752C111.816 229.074 110.468 227.022 109.332 227.593C108.266 228.129 110.084 230.195 110.775 231.039L110.855 231.138C111.641 231.159 112.402 231.648 113.038 232.043C114.143 232.728 115.298 233.319 116.475 233.871C118.814 234.971 121.298 235.747 123.612 236.903C123.643 236.919 123.62 236.958 123.59 236.954C122.117 236.719 120.66 236.343 119.236 235.877L119.173 235.857L119.109 235.836C118.22 235.543 117.343 235.214 116.48 234.861C115.52 234.47 114.583 234.03 113.673 233.531C112.85 233.081 111.936 232.27 110.981 232.151C110.879 232.138 110.788 232.136 110.709 232.144C109.613 232.236 110.52 234.053 110.826 234.597C111.327 235.489 111.931 236.313 112.625 237.066C114.031 238.595 115.735 239.806 117.579 240.749C118.208 241.07 118.852 241.353 119.507 241.613Z" fill="black"/>
<path fill-rule="evenodd" clip-rule="evenodd" d="M189.06 144.071C195.597 144.071 203.44 147.242 204.107 147.306L204.125 147.307C204.476 147.307 205.847 148.352 208.238 150.442L205.648 155.497L205.857 155.697C206.861 156.66 207.716 157.537 208.392 158.228C213.91 163.873 214.902 186.038 213.602 193.767C212.301 201.497 209.893 209.061 198.679 209.061C187.466 209.061 174.991 202.313 173.069 200.212C171.788 198.812 170.349 198.14 168.752 198.199C168.686 198.116 168.621 198.033 168.556 197.951L168.321 197.918C166.111 197.598 164.528 197.166 163.571 196.624C161.701 195.566 159.647 190.002 159.647 188.776C159.647 187.562 156.578 178.735 156.517 177.801L156.516 177.775C156.516 176.994 152.508 173.404 152.508 172.264C152.508 171.124 151.7 171.194 152.508 167.176L152.743 165.996C153.602 161.719 155.285 154.636 161.701 151.559C168.752 148.177 182.457 144.071 189.06 144.071Z" fill="white"/>
<path fill-rule="evenodd" clip-rule="evenodd" d="M160.613 151.4C164.13 147.665 184.093 141.887 194.193 143.112L194.495 143.151C195.301 143.254 196.095 143.409 196.88 143.619C199.413 144.211 202.031 145.108 204.125 146.606C205.872 147.831 211.386 149.832 209.761 153.038C210.363 154.18 210.589 155.592 210.181 156.717C210.13 157.106 210.01 157.464 209.857 157.835C211.144 159.736 212.164 161.886 212.989 163.931C214.431 169.077 215.328 174.433 215.46 179.684C215.896 189.66 214.804 201.576 206.121 208.027C200.876 212.115 192.661 212.252 186.766 207.183C186.432 206.788 184.859 205.718 185.384 205.531C185.54 205.696 185.701 205.856 185.865 206.015C185.857 205.997 185.856 205.979 185.859 205.96L185.705 205.821C185.415 205.553 185.04 205.164 185.467 205.24C185.486 205.262 185.507 205.281 185.527 205.303C185.618 205.357 185.686 205.404 185.739 205.446L185.766 205.468L185.758 205.459C185.512 205.196 185.364 204.929 185.733 205.099L185.781 205.123C185.945 205.296 186.111 205.461 186.281 205.621C186.278 205.603 186.281 205.583 186.291 205.563L186.133 205.411C185.979 205.259 186.002 205.258 186.077 205.136C185.75 204.677 186.361 204.95 186.404 205.129C186.787 205.039 187.123 205.758 187.37 205.845C198.175 214.158 213.854 206.781 213.601 183.618L213.596 183.165C213.522 175.758 212.899 168.146 209.838 161.441C209.54 160.795 209.207 160.167 208.841 159.559C208.589 159.103 208.318 158.659 208.027 158.226C207.214 158.161 206.411 158.012 205.619 157.781C205.348 157.712 205.08 157.636 204.811 157.547C200.886 157.761 197.049 157.994 193.113 158.215L191.883 158.292C188.55 158.506 185.102 158.85 182.411 160.914C179.772 162.792 179.759 166.497 177.499 168.56C174.277 170.749 174.254 172.722 173.633 175.948C173.679 178.379 175.364 181.912 172.272 182.935C172.794 183.679 172.067 183.322 172.01 183.061C172.003 183.062 171.998 183.064 171.994 183.064C172.458 183.928 171.775 183.384 171.715 183.106C171.678 183.096 171.641 183.069 171.605 183.033C172.073 183.79 171.316 183.26 171.361 183.122C170.457 181.73 168.594 181.514 167.281 181.883C167.265 181.933 167.207 181.937 167.171 181.911C161.589 183.121 163.029 194.685 168.749 193.567C168.994 193.516 168.988 193.635 169.036 193.646C168.904 193.299 169.277 193.44 169.273 193.513L169.296 193.512C169.314 193.51 169.307 193.508 169.32 193.513C169.192 192.803 169.911 193.832 169.854 193.874C169.876 193.861 169.901 193.853 169.923 193.85L169.898 193.783C169.779 193.465 169.789 193.597 169.79 193.415C169.701 193.189 169.694 193.288 169.715 193.142C170.03 192.897 170.123 193.638 170.228 193.693C170.048 193.441 170.191 193.236 170.361 193.372C171.65 196.084 173.313 198.632 175.464 200.639C175.7 200.825 175.937 201.007 176.184 201.179C177.098 201.977 178.502 202.49 179.358 203.196C179.358 203.208 179.352 203.222 179.344 203.237L179.363 203.255L179.383 203.274L179.681 203.417C179.769 203.491 179.848 203.574 179.917 203.666C179.992 203.753 180.058 203.847 180.113 203.948C180.141 204.071 180.08 204.123 179.963 204.07C179.911 204.052 179.861 204.032 179.81 204.013C179.812 204.017 179.814 204.02 179.817 204.023C179.834 204.049 179.947 204.311 179.817 204.268L179.801 204.263C179.729 204.237 179.658 204.207 179.588 204.179C179.671 204.283 179.747 204.396 179.814 204.49C179.886 204.565 179.929 204.653 179.946 204.752C179.944 204.808 179.913 204.831 179.857 204.824C179.773 204.796 179.689 204.767 179.606 204.736L179.63 204.781C179.689 204.898 179.772 205.092 179.624 205.027C179.497 204.987 179.374 204.942 179.252 204.893C179.242 204.913 179.221 204.92 179.18 204.901C178.79 204.762 178.414 204.593 178.053 204.393C177.736 204.162 177.416 203.935 177.098 203.706C176.798 203.526 176.51 203.326 176.234 203.101C174.387 201.907 172.771 200.391 171.489 198.703C169.343 200.561 165.055 198.786 162.403 197.331C160.056 196.03 159.134 193.626 158.896 191.033C158.4 187.543 155.55 186.348 155.748 178.69C155.744 178.692 155.739 178.692 155.734 178.692C155.63 178.661 155.529 178.62 155.434 178.568C155.336 178.521 155.244 178.466 155.158 178.398L155.052 178.251C154.996 178.22 154.947 178.188 154.909 178.156L154.889 178.181C154.827 178.256 154.869 178.143 154.872 178.12L154.687 177.868C154.248 177.269 153.766 176.596 153.374 176.057L153.362 176.079C153.353 176.096 153.348 176.108 153.352 176.113C152.418 174.77 151.54 173.149 151.296 171.579C151.008 170.369 151.121 169.123 151.372 168.003C152.45 164.081 155.979 155.204 160.613 151.4ZM185.953 205.647L185.894 205.594L185.946 205.659C185.973 205.693 186.001 205.722 186.046 205.753C186.043 205.743 186.043 205.733 186.044 205.721C186.014 205.698 185.983 205.673 185.953 205.647ZM194.148 145.083C187.299 144.494 180.562 146.004 174.026 147.832L173.575 147.961C169.859 149.022 165.929 149.977 162.789 152.249C158.401 155.612 156.135 160.962 154.158 165.902C152.431 169.572 153.314 173.711 155.916 176.274C156.187 173.727 156.648 171.255 157.37 168.802C157.52 168.419 157.406 168.294 157.731 168.244C158.221 174.852 155.807 179.735 160.583 187.567C162.656 191.263 160.257 193.967 166.109 195.912L166.267 195.972C167.486 196.433 168.818 196.796 170.012 196.539L169.905 196.365C169.796 196.185 169.763 196.098 169.921 196.021C169.917 196.013 169.911 196.004 169.905 195.994C169.777 195.751 169.653 195.505 169.535 195.257C169.486 195.273 169.438 195.285 169.388 195.298C169.421 195.358 169.425 195.418 169.334 195.438C169.013 195.549 168.683 195.593 168.344 195.572L168.271 195.567C167.89 195.543 167.649 195.474 167.433 195.409C167.362 195.398 167.29 195.386 167.22 195.371C166.527 195.218 165.794 194.827 165.319 194.439C159.908 191.363 160.468 180.894 167.137 179.904C167.274 173.313 170.407 162.192 175.606 155.911C180.306 150.133 193.136 147.629 202.063 148.512C202.194 148.555 202.324 148.599 202.453 148.643C203.831 148.765 205.143 149.379 206.521 149.664C205.532 148.922 204.409 148.428 203.253 148.008C200.95 146.598 198.308 145.835 195.757 145.296C195.229 145.166 194.692 145.095 194.148 145.083ZM166.832 185.2C167.19 185.005 167.149 185.193 167.232 185.139C169.811 184.928 172.592 187.188 174.035 189.072C173.921 189.191 173.612 188.84 173.558 188.784C173.551 188.792 173.543 188.797 173.534 188.8L173.574 188.857C174.158 189.696 172.999 188.709 172.892 188.505C172.872 188.515 172.854 188.521 172.831 188.516C172.923 188.607 173.204 188.842 173.252 189.009L173.326 189.071C174.028 189.672 173.969 190.124 173.173 189.271C173.192 189.31 173.199 189.347 173.186 189.376L173.214 189.395C173.605 189.668 173.927 190.431 173.109 189.648C173.194 190.22 172.298 189.114 172.27 189.121C170.719 187.904 168.437 186.72 166.492 186.56L166.425 186.552C166.068 186.507 165.899 186.401 166.024 186.167C165.585 186.063 165.688 185.846 165.896 185.853C165.586 185.649 165.865 185.454 166.045 185.53C165.921 185.188 166.417 185.416 166.462 185.368C166.72 184.971 166.789 185.302 166.832 185.2ZM161.425 163.962C162.664 163.507 166.323 164.867 166.031 166.667C165.856 167.081 165.282 167.318 164.878 167.084L164.351 166.73C163.434 166.116 162.607 165.577 161.623 165.041C161.087 164.775 160.856 164.21 161.425 163.962ZM168.474 161.286L167.995 160.974C165.413 159.283 161.763 156.721 168.236 159.372C168.974 159.689 169.954 159.876 170.357 160.579C170.99 161.875 169.325 161.962 168.474 161.286ZM168.763 153.698C168.557 152.911 171.135 153.835 171.885 154.078L171.999 154.121C172.73 154.394 173.567 154.646 174.003 155.277C174.515 156.148 173.479 156.328 172.838 155.935C171.522 155.075 170.081 154.426 168.763 153.698ZM175.32 150.033C173.869 148.447 177.752 149.966 178.334 150.388L178.351 150.4C178.785 150.706 178.697 151.365 178.289 151.558C177.129 151.58 176.275 150.612 175.32 150.033ZM181.924 148.295C179.617 146.636 182.656 147.425 183.711 148.076C184.43 148.71 183.69 149.782 181.924 148.295Z" fill="black"/>
<path fill-rule="evenodd" clip-rule="evenodd" d="M204.137 196.148C205.059 195.933 205.784 196.715 205.603 197.615C205.411 198.569 204.387 198.896 203.528 198.865C202.554 198.832 201.581 198.631 200.602 198.59C199.597 198.549 198.588 198.541 197.582 198.568C196.652 198.594 195.697 198.758 194.774 198.61C194.415 198.553 194.448 198.078 194.682 197.909C195.377 197.408 196.276 197.203 197.095 196.993C197.93 196.779 198.783 196.615 199.639 196.515C200.507 196.413 201.382 196.362 202.255 196.352C202.653 196.348 203.14 196.436 203.528 196.365C203.725 196.328 203.926 196.198 204.137 196.148ZM201.473 183.766C202.575 184.436 204.255 186 203.069 187.663C201.673 189.129 199.663 187.448 198.673 186.688C197.754 186.099 196.722 187.614 197.574 188.302C204.732 193.606 207.637 183.941 202.031 182.977C201.414 182.871 201.184 183.558 201.473 183.766ZM193.477 178.757C194.953 178.512 195.211 180.616 193.749 180.763C193.442 180.794 193.137 180.821 192.833 180.847C192.862 180.943 192.882 181.041 192.893 181.142C192.907 181.228 192.917 181.318 192.927 181.422C192.973 181.94 192.606 182.478 192.177 182.729C191.732 182.99 191.092 183.024 190.651 182.729C190.423 182.576 190.195 182.404 190.069 182.153C189.9 181.893 189.808 181.593 189.799 181.286C189.127 181.461 188.442 181.697 187.763 181.822C187.787 181.846 187.812 181.873 187.836 181.902C187.854 181.924 187.83 181.965 187.803 181.944L187.462 181.869C187.358 181.883 187.253 181.894 187.148 181.9L187.15 181.891C186.976 181.888 186.832 181.682 186.989 181.516C187.589 180.881 188.525 180.459 189.379 180.107L190.201 179.769C191.253 179.342 192.363 178.943 193.477 178.757ZM205.343 179.409C206.309 179.298 207.266 179.342 208.234 179.401C209.862 179.5 209.179 181.877 207.871 181.328C207.885 181.415 207.889 181.502 207.878 181.583C207.827 182 207.691 182.354 207.308 182.578C206.952 182.787 206.502 182.786 206.146 182.578C205.764 182.356 205.593 182.043 205.495 181.635C205.42 181.319 205.45 181.055 205.494 180.742C205.508 180.639 205.553 180.542 205.616 180.455C205.524 180.432 205.433 180.41 205.342 180.39C204.529 180.205 203.727 180.242 202.917 180.125C202.831 180.112 202.817 179.973 202.893 179.937C203.621 179.595 204.546 179.499 205.343 179.409ZM193.329 172.069C193.887 171.856 194.587 172.21 194.871 172.697C195.194 173.249 195.057 173.887 194.658 174.353C194.046 175.067 192.882 175.507 192.023 175.915L191.955 175.948C191.073 176.374 190.168 176.764 189.251 177.105C188.348 177.44 187.409 177.702 186.473 177.928C185.98 178.046 185.476 178.144 184.972 178.206C184.574 178.255 184.267 178.146 183.886 178.146C183.831 178.146 183.813 178.072 183.858 178.044C184.214 177.82 184.478 177.525 184.867 177.318C185.27 177.102 185.676 176.89 186.083 176.68C186.906 176.255 187.699 175.783 188.493 175.307C189.33 174.806 190.148 174.278 190.943 173.713C191.722 173.16 192.439 172.408 193.329 172.069ZM203.263 171.614C203.96 171.479 204.649 171.808 204.855 172.518C205.052 173.199 204.846 173.344 205.373 173.831C205.793 174.219 206.246 174.565 206.703 174.906L207.376 175.407C208.594 176.309 209.822 177.163 211.224 177.772C211.342 177.823 211.274 177.999 211.161 178.002C208.934 178.045 206.799 177.743 204.788 176.745C203.849 176.279 202.906 175.689 202.361 174.759C201.731 173.681 201.749 171.908 203.263 171.614Z" fill="black"/>
</g>
<path fill-rule="evenodd" clip-rule="evenodd" d="M94.6619 193.279C102.466 192.718 113.166 194.272 115.423 203.211C116.123 206.465 117.502 207.892 119.82 210.02C134.529 228.932 83.2086 232.112 80.5704 213.669C75.0125 215.703 68.9623 216.133 63.4013 218.189C60.3851 219.308 57.6501 221.074 55.0292 222.921C44.3417 230.547 33.8055 238.39 23.1561 246.071C27.2771 247.977 35.1122 255.255 31.9196 260.147C31.1759 261.099 30.0719 261.756 29.0954 262.453L28.5805 262.822C27.4726 263.619 25.6077 264.979 24.5764 265.718L24.3863 265.856C24.3117 265.911 24.2276 265.972 24.1516 266.027C31.5884 276.949 40.292 287.028 49.9464 296.026C50.7684 296.794 50.4317 298.51 49.2419 298.711L47.8245 298.919C43.2477 299.589 38.5839 300.191 33.9718 299.828C29.4799 299.337 26.773 295.342 23.7023 292.449C17.5703 286.153 11.8621 279.436 6.66287 272.341L6.55461 272.191C4.93644 269.969 2.78863 267.699 2.63144 264.831C2.34476 263.968 3.09921 262.732 3.82413 262.145L4.07161 261.786C7.95966 256.168 12.36 250.751 17.8731 246.682C17.8526 246.076 18.1315 245.439 18.684 245.038L41.7244 228.287C47.6692 224.177 53.1947 219.347 59.6384 216.028C66.2273 212.841 73.6631 212.716 80.4149 210.056C80.5581 208.139 84.5697 207.65 84.443 207.946C88.6764 205.379 90.8554 202.325 91.5273 199.518C92.2 196.712 91.3642 194.152 94.6619 193.279ZM151.639 253.418C158.763 242.648 165.554 254.563 168.52 261.745C172.024 271.573 164.767 283.661 160.079 292.134C158.353 294.486 156.082 299.449 153.038 299.809C145.37 299.777 137.691 299.235 130.019 299.073C125.064 297.839 132.015 290.36 136.816 293.091C138.271 293.638 138.998 295.297 140.416 295.83C140.933 295.94 140.969 295.709 141.179 295.192L141.209 295.12C141.584 294.225 141.947 293.326 142.316 292.428C145.441 284.7 148.743 277.04 152.027 269.383C152.728 267.721 151.744 266.352 150.465 265.362C149.486 264.552 145.276 262.575 149.242 263.445C147.715 259.884 149.551 256.269 151.639 253.418ZM133.951 238.676C134.637 238.589 135.518 239.284 135.623 239.957C136.498 245.533 135.523 251.047 134.354 256.502L134.14 257.501C133.709 259.49 133.227 261.52 132.152 263.263C131.055 265.043 129.395 266.385 127.49 267.2C121.377 269.647 113.775 267.227 109.279 262.652C106.402 258.693 108.931 253.721 109.414 249.382C108.957 248.213 108.789 246.861 108.525 245.656L108.493 245.512L107.468 241.015C107.241 240.024 107.961 238.667 109.144 238.803C117.386 239.753 125.718 239.71 133.951 238.676Z" fill="white"/>
<path fill-rule="evenodd" clip-rule="evenodd" d="M162.738 252.009C162.714 251.897 162.846 251.813 162.932 251.896C164.382 253.3 165.406 255.095 166.53 256.758C167.601 258.341 168.766 259.864 169.565 261.612C170.306 263.236 170.784 264.884 170.927 266.67C171.07 268.443 170.885 270.22 170.574 271.965C169.961 275.405 168.652 278.662 167.215 281.825C165.818 284.901 164.239 287.889 162.573 290.822L161.975 291.87C161.246 293.145 160.509 294.417 159.72 295.653C158.738 297.19 157.843 298.777 156.548 300.06C155.629 300.973 153.897 300.06 154.315 298.755C154.497 298.186 154.64 297.651 154.922 297.124C155.136 296.722 155.377 296.332 155.604 295.936C156.058 295.144 156.507 294.349 156.961 293.557C157.914 291.893 158.917 290.259 159.861 288.59C161.499 285.694 163.045 282.743 164.413 279.707L164.573 279.348C165.832 276.537 167.023 273.625 167.576 270.583C168.158 267.379 167.637 264.358 166.504 261.347C165.918 259.789 165.259 258.267 164.574 256.75L164.442 256.46C163.781 255.013 163.079 253.573 162.738 252.009ZM92.3192 196.582C92.3322 196.526 92.4279 196.522 92.4369 196.582C92.8445 199.304 91.9377 202.182 90.4617 204.445C89.6562 205.681 88.6627 206.798 87.4917 207.695L87.4001 207.764C86.2042 208.663 84.5884 209.53 83.1034 208.947C83.0566 208.929 83.0132 208.909 82.9726 208.886C83.1399 209.146 83.2941 209.42 83.4511 209.693C83.9179 210.506 84.3364 211.35 84.7922 212.17C85.6067 213.639 86.5767 214.952 87.8028 216.103C92.7061 220.7 99.5907 221.793 106.056 221.74L106.512 221.736C109.352 221.716 113.067 221.862 115.259 219.797C116.437 218.688 117.086 217.111 117.672 215.631C118.249 214.18 118.642 212.682 119.121 211.206C118.122 210.518 117.206 209.678 116.486 208.696C115.735 207.673 115.168 206.522 114.841 205.293L114.792 205.11C114.539 204.129 114.285 202.833 114.692 201.907C114.739 201.801 114.913 201.808 114.963 201.907C115.182 202.35 115.224 202.85 115.36 203.323C115.517 203.874 115.694 204.422 115.929 204.944C116.381 205.955 116.978 206.916 117.696 207.758C118.288 208.455 118.929 209.095 119.662 209.632C120.094 208.883 121.096 208.782 121.935 209.029C123.06 209.359 124.17 209.783 125.254 210.231L125.471 210.321C126.543 210.768 127.755 211.178 128.759 211.788C129.368 212.08 129.953 212.374 130.503 212.634C133.242 213.927 135.941 215.299 138.628 216.697L139.203 216.997C140.329 217.586 141.444 218.18 142.423 219.002C143.42 219.838 144.193 220.98 144.921 222.051C146.584 224.5 148.15 227.019 149.793 229.481C153.112 234.449 156.431 239.418 159.77 244.374C160.577 245.573 161.488 246.744 162.212 247.995C162.906 249.19 162.887 250.417 162.752 251.751L162.726 251.996C162.467 254.444 162.021 256.793 160.654 258.892C158.503 262.192 155.114 264.246 151.529 265.66C151.967 265.988 152.378 266.341 152.9 266.567C153.703 266.912 154.56 267.09 155.428 267.161C156.355 267.236 157.399 267.003 158.15 267.636C158.451 267.888 158.46 268.497 158.15 268.749C157.428 269.341 156.495 269.172 155.616 269.072L155.563 269.066C154.747 268.976 153.943 268.824 153.176 268.523C152.988 268.448 152.8 268.365 152.618 268.273C152.624 268.289 152.627 268.308 152.624 268.329C152.493 269.335 152.209 270.287 151.91 271.249L151.719 271.859C151.332 273.104 150.942 274.346 150.541 275.587C149.777 277.952 148.945 280.294 148.11 282.633L147.389 284.652C146.649 286.722 145.899 288.79 145.07 290.826C144.559 292.083 144.044 293.339 143.53 294.595C143.028 295.821 142.611 297.145 141.989 298.312C141.477 299.273 140.08 298.585 140.304 297.597C140.598 296.302 141.152 295.016 141.576 293.755C142.006 292.474 142.428 291.193 142.866 289.916C143.627 287.697 144.47 285.508 145.318 283.322L146.158 281.153C146.982 279.03 147.816 276.907 148.707 274.81L148.805 274.581C149.73 272.388 150.686 269.922 152.368 268.222C152.389 268.199 152.42 268.187 152.451 268.184C152.038 267.959 151.651 267.686 151.311 267.363L151.294 267.346C151.159 267.203 150.604 266.497 150.425 266.076C150.192 266.159 149.959 266.239 149.727 266.318C149.321 266.455 148.985 266.356 148.748 266.138L148.296 266.419C147.813 266.715 147.294 266.996 146.761 267.01C146.089 267.028 145.561 266.656 145.202 266.106C144.879 265.615 144.687 265.085 144.278 264.645C143.876 264.212 143.411 263.847 142.936 263.5L142.375 263.09C141.348 262.336 140.352 261.575 139.525 260.58C139.109 260.077 138.551 259.481 138.299 258.877C138.249 258.761 138.219 258.651 138.213 258.545C138.158 258.921 138.1 259.3 138.044 259.677C137.25 264.983 136.609 270.325 136.403 275.69C136.303 278.336 136.258 280.985 136.376 283.633C136.434 284.955 136.53 286.276 136.662 287.594C136.728 288.254 136.796 288.914 136.876 289.571L136.894 289.724C136.918 289.925 136.933 290.12 136.916 290.305C137.555 290.622 137.924 291.423 138.18 292.048C138.374 292.524 138.223 292.987 137.909 293.322C138.284 293.666 138.619 294.069 138.899 294.531C138.956 294.624 138.834 294.697 138.761 294.638C138.3 294.271 137.804 293.968 137.286 293.735C137.014 293.839 136.717 293.867 136.444 293.792C136.147 293.709 135.891 293.511 135.707 293.258C134.236 293.015 132.708 293.312 131.384 294.237C131.109 294.43 130.861 294.647 130.623 294.884C130.582 294.925 130.54 294.978 130.498 295.029L130.787 295.14C130.907 295.186 131.004 295.221 131.042 295.229C131.294 295.281 131.55 295.308 131.806 295.33L132.19 295.362C133.663 295.485 135.132 295.525 136.503 296.145C136.79 296.275 136.69 296.721 136.418 296.795C135.418 297.068 134.425 297.047 133.406 296.974L133.188 296.957C132.24 296.885 131.224 296.889 130.3 296.626C130.521 297.234 130.22 298.027 129.296 298.151C126.523 298.522 123.732 298.348 120.955 298.101C118.151 297.853 115.348 297.618 112.537 297.471C103.442 296.99 94.3336 297.082 85.2314 297.213L80.0873 297.288C75.9847 297.346 71.8822 297.391 67.78 297.36L65.8598 297.342C65.0484 297.333 64.2365 297.324 63.4259 297.299L62.9397 297.284C61.9739 297.248 60.6954 297.394 59.8561 296.82C59.1638 296.347 59.0097 295.479 59.4271 294.779C59.5478 294.578 59.7136 294.398 59.8867 294.222C60.2416 291.176 60.4408 288.115 60.6445 285.055C61.3514 274.347 60.9383 263.695 59.3078 253.095C54.9327 254.439 50.6245 256.124 46.4268 257.931C44.1563 258.908 41.8975 259.923 39.6649 260.986C37.6271 261.958 35.5806 263.172 33.4032 263.803C33.2053 263.979 32.9285 264.064 32.6831 263.986L32.6512 263.974H32.6498C32.4258 264.026 32.1771 263.995 31.9327 263.847C31.8832 263.817 31.8338 263.787 31.7844 263.755L31.7102 263.708C30.9437 263.223 30.1728 262.626 29.6303 261.895C28.9714 262.509 28.263 263.071 27.5663 263.641C26.81 264.261 26.0566 264.883 25.309 265.512C25.0123 265.761 24.685 266 24.4231 266.287L24.3851 266.329C24.379 266.336 24.3732 266.343 24.3679 266.35C25.5009 267.086 26.4929 268.204 27.3816 269.176C28.3359 270.219 29.2572 271.295 30.171 272.375L31.0556 273.423C37.3108 280.844 43.6301 288.533 51.7284 293.987C53.0084 294.849 51.788 296.949 50.5168 296.067C48.1111 294.403 45.8348 292.555 43.6487 290.61C39.8176 287.204 36.3704 283.383 33.1429 279.402C31.5095 277.386 29.9241 275.322 28.3706 273.244L27.8434 272.539C27.1408 271.599 26.442 270.656 25.7729 269.692L25.633 269.49C25.0461 268.639 24.422 267.683 24.0435 266.703C23.8981 266.851 23.7337 266.975 23.4937 267.069C23.0836 267.23 22.5803 266.892 22.48 266.49C22.2356 265.516 23.0792 264.936 23.7657 264.418C24.5992 263.793 25.4486 263.189 26.2995 262.589L26.6034 262.373C27.6674 261.615 28.737 260.837 29.8964 260.238C29.9313 260.192 29.9735 260.147 30.0215 260.109C30.0768 260.066 30.1306 260.023 30.1859 259.981C28.8012 257.725 27.2827 255.556 25.5882 253.507C24.3141 251.966 22.9614 250.495 21.5302 249.101L20.8872 248.475C19.9147 247.532 18.9035 246.575 17.8241 245.755L17.4862 246.14C17.0351 246.652 16.5794 247.161 16.0977 247.643C15.1493 248.589 14.2141 249.556 13.2832 250.521C11.7373 252.128 10.2437 253.784 8.75486 255.443L8.01064 256.272C6.46015 258.001 4.79911 259.697 3.3897 261.544L3.31932 261.638C2.704 262.467 2.26598 263.384 2.55191 264.437C2.8278 265.453 3.48373 266.353 4.0491 267.23L4.10531 267.317C6.4136 270.93 8.88622 274.449 11.5349 277.818C16.8394 284.564 22.8901 290.958 30.1103 295.648C31.1109 296.298 30.1757 297.915 29.1735 297.257C24.957 294.488 21.0836 291.163 17.5201 287.591C14.249 284.314 11.2847 280.705 8.5066 277C7.15247 275.193 5.85507 273.348 4.61148 271.461C3.4057 269.631 2.01084 267.747 1.13669 265.728C0.678557 264.665 0.509799 263.516 0.885061 262.396C1.2292 261.368 1.90979 260.513 2.61782 259.71L2.68427 259.634C4.31185 257.798 5.96852 255.983 7.63976 254.186C9.31679 252.383 11.0709 250.644 12.8614 248.956C14.2679 247.628 15.734 246.458 17.302 245.373C17.1608 245.273 17.0198 245.176 16.8758 245.083C16.438 244.796 16.3275 244.184 16.7114 243.795C17.7601 242.731 18.9688 241.806 20.1062 240.838C21.1753 239.927 22.2443 239.016 23.3134 238.104C25.4893 236.251 27.6652 234.397 29.8412 232.543C33.7494 229.212 37.6358 225.859 41.5309 222.515C43.1552 221.12 44.7944 219.744 46.4296 218.362L49.3347 215.907L50.7556 214.708C51.4835 214.095 52.2271 213.49 53.055 213.023C55.0028 211.924 57.3447 211.448 59.4908 210.865L59.6336 210.826C62.0408 210.165 64.4611 209.542 66.8945 208.987C69.3307 208.432 71.7775 207.926 74.2339 207.469C76.4418 207.056 78.7021 206.703 80.9533 206.651C81.5124 206.437 82.2132 206.362 82.7633 206.591C82.9898 206.685 83.2273 206.824 83.438 207C84.5388 206.611 85.6252 206.425 86.6538 205.768C87.681 205.112 88.5898 204.25 89.3546 203.3C90.936 201.333 91.7636 199.01 92.3192 196.582ZM117.629 263.182C116.756 263.121 115.971 263.483 115.191 263.869C115.63 264.06 116.07 264.25 116.509 264.439L119.432 265.693C120.398 266.106 121.42 266.466 122.338 266.975C122.404 267.012 122.457 267.056 122.496 267.107C123.45 266.493 124.459 265.946 125.427 265.362C125.648 265.229 125.87 265.097 126.092 264.963C124.941 265.35 123.76 265.545 122.509 265.181C120.84 264.698 119.392 263.307 117.629 263.182ZM120.02 260.243L119.863 260.136C119.017 259.552 118.006 258.802 116.978 259.326C116.494 259.573 116.097 259.972 115.62 260.238C115.14 260.507 114.612 260.713 114.077 260.837C113.188 261.043 112.17 261.074 111.215 260.875L111.229 262.172C111.952 262.472 112.67 262.779 113.389 263.089C113.856 262.929 114.304 262.736 114.777 262.525L115.095 262.382C116.004 261.971 116.922 261.697 117.927 261.827C119.819 262.071 121.249 263.483 123.058 263.954C125.276 264.533 127.278 262.87 129.374 262.459C129.719 262.391 130.076 262.351 130.43 262.344L130.547 262.344L130.6 262.313C131.051 262.047 131.726 261.793 132.04 261.345C132.381 260.861 132.411 260.048 132.523 259.478C132.534 259.421 132.546 259.363 132.556 259.306C132.359 259.306 132.158 259.316 131.954 259.354C131.314 259.472 130.712 259.7 130.116 259.954C128.989 260.436 127.886 260.983 126.699 261.303C125.537 261.617 124.322 261.766 123.125 261.592C121.957 261.423 120.987 260.894 120.02 260.243ZM120.202 255.68L120.027 255.567C119.564 255.27 119.034 254.963 118.468 255.073C117.962 255.171 117.527 255.575 117.086 255.825C116.119 256.373 115.034 256.672 113.927 256.749C113.006 256.811 112.05 256.699 111.165 256.424L111.195 259.297C111.52 259.401 111.856 259.475 112.209 259.502C113.283 259.582 114.33 259.323 115.23 258.729L115.686 258.425C116.465 257.91 117.197 257.502 118.228 257.689C119.249 257.877 120.105 258.534 120.941 259.107L121.078 259.199C122.036 259.835 123.008 260.245 124.184 260.256C125.454 260.265 126.709 259.911 127.891 259.474C129.065 259.041 130.181 258.523 131.436 258.364C131.82 258.315 132.288 258.301 132.729 258.377C132.788 258.05 132.843 257.726 132.895 257.4C133.009 256.7 133.106 256.002 133.19 255.302C130.963 254.7 128.907 256.648 126.839 257.248C125.639 257.596 124.333 257.592 123.133 257.256C122.022 256.944 121.149 256.298 120.202 255.68ZM120.207 250.842C119.732 250.75 119.262 250.971 118.858 251.198C117.827 251.772 116.936 252.571 115.768 252.873C114.266 253.262 112.623 252.927 111.13 252.292C111.136 253.179 111.143 254.066 111.151 254.953C111.431 255.06 111.719 255.146 112.013 255.214C113.057 255.454 114.164 255.422 115.193 255.119C116.241 254.811 117.045 253.978 118.097 253.718C119.173 253.451 120.186 253.971 121.053 254.56L121.314 254.739C122.304 255.414 123.265 256.001 124.504 256.116C125.815 256.237 126.954 255.825 128.125 255.279L128.397 255.152C129.88 254.468 131.804 253.689 133.283 254.468C133.4 253.363 133.484 252.258 133.541 251.152C133.337 251.076 133.126 251.021 132.883 251.019C132.303 251.016 131.694 251.2 131.153 251.392C129.97 251.812 128.869 252.437 127.698 252.885C126.589 253.312 125.359 253.534 124.176 253.343C123.079 253.166 122.256 252.59 121.498 251.801L121.387 251.684C121.056 251.329 120.7 250.938 120.207 250.842ZM121.076 246.741C120.527 246.45 119.86 246.18 119.226 246.265C118.621 246.345 118.218 246.757 117.845 247.198L117.644 247.439C116.976 248.232 116.32 248.897 115.293 249.224C114.228 249.56 113.1 249.428 112.109 248.936C111.757 248.761 111.429 248.543 111.101 248.328L111.118 250.658C111.776 250.987 112.445 251.284 113.18 251.464C114.535 251.795 115.687 251.55 116.846 250.799L116.968 250.719C117.841 250.143 118.736 249.457 119.815 249.393C120.868 249.33 121.657 249.916 122.351 250.633L122.432 250.719C123.305 251.644 124.189 252.096 125.489 251.989C126.75 251.886 127.929 251.327 129.084 250.845L129.189 250.801C130.245 250.366 131.462 249.917 132.622 250.084C132.9 250.123 133.259 250.21 133.579 250.36C133.625 249.27 133.647 248.178 133.652 247.086C132.993 246.512 131.967 246.417 131.143 246.652C129.851 247.02 128.794 247.97 127.56 248.485C126.466 248.943 125.326 249.045 124.211 248.613C123.058 248.165 122.155 247.314 121.076 246.741ZM133.579 242.15C131.649 242.217 129.76 243.478 127.918 243.959C125.859 244.496 124.179 243.764 122.345 242.952L122.108 242.847C121.168 242.432 120.156 242.059 119.113 242.229C118.097 242.395 117.198 242.961 116.324 243.472L116.156 243.569C114.564 244.48 112.943 245.103 111.083 244.948C111.093 245.534 111.089 246.118 111.091 246.691C111.396 246.867 111.69 247.065 111.969 247.247L112.07 247.31C112.956 247.867 113.869 248.233 114.926 247.889C115.947 247.556 116.427 246.664 117.129 245.929C117.773 245.253 118.614 244.843 119.556 244.882C120.569 244.923 121.529 245.372 122.366 245.92C123.204 246.468 124.014 247.176 124.994 247.451C127.193 248.064 129.077 245.728 131.157 245.365C132.03 245.211 132.993 245.405 133.652 245.934C133.644 244.675 133.617 243.412 133.579 242.15ZM116.965 241.621C116.693 241.631 116.421 241.643 116.15 241.655C115.143 241.698 114.136 241.748 113.13 241.805C112.433 241.843 111.577 242.058 110.893 241.844C110.876 241.915 110.853 241.982 110.822 242.048C110.925 242.565 110.989 243.1 111.028 243.64C111.659 243.709 112.301 243.685 112.923 243.555C114.417 243.244 115.63 242.298 116.965 241.621ZM133.55 241.187C129.874 241.441 126.171 241.354 122.489 241.434L122.048 241.444C122.03 241.444 122.012 241.446 121.995 241.446C122.417 241.61 122.836 241.798 123.254 241.99L123.67 242.182C124.657 242.638 125.661 243.011 126.764 242.93C127.947 242.844 129.061 242.359 130.167 241.967C131.221 241.593 132.435 241.342 133.56 241.505C133.557 241.399 133.554 241.294 133.55 241.187Z" fill="black"/>
<path fill-rule="evenodd" clip-rule="evenodd" d="M103.081 141.489C111.34 141.489 123.428 147.03 124.337 152.36C125.409 158.642 127.788 182.262 126.492 189.992C125.197 197.722 120.146 203.432 108.976 203.432C97.8054 203.432 89.4675 197.313 87.5536 195.212C85.6389 193.11 83.3195 186.572 83.3195 186.572C83.3195 186.572 77.2039 185.53 77.175 180.633C77.1468 175.735 80.2476 174.222 80.2476 174.222C80.2476 174.222 78.5739 153.904 82.0913 148.872C85.6086 143.839 94.8223 141.489 103.081 141.489Z" fill="white"/>
<path fill-rule="evenodd" clip-rule="evenodd" d="M128.016 167.364C128.468 172.301 128.638 177.281 128.726 182.237C128.81 186.933 128.399 191.831 125.735 195.847C123.407 199.36 119.86 201.909 115.911 203.286C113.664 204.07 111.175 204.361 108.802 204.433C107.576 204.469 106.346 204.416 105.128 204.29C104.974 204.273 104.82 204.259 104.666 204.245C103.634 204.153 102.61 204.061 101.858 203.278C101.621 203.031 101.624 202.524 101.975 202.363C102.642 202.058 103.094 202.026 103.826 202.127C104.433 202.21 105.04 202.276 105.651 202.318C106.961 202.411 108.278 202.413 109.587 202.312C111.993 202.127 114.454 201.444 116.638 200.41C120.064 198.785 123.007 196.123 124.595 192.629C126.416 188.629 126.324 184.003 126.239 179.696L126.235 179.519C126.141 174.741 125.965 169.978 125.552 165.216C125.396 163.414 125.172 161.623 124.949 159.83C124.886 159.326 124.823 158.821 124.762 158.316C124.615 157.094 124.422 155.879 124.185 154.672C124.113 154.307 124.03 153.946 123.946 153.585C123.883 153.313 123.82 153.042 123.763 152.769C123.665 152.785 123.566 152.794 123.464 152.798C122.856 152.819 122.192 152.67 121.741 152.236C121.568 152.354 121.348 152.429 121.084 152.442C119.467 152.522 117.833 152.487 116.204 152.451C115.314 152.431 114.424 152.412 113.539 152.411C111.026 152.41 108.511 152.411 105.996 152.419C105.613 152.42 105.229 152.421 104.846 152.423C102.716 152.431 100.582 152.439 98.4547 152.382C98.0037 152.37 97.55 152.362 97.0949 152.354C95.1893 152.321 93.2561 152.288 91.3945 151.941C90.6193 154.708 90.6468 157.749 92.2626 160.221C92.7191 160.918 92.3487 161.74 91.7539 162.175C91.1459 162.619 90.0527 163.301 89.1171 163.371C89.0813 163.453 89.0441 163.534 89.0076 163.616C88.9532 163.738 88.8981 163.86 88.8451 163.981C88.399 165.003 87.9969 166.031 87.7153 167.113C87.5701 167.671 87.4455 168.238 87.3401 168.808C87.3491 168.908 87.358 169.007 87.3684 169.107C87.3684 169.117 87.3697 169.127 87.3711 169.139C87.3773 169.18 87.3842 169.227 87.389 169.253C87.4021 169.323 87.4152 169.393 87.4283 169.464C87.4682 169.68 87.5088 169.896 87.5515 170.111C87.6871 170.805 87.7918 171.505 87.8661 172.207C88.0011 173.493 87.988 175.165 86.7398 175.926C86.0727 176.334 85.2727 176.292 84.567 176.018C84.1739 175.866 83.829 175.66 83.4737 175.449C83.4014 175.405 83.3278 175.362 83.2534 175.318C83.1391 175.251 83.0221 175.189 82.9051 175.127C82.7584 175.049 82.6118 174.973 82.4713 174.884C82.4011 174.841 82.3343 174.788 82.2717 174.733C81.7994 174.833 81.3381 175.022 81.0793 175.15C80.3853 175.497 79.776 175.998 79.2583 176.574C78.1574 177.8 77.827 179.527 77.9812 181.13C78.1251 182.621 78.7082 184.335 79.882 185.328C80.3929 185.76 81.0297 186.013 81.703 186.005C82.0348 186.003 82.3405 185.933 82.66 185.848C82.797 185.812 82.9471 185.796 83.0971 185.78C83.2947 185.759 83.4916 185.738 83.6569 185.672C84.0885 185.499 84.6207 186.029 84.4451 186.464C84.4059 186.561 84.3715 186.654 84.3384 186.745C84.26 186.96 84.1877 187.156 84.0706 187.337C85.2754 189.312 86.5945 191.226 87.9983 193.063C88.8878 194.226 89.8888 195.26 90.894 196.298C91.3181 196.735 91.7428 197.173 92.1607 197.624C92.7824 198.293 93.0413 199.611 91.9163 199.897C90.9277 200.151 90.1594 199.24 89.5494 198.517C89.4682 198.421 89.389 198.327 89.3133 198.24C86.6441 195.191 84.6269 191.69 83.6823 187.737C83.2569 188.041 82.7681 188.206 82.2531 188.278C81.2273 188.419 80.1905 188.216 79.2913 187.695C75.8883 185.72 75.0649 180.386 76.6586 177.043C77.0435 176.238 77.6108 175.519 78.3034 174.961C78.249 174.856 78.227 174.733 78.2621 174.601C78.324 174.37 78.3915 174.142 78.4624 173.915C78.3846 173.88 78.3282 173.809 78.3392 173.703C78.3929 173.146 78.4459 172.59 78.4989 172.033L78.5278 171.73C78.5216 171.428 78.512 171.127 78.503 170.825C78.4824 170.133 78.4617 169.441 78.47 168.744C78.4776 168.004 78.503 167.263 78.5278 166.523C78.5567 165.671 78.5857 164.82 78.5891 163.968C78.5987 161.209 78.6586 158.451 78.7192 155.693C78.7805 152.898 78.8411 150.104 78.8493 147.307C78.8583 144.591 78.8638 141.87 78.7929 139.155C78.7915 139.136 78.7915 139.117 78.7908 139.099C78.7908 139.082 78.7901 139.065 78.7901 139.047C78.7812 138.714 78.7598 138.364 78.7385 138.004C78.6187 136.018 78.4831 133.751 80.2731 132.561C80.6207 132.33 81.0545 132.327 81.4324 132.476C82.5209 131.715 83.8847 131.348 85.1894 131.136C87.1129 130.824 89.0489 130.637 90.9862 130.45C91.5528 130.396 92.1194 130.341 92.686 130.283C93.9921 130.15 95.3669 130.099 96.6812 130.128C97.3655 130.143 98.054 130.118 98.7438 130.094C99.3944 130.07 100.046 130.047 100.696 130.057C102.214 130.081 103.745 130.138 105.269 130.264C105.304 130.261 105.34 130.257 105.376 130.254C105.412 130.251 105.449 130.247 105.485 130.244C107.793 130.021 110.099 130.139 112.407 130.257C112.965 130.285 113.524 130.314 114.083 130.337C116.815 130.453 119.699 130.736 122.152 132.05C122.467 132.218 122.734 132.41 122.962 132.624C123.281 132.669 123.586 132.76 123.86 132.913C124.649 132.752 125.53 133.108 125.718 134.028C125.99 135.377 126.093 136.737 125.93 138.105C125.928 138.122 125.926 138.14 125.924 138.158C125.922 138.174 125.92 138.19 125.918 138.206C126.248 139.475 126.226 140.86 125.952 142.112C126.067 143.693 126.134 145.279 126.143 146.862C126.144 147.102 126.147 147.342 126.151 147.583C126.163 148.444 126.176 149.311 126.096 150.164C126.007 151.124 125.614 151.884 124.995 152.613C124.878 152.75 124.681 152.773 124.517 152.74C124.474 152.731 124.438 152.72 124.404 152.706C124.71 153.363 124.962 154.054 125.21 154.729C125.265 154.879 125.32 155.028 125.374 155.176C125.855 156.471 126.32 157.787 126.65 159.128C127.319 161.833 127.76 164.589 128.016 167.364ZM81.6658 179.603C81.5275 179.508 81.3884 179.411 81.2376 179.34C81.219 179.331 80.4218 179.071 80.576 179.414C80.6283 179.528 80.4913 179.655 80.3942 179.554C80.1175 179.272 80.2717 178.933 80.5354 178.682C81.0104 178.227 81.7202 178.333 82.304 178.441C83.115 178.591 83.904 178.948 84.5877 179.406C85.3236 179.898 86.2324 180.58 86.3777 181.514C86.5098 182.371 85.661 183.317 84.7866 182.743C84.3137 182.432 83.9825 181.968 83.65 181.504C83.4131 181.173 83.1756 180.841 82.8858 180.563C82.5436 180.235 82.1739 179.948 81.7829 179.684C81.7436 179.658 81.7051 179.631 81.6658 179.603Z" fill="black"/>
<path fill-rule="evenodd" clip-rule="evenodd" d="M112.324 192.875C111.346 192.474 110.474 191.806 109.836 190.952C109.614 190.655 109.557 190.342 109.603 190.055C109.655 189.732 109.845 189.44 110.104 189.244C110.364 189.048 110.689 188.95 111.003 189C111.276 189.043 111.547 189.193 111.763 189.504L111.808 189.566C112.187 190.082 112.681 190.505 113.244 190.778C113.786 191.04 114.393 191.163 115.021 191.092C116.218 190.956 117.042 190.306 117.918 189.423C118.027 189.312 118.136 189.197 118.245 189.08C118.314 188.975 118.41 188.906 118.516 188.871C118.634 188.831 118.767 188.834 118.89 188.877C119.007 188.917 119.113 188.996 119.184 189.101C119.251 189.199 119.289 189.322 119.277 189.463C119.196 190.377 118.72 191.193 118.044 191.834C117.293 192.546 116.298 193.038 115.361 193.211C114.329 193.401 113.277 193.265 112.324 192.875ZM115.848 178.765C116.946 179.436 118.62 181 117.438 182.663C116.047 184.129 114.045 182.448 113.058 181.688C112.144 181.099 111.115 182.614 111.964 183.302C119.094 188.606 121.989 178.941 116.404 177.977C115.788 177.871 115.56 178.558 115.848 178.765ZM103.07 172.596C103.191 171.083 105.485 170.739 105.714 172.237C105.918 173.578 105.677 174.81 105.076 176.018C104.502 177.172 103.057 176.634 102.948 175.583C102.801 174.175 102.995 173.537 103.07 172.596ZM120.533 171.926C120.853 171.506 121.315 171.218 121.868 171.381C123.597 171.888 123.087 174.354 122.48 175.553C122.15 176.205 121.084 176.371 120.602 175.797C119.816 174.861 119.441 172.992 120.439 172.071C120.466 172.023 120.497 171.975 120.533 171.926ZM105.052 165.975L105.325 165.927C106.17 165.78 107.22 165.639 107.817 166.321C108.135 166.683 108.243 167.356 107.817 167.702C107.068 168.311 106.239 168.075 105.342 168.127C104.601 168.169 103.89 168.292 103.178 168.497C101.614 168.946 100.339 169.766 99.0035 170.666C98.8287 170.784 98.6497 170.559 98.733 170.394C99.5041 168.877 100.998 167.631 102.495 166.871C103.294 166.466 104.168 166.129 105.052 165.975ZM118.957 165.295L119.167 165.338C121.441 165.816 124.396 166.77 125.473 169.014C125.514 169.331 125.471 169.4 125.436 169.444L125.424 169.459C125.394 169.497 125.372 169.549 125.235 169.592C125.197 169.583 125.158 169.573 125.12 169.563C124.625 169.433 124.235 169.254 123.857 169.068L123.447 168.866C122.971 168.631 122.491 168.405 121.982 168.239C120.897 167.883 119.781 167.633 118.647 167.499C118.402 167.47 118.165 167.386 117.978 167.244C117.801 167.108 117.666 166.921 117.604 166.671C117.524 166.348 117.547 166.104 117.719 165.813C117.849 165.594 118.035 165.442 118.247 165.355C118.464 165.267 118.711 165.246 118.957 165.295Z" fill="black"/>
<defs>
<clipPath id="clip0_119_440">
<rect width="179" height="224" fill="white" transform="translate(99 109.191)"/>
</clipPath>
</defs>
</svg>
