<svg width="77" height="63" viewBox="0 0 77 63" fill="none" xmlns="http://www.w3.org/2000/svg">
<path d="M30.2502 16.8889C13.9697 16.523 -5.18424 1.42103 1.29181 17.5623C5.01912 26.842 17.6222 31.3652 30.2502 31.2273C42.8782 31.3652 55.4812 26.8473 59.2085 17.5623C65.6846 1.42103 46.5307 16.523 30.2502 16.8889Z" fill="#E59600"/>
<path d="M30.4065 44.8605H24.8467V50.5237C24.8467 53.0849 27.1092 55.1582 29.9016 55.1582H30.9114C33.7037 55.1582 35.9663 53.0796 35.9663 50.5237V44.8605H30.4065Z" fill="#7A4C32"/>
<path d="M46.9795 24.2331H42.4668H18.0336H13.5209C9.91206 24.2331 6.96387 26.9056 6.96387 30.1774C6.96387 33.4491 9.91206 36.1217 13.5209 36.1217H18.0336H42.4731H46.9857C50.5946 36.1217 53.5428 33.4491 53.5428 30.1774C53.5428 26.9056 50.5884 24.2331 46.9795 24.2331Z" fill="#7A4C32"/>
<path d="M30.2502 3.72772C19.5919 3.72772 9.7251 13.421 9.7251 27.3723C9.7251 41.2494 19.8911 48.1057 30.2502 48.1057C40.6094 48.1057 50.7754 41.2494 50.7754 27.3723C50.7754 13.421 40.9086 3.72772 30.2502 3.72772Z" fill="#A56C43"/>
<path d="M16.0391 24.2653C17.8779 22.0431 22.0726 21.8362 24.4723 23.4857C24.8525 23.7456 25.3574 24.1168 25.5132 24.5252C25.7563 25.1935 25.0084 25.7132 24.2729 25.5541C23.8054 25.4534 23.3691 25.2412 22.9016 25.1192C22.0602 24.8912 21.4493 24.8328 20.6889 24.8275C19.567 24.8222 18.844 24.9442 17.7781 25.3102C17.3418 25.464 16.9803 25.7026 16.4817 25.5276C15.9082 25.3261 15.6963 24.7055 16.0391 24.2653Z" fill="#42312C"/>
<path d="M43.246 25.5278C43.0653 25.4642 42.897 25.374 42.7162 25.3104C41.6192 24.9179 40.9959 24.8224 39.8054 24.8278C38.7583 24.8331 38.1288 24.955 37.3185 25.1937C36.8136 25.3422 36.1841 25.7082 35.6294 25.565C34.8191 25.3528 34.844 24.5997 35.2865 24.117C35.8163 23.5495 36.5394 23.1199 37.3185 22.8335C39.1074 22.1759 41.2951 22.266 42.978 23.1199C43.5328 23.401 44.1311 23.7829 44.4615 24.2656C44.9227 24.9497 44.1934 25.8567 43.246 25.5278Z" fill="#42312C"/>
<path d="M20.714 31.2539C22.3801 31.2539 23.7308 30.0644 23.7308 28.5972C23.7308 27.13 22.3801 25.9406 20.714 25.9406C19.0479 25.9406 17.6973 27.13 17.6973 28.5972C17.6973 30.0644 19.0479 31.2539 20.714 31.2539Z" fill="#42312C"/>
<path d="M39.7868 31.2539C41.4529 31.2539 42.8035 30.0644 42.8035 28.5972C42.8035 27.13 41.4529 25.9406 39.7868 25.9406C38.1207 25.9406 36.77 27.13 36.77 28.5972C36.77 30.0644 38.1207 31.2539 39.7868 31.2539Z" fill="#42312C"/>
<path d="M35.4733 37.6277C33.5223 38.6142 27.1273 38.6142 25.1764 37.6277C24.0545 37.0602 22.9138 37.93 23.3751 38.7945C23.8301 39.6484 27.3206 41.6214 30.3373 41.6214C33.3541 41.6214 36.7947 39.6484 37.2559 38.7945C37.7234 37.9247 36.5952 37.0602 35.4733 37.6277Z" fill="#473530"/>
<path d="M32.6128 33.412C32.5505 33.3908 32.4819 33.3749 32.4133 33.3696H28.0877C28.0191 33.3749 27.9568 33.3908 27.8882 33.412C27.4955 33.5498 27.2774 33.8944 27.4644 34.2602C27.6514 34.626 28.5115 35.6599 30.2505 35.6599C31.9895 35.6599 32.8496 34.626 33.0366 34.2602C33.2236 33.8944 33.0055 33.5498 32.6128 33.412Z" fill="#875334"/>
<path d="M52.6264 27.3193C52.6264 27.3193 52.5952 27.3882 52.5392 27.5102L52.4644 27.6799L52.2524 28.1412C52.2337 28.1889 52.215 28.2313 52.1901 28.2791L50.7752 31.3546C50.6942 31.5349 50.3888 31.519 50.3389 31.3281C50.2579 31.0311 50.1519 30.6387 50.0273 30.1721C49.8901 29.6365 49.7156 29.0002 49.5286 28.3109C49.1671 26.9905 48.7433 25.4633 48.3132 23.9892C48.0763 23.1938 47.8457 22.409 47.6213 21.6825C47.4281 21.078 47.2474 20.516 47.0728 20.0175C46.917 19.5615 46.7674 19.1532 46.6303 18.8191C46.5867 18.7024 46.543 18.5964 46.4994 18.5009C45.8574 17.048 44.0872 16.2049 42.2922 16.4806C39.5372 16.9048 35.1492 17.4351 30.2999 17.4351C30.2875 17.4351 30.2688 17.4298 30.2501 17.4298C30.2314 17.4298 30.2189 17.4351 30.2002 17.4351C25.3572 17.4351 20.963 16.9048 18.208 16.4806C16.4129 16.2049 14.6427 17.048 14.0007 18.5009C13.5582 19.4978 12.9411 21.428 12.3241 23.5226C12.2493 23.7771 12.1745 24.0316 12.0997 24.2915C11.9812 24.6839 11.8691 25.0869 11.7569 25.4846C11.6634 25.8027 11.5761 26.1209 11.4888 26.4337C11.4826 26.439 11.4826 26.4443 11.4826 26.4549C11.3954 26.7625 11.3081 27.0701 11.2271 27.3723C11.2208 27.3829 11.2208 27.3882 11.2208 27.3935C11.1336 27.6958 11.0525 27.9927 10.9777 28.2738C10.8157 28.8624 10.6661 29.4138 10.5352 29.8964C10.4417 30.2463 10.3544 30.5592 10.2859 30.8349C10.236 31.0205 10.1924 31.1902 10.155 31.3334C10.1488 31.3599 10.1363 31.3811 10.1238 31.397C10.0428 31.5402 9.79348 31.5455 9.71245 31.3811C9.28238 30.4478 8.46586 28.629 8.08565 27.7806L8.04202 27.6799C7.99838 27.5844 7.96099 27.5049 7.93605 27.4465L7.87996 27.3193C7.87996 27.3193 7.23173 24.249 7.43118 20.1607C7.43742 20.0281 7.44365 19.8902 7.45612 19.7524C7.46858 19.4819 7.49351 19.2009 7.51845 18.9199C7.52468 18.8032 7.53715 18.6865 7.54961 18.5699C7.69297 17.1488 7.94852 15.6375 8.37236 14.1209H52.1278C53.9977 20.8023 52.6264 27.3193 52.6264 27.3193Z" fill="#3C2C23"/>
<path d="M52.6264 27.3193C52.6264 27.3193 52.5952 27.3882 52.5392 27.5102L52.4644 27.6799C52.4083 27.8071 52.3335 27.9662 52.2524 28.1412C52.2337 28.1889 52.215 28.2313 52.1901 28.2791C51.7725 29.2176 51.1367 30.6122 50.7752 31.3864C50.6942 31.5667 50.395 31.5455 50.3451 31.3599C50.3451 31.3493 50.3389 31.3387 50.3389 31.3281C50.2579 31.0311 50.1519 30.6387 50.0273 30.1721C49.8839 29.6365 49.7156 29.0002 49.5286 28.3109C49.1671 26.9905 48.7433 25.4633 48.3132 23.9892C48.0826 23.1885 47.8457 22.409 47.6213 21.6825C47.4281 21.078 47.2474 20.516 47.0728 20.0175C46.917 19.5615 46.7674 19.1532 46.6303 18.8191C46.5867 18.7024 46.543 18.5964 46.4994 18.5009C45.8574 17.048 44.0872 16.2049 42.2922 16.4806C39.5372 16.9048 35.1492 17.4351 30.2999 17.4351C30.2875 17.4351 30.2688 17.4298 30.2501 17.4298C30.2314 17.4298 30.2189 17.4351 30.2002 17.4351C25.3572 17.4351 20.963 16.9048 18.208 16.4806C16.4129 16.2049 14.6427 17.048 14.0007 18.5009C13.5582 19.4978 12.9411 21.428 12.3241 23.5226C12.2493 23.7771 12.1745 24.0316 12.0997 24.2915C11.9812 24.6838 11.8691 25.0869 11.7569 25.4846C11.6634 25.8027 11.5761 26.1209 11.4888 26.4337C11.4826 26.439 11.4826 26.4443 11.4826 26.4549C11.3954 26.7678 11.3081 27.0754 11.2271 27.3723C11.2208 27.3829 11.2208 27.3882 11.2208 27.3935C11.1336 27.6958 11.0588 27.9874 10.9777 28.2738C10.8157 28.8624 10.6661 29.4138 10.5352 29.8964C10.4417 30.2463 10.3607 30.5645 10.2859 30.8349C10.236 31.0205 10.1924 31.1902 10.155 31.3334C10.1488 31.3599 10.1363 31.3811 10.1238 31.397C10.0303 31.519 9.79348 31.5137 9.71868 31.3599L8.08565 27.7806L8.04202 27.6799L7.93605 27.4465L7.87996 27.3193C7.87996 27.3193 7.23173 24.249 7.43118 20.1607C7.43742 20.0281 7.44365 19.8902 7.45612 19.7524C7.46858 19.4819 7.49351 19.2009 7.51845 18.9199C7.52468 18.8032 7.53715 18.6865 7.54961 18.5699C7.69297 17.1488 7.94852 15.6375 8.37236 14.1209H52.1278C53.9977 20.8023 52.6264 27.3193 52.6264 27.3193Z" fill="url(#paint0_radial_94_3054)"/>
<path d="M46.4688 12.1749C43.4645 5.81696 40.51 0.800641 36.7266 0.413546C35.7169 0.312795 33.0741 0.0264513 30.4002 0.0211487C27.6265 0.0211487 24.8217 0.307493 23.7808 0.413546C19.9974 0.800641 17.0429 5.81696 14.0324 12.1696C12.3994 15.6163 48.1018 15.6163 46.4688 12.1749Z" fill="url(#paint1_linear_94_3054)"/>
<path d="M55.2442 9.88404C49.3665 10.7908 39.5496 11.846 30.6053 11.8778C30.4869 11.8778 30.3685 11.8778 30.25 11.8778C30.1316 11.8778 30.0132 11.8778 29.8948 11.8778C20.9505 11.846 11.1335 10.7908 5.25585 9.88404C0.182221 9.09924 0.00146484 11.9203 0.00146484 11.9203C0.00146484 11.9203 1.60957 10.2287 4.4331 12.5725C8.81488 16.2101 15.9516 21.9847 29.8449 22.0324C29.982 22.0324 30.1129 22.0271 30.25 22.0271C30.3872 22.0271 30.5181 22.0324 30.6552 22.0324C44.5547 21.9794 51.6852 16.2101 56.067 12.5725C58.8905 10.2287 60.4986 11.9203 60.4986 11.9203C60.4986 11.9203 60.3179 9.09924 55.2442 9.88404Z" fill="url(#paint2_linear_94_3054)"/>
<path d="M30.2505 11.3218C25.5508 11.3218 19.642 10.924 16.6377 10.7012C19.0436 9.69883 23.9053 8.0918 30.2505 8.0918C36.5956 8.0918 41.4511 9.70413 43.8633 10.7012C40.859 10.924 34.9501 11.3218 30.2505 11.3218Z" fill="#78909C"/>
<path d="M30.2503 8.59576C34.95 8.59576 38.8206 9.49739 41.4447 10.3566C38.2721 10.5687 33.8966 10.8074 30.2503 10.8074C26.604 10.8074 22.2285 10.5687 19.0559 10.3566C21.6862 9.49739 25.5569 8.59576 30.2503 8.59576ZM30.2503 7.57744C20.7887 7.57744 14.6367 11.0514 14.6367 11.0514C14.6367 11.0514 23.5935 11.831 30.2503 11.831C36.9071 11.831 45.8639 11.0514 45.8639 11.0514C45.8639 11.0514 39.7119 7.57744 30.2503 7.57744Z" fill="#90A4AE"/>
<path d="M65.1616 54.5803V62.529" stroke="#D18100" stroke-width="3.93998" stroke-miterlimit="10"/>
<path d="M65.8845 58.6897H64.4385C63.5721 58.6897 62.874 58.6897 62.874 57.3588V50.9903H67.4428V57.3588C67.449 58.4882 66.7447 58.6897 65.8845 58.6897Z" fill="#636363"/>
<path d="M70.9264 49.5374C69.7795 49.5374 66.1021 49.5692 65.2731 49.5692C63.9517 49.5692 60.4488 49.4685 59.0214 49.4685C54.3592 49.4685 54.3218 35.3156 54.3218 35.3156V48.4185C54.3218 51.966 56.4535 53.1008 60.1932 53.2174H69.7795C73.1578 53.2174 74.3608 51.2502 74.3608 48.8958L74.1239 46.3187C74.1114 46.324 73.2077 49.5374 70.9264 49.5374Z" fill="#616161"/>
<path d="M75.3173 17.465C75.2488 17.2423 74.8623 17.2476 74.8 17.4703L74.0832 19.9519L72.8366 47.6212C72.8366 47.6212 72.8304 47.7644 72.8304 47.8387C72.8304 48.6553 72.0887 49.2386 71.1288 49.2386C70.1689 49.2386 69.3773 48.6447 69.3773 47.828C69.3773 47.7114 69.7513 20.0527 69.7513 20.0527L69.0096 17.3324C68.941 17.1097 68.5608 17.1097 68.4922 17.3271L67.6508 20.005L67.2644 47.6584C67.2644 48.5598 66.6224 49.2439 65.5628 49.2439C64.5032 49.2439 63.643 48.5121 63.643 47.6106L63.456 19.9466L62.7205 17.3271C62.652 17.1097 62.278 17.1097 62.2032 17.3271L61.2682 20.058L61.2869 47.5576C61.2869 48.4909 60.5265 49.2492 59.4295 49.2492C58.2079 49.2492 57.3103 48.4909 57.3103 47.5576L56.0388 19.9519L55.2036 17.3165C55.135 17.0938 54.8296 17.1362 54.7548 17.3536L53.9009 20.005L54.8982 48.4432C54.8982 50.84 56.6932 52.6535 60.433 52.7754H70.0193C73.3976 52.7754 74.694 50.7975 74.694 48.4432L76.0404 20.1269L75.3173 17.465Z" fill="url(#paint3_linear_94_3054)"/>
<path d="M57.8379 60.8374C57.8379 51.4039 41.9064 49.2299 36.2344 48.7579L31.4537 54.3469H29.3782L24.6723 48.7473C18.5328 49.2405 13.3096 50.4813 9.53864 52.3425C5.18803 54.4901 2.98779 57.3482 2.98779 60.8321V62.5289H57.8503V60.8374H57.8379Z" fill="url(#paint4_linear_94_3054)"/>
<path d="M50.3016 60.451L45.8326 57.5233L45.9884 57.3165L29.789 57.5764L14.9109 57.3165L15.0667 57.5233L10.5977 60.451L10.4917 62.5301H50.4076L50.3016 60.451Z" fill="url(#paint5_linear_94_3054)"/>
<path d="M19.2241 53.5833L19.1555 49.4366C19.1555 49.4366 15.5467 50.073 14.2502 50.5502L12.4302 54.05L14.7862 57.1573L19.2241 53.5833Z" fill="url(#paint6_linear_94_3054)"/>
<path d="M41.6748 53.5833L41.7434 49.4366C41.7434 49.4366 45.3523 50.073 46.6487 50.5502L48.4687 54.05L46.1064 57.1573L41.6748 53.5833Z" fill="url(#paint7_linear_94_3054)"/>
<path d="M43.6516 58.0805L46.874 58.6003C47.7341 58.7382 48.5631 58.2555 48.7314 57.5236C48.8935 56.7917 48.3263 56.0863 47.4661 55.9431L44.2437 55.4233C43.3835 55.2854 42.5545 55.7681 42.3863 56.5C42.2242 57.2372 42.7852 57.9426 43.6516 58.0805Z" fill="#BDBDBD"/>
<path d="M17.2486 58.0805L14.0262 58.6003C13.166 58.7382 12.3308 58.2555 12.1688 57.5236C12.0067 56.7917 12.5739 56.0863 13.434 55.9431L16.6565 55.4233C17.5166 55.2854 18.3456 55.7681 18.5139 56.5C18.676 57.2372 18.115 57.9426 17.2486 58.0805Z" fill="#BDBDBD"/>
<path d="M24.5845 48.7579C22.9577 48.8905 21.3994 49.0814 19.9097 49.3147L19.7539 60.4238L30.406 54.3098L24.5845 48.7579Z" fill="url(#paint8_linear_94_3054)"/>
<path d="M40.9022 49.3306C39.0572 49.0337 37.418 48.8587 36.2337 48.7579L30.4121 54.3151L41.0642 60.4291L40.9022 49.3306Z" fill="url(#paint9_linear_94_3054)"/>
<defs>
<radialGradient id="paint0_radial_94_3054" cx="0" cy="0" r="1" gradientUnits="userSpaceOnUse" gradientTransform="translate(30.2521 26.5823) scale(22.0866 21.199)">
<stop offset="0.7945" stop-color="#554138" stop-opacity="0"/>
<stop offset="1" stop-color="#554138"/>
</radialGradient>
<linearGradient id="paint1_linear_94_3054" x1="30.2515" y1="0.792156" x2="30.2515" y2="13.4044" gradientUnits="userSpaceOnUse">
<stop offset="0.0028" stop-color="#FFF59D"/>
<stop offset="0.5532" stop-color="#FEE565"/>
<stop offset="0.9964" stop-color="#FDD835"/>
</linearGradient>
<linearGradient id="paint2_linear_94_3054" x1="30.25" y1="10.8531" x2="30.25" y2="26.2455" gradientUnits="userSpaceOnUse">
<stop offset="0.0028" stop-color="#FFF59D"/>
<stop offset="0.5532" stop-color="#FEE565"/>
<stop offset="0.9964" stop-color="#FDD835"/>
</linearGradient>
<linearGradient id="paint3_linear_94_3054" x1="64.9753" y1="54.6197" x2="64.9753" y2="23.5088" gradientUnits="userSpaceOnUse">
<stop stop-color="#757575"/>
<stop offset="0.4818" stop-color="#9E9E9E"/>
</linearGradient>
<linearGradient id="paint4_linear_94_3054" x1="30.4066" y1="62.5289" x2="30.4066" y2="48.7516" gradientUnits="userSpaceOnUse">
<stop stop-color="#709E3B"/>
<stop offset="0.3283" stop-color="#73A13E"/>
<stop offset="0.5949" stop-color="#7DAB47"/>
<stop offset="0.8391" stop-color="#8DBC57"/>
<stop offset="1" stop-color="#9CCC65"/>
</linearGradient>
<linearGradient id="paint5_linear_94_3054" x1="30.45" y1="62.805" x2="30.45" y2="49.7617" gradientUnits="userSpaceOnUse">
<stop stop-color="#1E88E5"/>
<stop offset="1" stop-color="#1565C0"/>
</linearGradient>
<linearGradient id="paint6_linear_94_3054" x1="15.8293" y1="62.525" x2="15.8293" y2="50.1286" gradientUnits="userSpaceOnUse">
<stop stop-color="#1E88E5"/>
<stop offset="1" stop-color="#1565C0"/>
</linearGradient>
<linearGradient id="paint7_linear_94_3054" x1="45.0702" y1="62.525" x2="45.0702" y2="50.1286" gradientUnits="userSpaceOnUse">
<stop stop-color="#1E88E5"/>
<stop offset="1" stop-color="#1565C0"/>
</linearGradient>
<linearGradient id="paint8_linear_94_3054" x1="25.08" y1="49.945" x2="25.08" y2="57.7808" gradientUnits="userSpaceOnUse">
<stop stop-color="#AED581"/>
<stop offset="1" stop-color="#8BC34A"/>
</linearGradient>
<linearGradient id="paint9_linear_94_3054" x1="35.7319" y1="48.7887" x2="35.7319" y2="58.0331" gradientUnits="userSpaceOnUse">
<stop stop-color="#AED581"/>
<stop offset="1" stop-color="#8BC34A"/>
</linearGradient>
</defs>
</svg>
