<svg width="24" height="23" viewBox="0 0 24 23" fill="none" xmlns="http://www.w3.org/2000/svg">
<path d="M17 4.55566C16.8895 4.55566 16.8 4.64064 16.8 4.74548V6.64367C16.8 6.7485 16.8895 6.83348 17 6.83348H19C19.1105 6.83348 19.2 6.7485 19.2 6.64367V4.74548C19.2 4.64064 19.1105 4.55566 19 4.55566H17ZM16.8 18.2226V17.6532C16.8 17.3387 17.0686 17.0837 17.4 17.0837C17.7314 17.0837 18 17.3387 18 17.6532V18.2226H19.2V17.6532C19.2 17.3387 19.4686 17.0837 19.8 17.0837C20.1314 17.0837 20.4 17.3387 20.4 17.6532V18.7921C20.4 19.1066 20.1314 19.3615 19.8 19.3615H15C14.6686 19.3615 14.4 19.1066 14.4 18.7921V17.6532C14.4 17.3387 14.6686 17.0837 15 17.0837C15.3314 17.0837 15.6 17.3387 15.6 17.6532V18.2226H16.8ZM13.2 10.2502H13.8C14.1314 10.2502 14.4 10.5052 14.4 10.8197C14.4 11.1342 14.1314 11.3891 13.8 11.3891H11.4C11.0686 11.3891 10.8 11.1342 10.8 10.8197C10.8 10.5052 11.0686 10.2502 11.4 10.2502H12V9.11131H10.2C9.86863 9.11131 9.6 8.85636 9.6 8.54186C9.6 8.22735 9.86863 7.9724 10.2 7.9724H13.8C14.1314 7.9724 14.4 8.22735 14.4 8.54186C14.4 8.85636 14.1314 9.11131 13.8 9.11131H13.2V10.2502ZM19.2 11.3891H18.6C18.2686 11.3891 18 11.1342 18 10.8197C18 10.5052 18.2686 10.2502 18.6 10.2502H19.2V9.68077C19.2 9.36627 19.4686 9.11131 19.8 9.11131C20.1314 9.11131 20.4 9.36627 20.4 9.68077V11.9586C20.4 12.2731 20.1314 12.5281 19.8 12.5281C19.4686 12.5281 19.2 12.2731 19.2 11.9586V11.3891ZM13.2 13.667H12.6C12.2686 13.667 12 13.412 12 13.0975C12 12.783 12.2686 12.5281 12.6 12.5281H13.8C14.1314 12.5281 14.4 12.783 14.4 13.0975V15.3753C14.4 15.6898 14.1314 15.9448 13.8 15.9448H10.2C9.86863 15.9448 9.6 15.6898 9.6 15.3753C9.6 15.0608 9.86863 14.8059 10.2 14.8059H13.2V13.667ZM17 3.41674H19C19.7732 3.41674 20.4 4.01164 20.4 4.74548V6.64367C20.4 7.3775 19.7732 7.9724 19 7.9724H17C16.2268 7.9724 15.6 7.3775 15.6 6.64367V4.74548C15.6 4.01164 16.2268 3.41674 17 3.41674ZM5 3.41674H7C7.7732 3.41674 8.4 4.01164 8.4 4.74548V6.64367C8.4 7.3775 7.7732 7.9724 7 7.9724H5C4.2268 7.9724 3.6 7.3775 3.6 6.64367V4.74548C3.6 4.01164 4.2268 3.41674 5 3.41674ZM5 4.55566C4.88954 4.55566 4.8 4.64064 4.8 4.74548V6.64367C4.8 6.7485 4.88954 6.83348 5 6.83348H7C7.11046 6.83348 7.2 6.7485 7.2 6.64367V4.74548C7.2 4.64064 7.11046 4.55566 7 4.55566H5ZM5 14.8059H7C7.7732 14.8059 8.4 15.4008 8.4 16.1346V18.0328C8.4 18.7666 7.7732 19.3615 7 19.3615H5C4.2268 19.3615 3.6 18.7666 3.6 18.0328V16.1346C3.6 15.4008 4.2268 14.8059 5 14.8059ZM5 15.9448C4.88954 15.9448 4.8 16.0298 4.8 16.1346V18.0328C4.8 18.1376 4.88954 18.2226 5 18.2226H7C7.11046 18.2226 7.2 18.1376 7.2 18.0328V16.1346C7.2 16.0298 7.11046 15.9448 7 15.9448H5ZM13.2 4.55566H10.2C9.86863 4.55566 9.6 4.3007 9.6 3.9862C9.6 3.6717 9.86863 3.41674 10.2 3.41674H13.8C14.1314 3.41674 14.4 3.6717 14.4 3.9862V6.26403C14.4 6.57853 14.1314 6.83348 13.8 6.83348C13.4686 6.83348 13.2 6.57853 13.2 6.26403V4.55566ZM10.2 6.83348C9.86863 6.83348 9.6 6.57853 9.6 6.26403C9.6 5.94953 9.86863 5.69457 10.2 5.69457H11.4C11.7314 5.69457 12 5.94953 12 6.26403C12 6.57853 11.7314 6.83348 11.4 6.83348H10.2ZM4.2 13.667C3.86863 13.667 3.6 13.412 3.6 13.0975C3.6 12.783 3.86863 12.5281 4.2 12.5281H6.6C6.93137 12.5281 7.2 12.783 7.2 13.0975C7.2 13.412 6.93137 13.667 6.6 13.667H4.2ZM9 13.667C8.66863 13.667 8.4 13.412 8.4 13.0975C8.4 12.783 8.66863 12.5281 9 12.5281H10.2C10.5314 12.5281 10.8 12.783 10.8 13.0975C10.8 13.412 10.5314 13.667 10.2 13.667H9ZM10.8 18.2226V18.7921C10.8 19.1066 10.5314 19.3615 10.2 19.3615C9.86863 19.3615 9.6 19.1066 9.6 18.7921V17.6532C9.6 17.3387 9.86863 17.0837 10.2 17.0837H12.6C12.9314 17.0837 13.2 17.3387 13.2 17.6532C13.2 17.9677 12.9314 18.2226 12.6 18.2226H10.8ZM8.4 10.2502H9C9.33137 10.2502 9.6 10.5052 9.6 10.8197C9.6 11.1342 9.33137 11.3891 9 11.3891H7.8C7.46863 11.3891 7.2 11.1342 7.2 10.8197V10.2502H6.6C6.26863 10.2502 6 9.99527 6 9.68077C6 9.36627 6.26863 9.11131 6.6 9.11131H7.8C8.13137 9.11131 8.4 9.36627 8.4 9.68077V10.2502ZM3.6 9.68077C3.6 9.36627 3.86863 9.11131 4.2 9.11131C4.53137 9.11131 4.8 9.36627 4.8 9.68077V10.8197C4.8 11.1342 4.53137 11.3891 4.2 11.3891C3.86863 11.3891 3.6 11.1342 3.6 10.8197V9.68077ZM15.6 9.68077C15.6 9.36627 15.8686 9.11131 16.2 9.11131C16.5314 9.11131 16.8 9.36627 16.8 9.68077V11.9586C16.8 12.2731 16.5314 12.5281 16.2 12.5281C15.8686 12.5281 15.6 12.2731 15.6 11.9586V9.68077ZM18 14.8059V14.2364C18 13.9219 18.2686 13.667 18.6 13.667H19.8C20.1314 13.667 20.4 13.9219 20.4 14.2364C20.4 14.5509 20.1314 14.8059 19.8 14.8059H19.2V15.3753C19.2 15.6898 18.9314 15.9448 18.6 15.9448H16.2C15.8686 15.9448 15.6 15.6898 15.6 15.3753V14.2364C15.6 13.9219 15.8686 13.667 16.2 13.667C16.5314 13.667 16.8 13.9219 16.8 14.2364V14.8059H18ZM1.2 5.12511C1.2 5.43962 0.931371 5.69457 0.6 5.69457C0.268629 5.69457 0 5.43962 0 5.12511V2.84729C0 1.27477 1.34315 0 3 0H5.4C5.73137 0 6 0.254955 6 0.569457C6 0.883959 5.73137 1.13891 5.4 1.13891H3C2.00589 1.13891 1.2 1.90378 1.2 2.84729V5.12511ZM18.6 1.13891C18.2686 1.13891 18 0.883959 18 0.569457C18 0.254955 18.2686 0 18.6 0H21C22.6569 0 24 1.27477 24 2.84729V5.12511C24 5.43962 23.7314 5.69457 23.4 5.69457C23.0686 5.69457 22.8 5.43962 22.8 5.12511V2.84729C22.8 1.90378 21.9941 1.13891 21 1.13891H18.6ZM5.4 21.6394C5.73137 21.6394 6 21.8943 6 22.2088C6 22.5233 5.73137 22.7783 5.4 22.7783H3C1.34315 22.7783 0 21.5035 0 19.931V17.6532C0 17.3387 0.268629 17.0837 0.6 17.0837C0.931371 17.0837 1.2 17.3387 1.2 17.6532V19.931C1.2 20.8745 2.00589 21.6394 3 21.6394H5.4ZM22.8 17.6532C22.8 17.3387 23.0686 17.0837 23.4 17.0837C23.7314 17.0837 24 17.3387 24 17.6532V19.931C24 21.5035 22.6569 22.7783 21 22.7783H18.6C18.2686 22.7783 18 22.5233 18 22.2088C18 21.8943 18.2686 21.6394 18.6 21.6394H21C21.9941 21.6394 22.8 20.8745 22.8 19.931V17.6532Z" fill="white"/>
</svg>
