<svg width="313" height="382" viewBox="0 0 313 382" fill="none" xmlns="http://www.w3.org/2000/svg">
<g clip-path="url(#clip0_151_7011)">
<path d="M293.549 6.52804L9.35376 15.5873L20.8472 375.274L305.043 366.214L293.549 6.52804Z" fill="#292A2E"/>
<path opacity="0.58" d="M293.549 6.52804L9.35376 15.5873L20.8472 375.274L305.043 366.214L293.549 6.52804Z" fill="white"/>
<path d="M283.154 0.262658L0.263428 23.5718L29.8465 381.737L312.737 358.428L283.154 0.262658Z" fill="white"/>
<path d="M282.931 0.526278L312.475 358.205L30.0694 381.474L0.526916 23.7947L282.933 0.526278H282.931ZM283.377 0L0 23.3489L29.6226 382L313 358.651L283.377 0Z" fill="black"/>
<path d="M263.91 25.4728L134.791 36.1117L135.561 45.4369L264.681 34.798L263.91 25.4728Z" fill="#292A2E"/>
<path d="M266.104 50.8577L136.934 61.4686L136.974 61.9549L266.144 51.344L266.104 50.8577Z" fill="black"/>
<path d="M267.518 67.9826L138.349 78.5935L138.389 79.0798L267.558 68.4689L267.518 67.9826Z" fill="black"/>
<path d="M268.933 85.108L139.763 95.7189L139.803 96.2052L268.973 85.5943L268.933 85.108Z" fill="black"/>
<path d="M270.347 102.233L141.178 112.844L141.218 113.33L270.387 102.719L270.347 102.233Z" fill="black"/>
<path d="M200.605 125.213L142.593 129.979L142.633 130.465L200.645 125.7L200.605 125.213Z" fill="black"/>
<path d="M273.913 146.569L33.385 166.387L34.1552 175.713L274.683 155.894L273.913 146.569Z" fill="#292A2E"/>
<path d="M157.239 283.04L59.0601 291.105L59.1001 291.592L157.279 283.526L157.239 283.04Z" fill="black"/>
<path d="M158.904 303.194L60.7253 311.259L60.7654 311.746L158.944 303.68L158.904 303.194Z" fill="black"/>
<path d="M160.569 323.348L62.3901 331.413L62.4302 331.9L160.609 323.835L160.569 323.348Z" fill="black"/>
<path d="M162.233 343.503L64.0544 351.568L64.0945 352.054L162.273 343.989L162.233 343.503Z" fill="black"/>
<path d="M48.8373 295.9C51.6894 295.9 54.0014 293.59 54.0014 290.742C54.0014 287.893 51.6894 285.584 48.8373 285.584C45.9852 285.584 43.6731 287.893 43.6731 290.742C43.6731 293.59 45.9852 295.9 48.8373 295.9Z" fill="#292A2E"/>
<path d="M53.9403 357.685C56.7924 357.685 59.1045 355.376 59.1045 352.528C59.1045 349.679 56.7924 347.37 53.9403 347.37C51.0882 347.37 48.7761 349.679 48.7761 352.528C48.7761 355.376 51.0882 357.685 53.9403 357.685Z" fill="#292A2E"/>
<path d="M52.2767 337.538C55.1288 337.538 57.4409 335.229 57.4409 332.381C57.4409 329.532 55.1288 327.223 52.2767 327.223C49.4246 327.223 47.1125 329.532 47.1125 332.381C47.1125 335.229 49.4246 337.538 52.2767 337.538Z" fill="#292A2E"/>
<path d="M50.5567 316.719C53.4088 316.719 55.7209 314.41 55.7209 311.561C55.7209 308.713 53.4088 306.403 50.5567 306.403C47.7047 306.403 45.3926 308.713 45.3926 311.561C45.3926 314.41 47.7047 316.719 50.5567 316.719Z" fill="#292A2E"/>
<path d="M284.416 272.56L186.237 280.625L186.277 281.112L284.456 273.047L284.416 272.56Z" fill="black"/>
<path d="M286.081 292.715L187.903 300.78L187.943 301.266L286.121 293.201L286.081 292.715Z" fill="black"/>
<path d="M287.746 312.869L189.567 320.934L189.607 321.42L287.786 313.355L287.746 312.869Z" fill="black"/>
<path d="M289.411 333.023L191.232 341.088L191.272 341.575L289.451 333.51L289.411 333.023Z" fill="black"/>
<path d="M175.968 285.424C178.82 285.424 181.132 283.115 181.132 280.266C181.132 277.418 178.82 275.108 175.968 275.108C173.116 275.108 170.803 277.418 170.803 280.266C170.803 283.115 173.116 285.424 175.968 285.424Z" fill="#292A2E"/>
<path d="M181.071 347.21C183.923 347.21 186.235 344.901 186.235 342.052C186.235 339.204 183.923 336.894 181.071 336.894C178.219 336.894 175.906 339.204 175.906 342.052C175.906 344.901 178.219 347.21 181.071 347.21Z" fill="#292A2E"/>
<path d="M179.407 327.064C182.259 327.064 184.571 324.754 184.571 321.906C184.571 319.057 182.259 316.748 179.407 316.748C176.555 316.748 174.243 319.057 174.243 321.906C174.243 324.754 176.555 327.064 179.407 327.064Z" fill="#292A2E"/>
<path d="M177.688 306.244C180.54 306.244 182.852 303.935 182.852 301.086C182.852 298.238 180.54 295.928 177.688 295.928C174.836 295.928 172.523 298.238 172.523 301.086C172.523 303.935 174.836 306.244 177.688 306.244Z" fill="#292A2E"/>
<path d="M75.9014 92.2323C85.2894 92.2323 92.8999 84.631 92.8999 75.2543C92.8999 65.8777 85.2894 58.2764 75.9014 58.2764C66.5133 58.2764 58.9028 65.8777 58.9028 75.2543C58.9028 84.631 66.5133 92.2323 75.9014 92.2323Z" fill="#2068D9"/>
<path d="M118.476 117.146C114.302 123.358 108.781 128.551 102.323 132.339C95.864 136.127 88.6339 138.414 81.1693 139.029C73.7047 139.644 66.1972 138.572 59.2044 135.892C52.2115 133.212 45.9129 128.993 40.7761 123.549C44.8194 117.173 50.288 111.822 56.7522 107.914C63.2164 104.007 70.4998 101.651 78.03 101.03C85.5602 100.41 93.1319 101.542 100.15 104.339C107.168 107.135 113.44 111.519 118.475 117.146H118.476Z" fill="#2068D9"/>
<path d="M77.126 40.0543C89.868 40.068 102.112 45.0001 111.298 53.8197C120.484 62.6393 125.902 74.6638 126.419 87.38C126.936 100.096 122.512 112.52 114.072 122.054C105.632 131.589 93.8293 137.496 81.1304 138.542C79.763 138.655 78.3786 138.712 77.0142 138.712C64.2721 138.698 52.0284 133.766 42.8422 124.946C33.656 116.127 28.2382 104.102 27.7212 91.386C27.2042 78.6698 31.628 66.2461 40.0679 56.7116C48.5079 47.1771 60.3108 41.2697 73.0098 40.224C74.3771 40.1113 75.7606 40.0543 77.1265 40.0543H77.126ZM77.1265 39.5665C75.7523 39.5665 74.3644 39.6231 72.9707 39.7377C66.443 40.2751 60.0853 42.0914 54.2604 45.083C48.4356 48.0746 43.2577 52.1828 39.0226 57.1731C34.7874 62.1634 31.5779 67.9381 29.5772 74.1673C27.5765 80.3965 26.824 86.9584 27.3624 93.4781C28.3906 105.929 34.0651 117.539 43.2609 126.008C52.4568 134.476 64.5026 139.184 77.0107 139.199C78.3852 139.199 79.7707 139.142 81.167 139.028C87.6944 138.49 94.0519 136.673 99.8764 133.682C105.701 130.69 110.878 126.582 115.113 121.591C119.348 116.601 122.557 110.827 124.558 104.598C126.558 98.3685 127.311 91.8069 126.772 85.2874C125.744 72.8367 120.07 61.2263 110.874 52.7579C101.678 44.2895 89.6317 39.5812 77.1235 39.5665H77.1265Z" fill="black"/>
<path d="M276.309 174.405L35.688 194.171L35.728 194.657L276.349 174.891L276.309 174.405Z" fill="black"/>
<path d="M277.62 191.447L37.0891 211.232L37.1292 211.718L277.66 191.933L277.62 191.447Z" fill="black"/>
<path d="M279.034 208.566L38.5034 228.351L38.5435 228.837L279.074 209.052L279.034 208.566Z" fill="black"/>
<path d="M280.448 225.685L39.9172 245.47L39.9573 245.956L280.488 226.171L280.448 225.685Z" fill="black"/>
<path d="M99.3595 257.93L41.3477 262.696L41.3877 263.182L99.3995 258.416L99.3595 257.93Z" fill="black"/>
<path d="M32.35 4.98962C34.1923 5.26037 35.8591 6.23044 37.0033 7.69783C38.1474 9.16523 38.6808 11.0169 38.4923 12.8672L35.9383 40.4249C35.8099 41.8703 35.1123 43.2057 33.9986 44.1376C32.885 45.0696 31.4465 45.5218 29.9992 45.395C28.6018 45.2397 27.321 44.5433 26.4319 43.4554C25.5428 42.3675 25.1162 40.9747 25.2437 39.5762L27.8705 11.242C27.9425 10.3542 28.3416 9.52451 28.9906 8.91357C29.6396 8.30263 30.4925 7.95382 31.3841 7.93463C31.8765 7.93323 32.3638 8.03451 32.8148 8.232C33.2658 8.42949 33.6706 8.71884 34.0032 9.08153C34.3358 9.44422 34.5889 9.87227 34.7464 10.3383C34.9039 10.8043 34.9622 11.298 34.9177 11.7878L33.0742 31.6771C33.052 31.9166 32.9354 32.1375 32.7501 32.2911C32.5649 32.4448 32.3261 32.5187 32.0863 32.4966C31.9675 32.4855 31.852 32.4512 31.7464 32.3956C31.6409 32.34 31.5474 32.2641 31.4712 32.1723C31.3951 32.0805 31.3378 31.9746 31.3026 31.8607C31.2675 31.7468 31.2552 31.6271 31.2664 31.5084L33.1026 11.6976C33.1503 11.2647 33.0363 10.8294 32.7825 10.4752C32.5288 10.1211 32.1531 9.8729 31.7274 9.77831C31.4917 9.73283 31.2491 9.7371 31.0152 9.79086C30.7813 9.84462 30.5612 9.94667 30.3692 10.0905C30.1771 10.2342 30.0173 10.4166 29.9 10.6257C29.7827 10.8349 29.7105 11.0663 29.6881 11.305L27.0613 39.6401C26.9684 40.5296 27.2092 41.4219 27.737 42.1443C28.2648 42.8667 29.0421 43.3679 29.9186 43.5508C30.4045 43.6431 30.9044 43.633 31.3862 43.5212C31.8681 43.4093 32.3212 43.1982 32.7165 42.9013C33.1119 42.6044 33.4408 42.2283 33.6822 41.797C33.9236 41.3658 34.0721 40.889 34.1183 40.3971L36.6889 12.6658C36.8269 11.2376 36.3917 9.81303 35.4788 8.70515C34.5659 7.59726 33.25 6.89664 31.8202 6.75721C30.4339 6.65434 29.0625 7.09872 28.0007 7.99487C26.9389 8.89103 26.2715 10.1674 26.1418 11.5498L23.936 35.3406C23.925 35.4591 23.8908 35.5744 23.8352 35.6797C23.7796 35.785 23.7038 35.8783 23.6121 35.9544C23.5204 36.0304 23.4146 36.0877 23.3008 36.1229C23.1869 36.1581 23.0672 36.1705 22.9486 36.1595C22.8298 36.1486 22.7144 36.1145 22.6089 36.059C22.5034 36.0035 22.4099 35.9278 22.3337 35.8362C22.2575 35.7447 22.2002 35.639 22.1649 35.5252C22.1296 35.4115 22.1171 35.2919 22.1282 35.1733L24.3335 11.3825C24.4229 10.4303 24.7035 9.50593 25.1586 8.6645C25.6136 7.82306 26.2338 7.08186 26.9821 6.48515C27.7303 5.88844 28.5913 5.44847 29.5136 5.19152C30.4359 4.93457 31.4006 4.8659 32.35 4.98962Z" fill="#2068D9"/>
</g>
<defs>
<clipPath id="clip0_151_7011">
<rect width="313" height="382" fill="white"/>
</clipPath>
</defs>
</svg>
