<svg width="69" height="58" viewBox="0 0 69 58" fill="none" xmlns="http://www.w3.org/2000/svg">
<path d="M56.7757 41.6987C56.7757 45.2415 53.3994 48.1139 49.235 48.1139H7.76137C3.59704 48.1139 0.220703 45.2415 0.220703 41.6987V6.41519C0.220703 2.8724 3.59704 0 7.76137 0H49.235C53.3994 0 56.7757 2.8724 56.7757 6.41519V41.6987Z" fill="#2068D9"/>
<path d="M53.0055 41.6987C53.0055 43.4693 51.3164 44.9063 49.2352 44.9063H7.76154C5.68032 44.9063 3.99121 43.4693 3.99121 41.6987V6.41522C3.99121 4.64463 5.68032 3.20763 7.76154 3.20763H49.2352C51.3164 3.20763 53.0055 4.64463 53.0055 6.41522V41.6987Z" fill="#F5F8FA"/>
<path d="M11.5317 41.6987C10.4892 41.6987 9.64648 40.9802 9.64648 40.0949V20.8493C9.64648 19.964 10.4892 19.2455 11.5317 19.2455C12.5741 19.2455 13.4168 19.964 13.4168 20.8493V40.0949C13.4168 40.9802 12.5741 41.6987 11.5317 41.6987Z" fill="#50A5E6"/>
<path d="M19.0717 41.6986C18.0292 41.6986 17.1865 40.9801 17.1865 40.0948V12.8303C17.1865 11.945 18.0292 11.2265 19.0717 11.2265C20.1142 11.2265 20.9569 11.945 20.9569 12.8303V40.0948C20.9569 40.9801 20.1142 41.6986 19.0717 41.6986Z" fill="#77B255"/>
<path d="M26.6127 41.6986C25.5702 41.6986 24.7275 40.9801 24.7275 40.0948V28.8682C24.7275 27.9829 25.5702 27.2644 26.6127 27.2644C27.6552 27.2644 28.4979 27.9829 28.4979 28.8682V40.0948C28.4979 40.9801 27.6552 41.6986 26.6127 41.6986Z" fill="#DD2F45"/>
<path d="M68.0864 57.7366V54.529C68.0864 49.214 63.0247 44.9062 56.7754 44.9062H26.6128C20.3672 44.9062 15.3018 49.214 15.3018 54.529V57.7366H68.0864Z" fill="#2068D9"/>
<path d="M31.641 57.7366H38.3013L32.2688 44.9062H28.4984L26.6133 54.529L32.2688 56.1328L31.641 57.7366ZM51.7482 57.7366H45.0879L51.1204 44.9062H54.8908L56.7759 54.529L51.1204 56.1328L51.7482 57.7366Z" fill="black"/>
<path d="M45.4637 57.7366L51.1192 48.1139H32.2676L37.9231 57.7366H45.4637Z" fill="#CCD6DC"/>
<path d="M34.7584 45.9952C36.0422 47.0361 37.4335 48.4474 38.6324 49.7545C40.1933 51.4578 43.2228 51.4546 44.7781 49.7481C45.9695 48.441 47.3513 47.0329 48.6313 45.9952C49.4288 45.3489 49.9133 44.4716 49.9133 43.535V42.2792C49.9133 40.4445 48.1638 38.9562 46.0072 38.9562H37.3807C35.224 38.9562 33.4746 40.4445 33.4746 42.2792V43.5334C33.4746 44.4716 33.9591 45.3489 34.7584 45.9952Z" fill="#AF7E57"/>
<path d="M33.4599 41.6554C35.7523 43.859 38.5951 44.4556 41.6868 44.4556C44.7765 44.4556 47.6194 43.8574 49.9117 41.6554V36.0565H33.458V41.6554H33.4599Z" fill="#9B6A49"/>
<path d="M48.7278 5.32942C45.0989 4.33026 36.5591 4.6029 34.4232 6.96369C28.8732 7.05511 22.3619 11.3228 21.5079 16.9521C20.6633 22.5253 22.5466 25.1123 23.2158 29.303C23.9756 34.0502 27.1125 35.569 29.6198 36.2041C33.228 40.2601 37.0643 40.0869 43.5059 40.0869C56.0837 40.0869 62.0748 32.9276 62.6045 20.766C62.925 13.4126 57.852 7.84097 48.7278 5.32942Z" fill="#60352A"/>
<path d="M55.9216 21.2872C54.7038 19.8534 53.1467 18.6986 49.7307 18.2913C51.0127 18.7901 52.2399 20.5157 52.4001 21.47C52.5604 22.4243 52.7206 23.1957 51.7064 22.2414C47.6439 18.4212 43.2194 19.9255 38.8364 17.592C35.7749 15.9626 34.8417 14.1583 34.8417 14.1583C34.8417 14.1583 34.4684 16.564 29.8253 19.0162C28.4793 19.7267 26.8731 21.3096 25.9833 23.648C25.3423 25.3287 25.5422 26.8267 25.5422 29.3863C25.5422 36.86 32.7831 43.1437 41.7131 43.1437C50.6432 43.1437 57.8841 36.8039 57.8841 29.3863C57.8803 24.7385 57.3091 22.9214 55.9216 21.2872Z" fill="#AF7E57"/>
<path d="M43.506 33.2092H39.9129C39.4171 33.2092 39.0137 32.8678 39.0137 32.4445C39.0137 32.0213 39.4152 31.6798 39.9129 31.6798H43.506C44.0018 31.6798 44.4052 32.0213 44.4052 32.4445C44.4052 32.8678 44.0037 33.2092 43.506 33.2092Z" fill="#915A34"/>
<path d="M34.5212 27.8589C33.5296 27.8589 32.7246 27.1739 32.7246 26.3302V24.8014C32.7246 23.9577 33.5296 23.2727 34.5212 23.2727C35.5128 23.2727 36.3177 23.9577 36.3177 24.8014V26.3302C36.3177 27.1755 35.5147 27.8589 34.5212 27.8589ZM48.8974 27.8589C47.9059 27.8589 47.1009 27.1739 47.1009 26.3302V24.8014C47.1009 23.9577 47.9059 23.2727 48.8974 23.2727C49.889 23.2727 50.694 23.9577 50.694 24.8014V26.3302C50.694 27.1755 49.889 27.8589 48.8974 27.8589Z" fill="#662113"/>
<path d="M41.9466 39.5919C36.7548 39.5919 35.16 38.461 34.8942 38.2316C34.4116 37.8209 34.4116 37.1552 34.8942 36.7445C35.3617 36.3467 36.112 36.3355 36.5946 36.7077C36.6926 36.767 37.9538 37.4889 41.9466 37.4889C46.094 37.4889 47.2929 36.7109 47.3042 36.7028C47.7868 36.2938 48.5428 36.313 49.0254 36.7269C49.508 37.1376 49.4816 37.8225 48.999 38.2316C48.7313 38.461 47.1383 39.5919 41.9466 39.5919Z" fill="#915A34"/>
<path d="M50.59 42.9015C49.5211 43.8093 45.4831 48.9735 45.4831 48.9735C45.4831 48.9735 47.6077 50.3191 51.2969 53.9934C51.6683 54.3623 52.3206 46.5758 52.3979 44.8373C52.4186 44.3514 51.1009 42.4669 50.59 42.9015ZM32.8355 42.9015C33.9025 43.8093 37.9424 48.9735 37.9424 48.9735C37.9424 48.9735 35.8178 50.3191 32.1286 53.9934C31.7572 54.3623 31.1049 46.5758 31.0276 44.8373C31.005 44.3514 32.3227 42.4669 32.8355 42.9015Z" fill="#F4F7F9"/>
</svg>
