<svg width="93" height="79" viewBox="0 0 93 79" fill="none" xmlns="http://www.w3.org/2000/svg">
<path d="M27.2354 61.9111C31.4455 61.9111 34.8584 59.0076 34.8584 55.4258C34.8584 51.8441 31.4455 48.9406 27.2354 48.9406C23.0253 48.9406 19.6123 51.8441 19.6123 55.4258C19.6123 59.0076 23.0253 61.9111 27.2354 61.9111Z" stroke="#2068D9" stroke-width="5" stroke-linecap="round" stroke-linejoin="round"/>
<path d="M65.3496 61.9111C69.5597 61.9111 72.9727 59.0076 72.9727 55.4258C72.9727 51.8441 69.5597 48.9406 65.3496 48.9406C61.1395 48.9406 57.7266 51.8441 57.7266 55.4258C57.7266 59.0076 61.1395 61.9111 65.3496 61.9111Z" stroke="#2068D9" stroke-width="5" stroke-linecap="round" stroke-linejoin="round"/>
<path d="M19.5156 55.2621H11.8926V42.2915M8.08105 16.3504H50.0079V55.2621M34.7618 55.2621H57.6309M72.8771 55.2621H80.5001V35.8063H50.0079M50.0079 19.593H69.0655L80.5001 35.8063" stroke="#2068D9" stroke-width="5" stroke-linecap="round" stroke-linejoin="round"/>
<path d="M11.9883 29.4846H27.2344" stroke="#2068D9" stroke-width="5" stroke-linecap="round" stroke-linejoin="round"/>
</svg>
